<svg width="195" height="143" viewBox="0 0 195 143" fill="none" xmlns="http://www.w3.org/2000/svg">
<path d="M95.9141 0.73047C95.2004 1.37383 95.1211 1.90996 95.1211 7.7002C95.1211 13.4904 95.2004 14.0266 95.9141 14.6699C96.3502 15.0631 97.0639 15.3848 97.5 15.3848C97.9361 15.3848 98.6498 15.0631 99.0859 14.6699C99.7996 14.0266 99.8789 13.4904 99.8789 7.7002C99.8789 1.90996 99.7996 1.37383 99.0859 0.73047C98.6498 0.337305 97.9361 0.015626 97.5 0.015626C97.0639 0.015626 96.3502 0.337305 95.9141 0.73047Z" fill="#e83c3c"/>
<path d="M69.6271 4.94805C69.2307 5.30547 68.9531 5.87734 68.9531 6.19902C68.9531 6.5207 69.9443 9.23711 71.1338 12.2395C73.2352 17.4936 74.1867 18.959 75.5348 18.959C76.3277 18.959 77.6758 17.6365 77.6758 16.8859C77.6758 15.7779 73.2748 5.23398 72.6008 4.73359C71.6889 4.12598 70.3805 4.19746 69.6271 4.94805Z" fill="#e83c3c"/>
<path d="M122.36 4.94805C121.686 5.59141 117.324 16.0639 117.324 16.9932C117.324 17.6723 118.752 18.959 119.465 18.959C120.813 18.959 121.804 17.4936 123.866 12.3824C125.056 9.45156 126.047 6.69941 126.047 6.27051C126.047 4.59062 123.589 3.69707 122.36 4.94805Z" fill="#e83c3c"/>
<path d="M46.3535 16.9932C45.2433 18.2085 45.7984 19.245 49.9219 23.7127C52.1818 26.1075 54.2832 28.2877 54.6004 28.5022C56.0277 29.5387 58.248 28.5379 58.248 26.8938C58.248 26.2147 50.6355 17.5651 49.3271 16.743C48.6135 16.2784 46.8689 16.4213 46.3535 16.9932Z" fill="#e83c3c"/>
<path d="M145.633 16.743C144.602 17.3506 137.109 25.6428 136.871 26.4291C136.435 27.9303 137.902 29.2527 139.567 28.8238C140.122 28.6809 142.303 26.6793 144.801 23.9629C149.122 19.2807 149.796 17.9939 148.567 16.8859C148.052 16.4213 146.307 16.3141 145.633 16.743Z" fill="#e83c3c"/>
<path d="M33.4281 33.4346C30.3752 34.8285 21.9301 40.726 17.9256 44.2645C8.40994 52.7711 2.10584 62.493 0.361311 71.357C-0.233415 74.2522 0.00447513 80.5785 0.678499 81.758C1.27323 82.7231 3.09705 83.2949 6.50682 83.5451C8.40994 83.6524 10.4717 84.1527 13.0488 85.082C19.4719 87.3695 21.8508 87.7627 29.7012 87.7627C35.6881 87.7627 37.1551 87.6555 40.2873 86.9049C43.6971 86.1186 44.0539 86.1186 45.6398 86.619C46.5914 86.9406 47.8205 87.2623 48.3756 87.3695C49.1289 87.5125 50.1597 88.4775 51.825 90.5506C54.6797 94.0891 60.389 99.093 63.5213 100.773C66.7328 102.488 70.3012 103.704 72.799 103.918C74.7814 104.097 75.0193 104.24 76.1295 105.67C77.5568 107.564 80.015 109.137 82.7904 109.959C86.9138 111.174 92.2267 109.887 95.6365 106.813L97.381 105.241L98.8084 106.742C99.641 107.6 101.306 108.708 102.575 109.28C104.478 110.137 105.311 110.28 108.007 110.28C110.663 110.28 111.536 110.137 113.439 109.28C115.461 108.386 117.84 106.456 118.752 104.99C118.989 104.633 120.139 104.276 121.884 104.025C125.056 103.561 128.267 102.488 131.479 100.773C134.611 99.093 140.32 94.0891 143.135 90.5863C145.514 87.6555 145.554 87.6197 148.369 86.8692L151.224 86.0828L154.792 86.9049C159.193 87.9057 167.519 88.2274 171.999 87.584C175.647 87.0479 180.643 85.6897 183.299 84.4744C184.727 83.8311 185.995 83.5451 188.255 83.4736C191.784 83.3664 193.687 82.7945 194.321 81.758C194.995 80.5785 195.233 74.2522 194.639 71.357C192.101 58.4898 180.762 44.9436 163.911 34.6498C160.937 32.827 160.581 32.7197 158.36 32.7197C151.66 32.7555 146.188 37.3662 145.237 43.7641C145.038 45.015 145.197 45.444 146.228 46.7664C146.902 47.5885 147.893 49.1254 148.409 50.1977C150.113 53.6647 153.801 54.4152 160.977 52.7711C163.039 52.3065 164.942 51.8418 165.259 51.8061C166.171 51.5916 167.321 54.165 167.519 56.81C167.797 60.0625 167.598 60.2055 164.466 59.5264C160.145 58.6328 156.299 58.9545 152.413 60.6344L150.431 61.4565L149.043 60.277C145.395 57.1316 140.796 55.5947 135.8 55.8807C134.016 55.9522 132.272 56.1666 131.915 56.3096C131.399 56.4883 131.201 56.3096 131.003 55.5233C130.408 52.9498 129.893 51.7703 128.703 50.1619C127.355 48.3391 124.223 46.1945 122.439 45.8729C121.606 45.7299 121.21 45.301 120.655 44.0143C119.188 40.5473 114.906 37.5807 110.544 37.0088C106.936 36.5084 100.632 38.8674 98.8084 41.3693L98.2137 42.1914L96.4691 40.5473C89.7685 34.3281 78.6273 36.5799 75.2969 44.8006C75.0986 45.3367 74.5832 45.8729 74.2263 45.9801C69.191 47.374 65.6226 50.9125 64.79 55.2731L64.5521 56.7385L62.5301 56.2381C61.182 55.8807 59.4375 55.7377 57.2568 55.8449C54.5607 55.9879 53.5299 56.2024 51.0717 57.2746C49.4461 57.9537 47.3051 59.2047 46.2742 60.0268C44.5297 61.4207 44.3314 61.4922 43.4988 61.0275C40.3269 59.2404 33.0713 58.5971 29.4236 59.7766L27.7187 60.3484L27.4808 59.0975C27.0447 57.0602 27.9963 52.7711 29.1064 51.8061C29.2254 51.6631 30.732 51.9848 32.3972 52.4494C34.0625 52.9498 36.8775 53.4145 38.6617 53.5217C41.3181 53.7004 42.1508 53.5932 43.7367 52.9856C45.283 52.3422 45.7191 51.949 46.3931 50.5193C46.8689 49.59 47.8601 47.9459 48.6531 46.9094C50.0804 45.015 50.0804 45.015 49.6047 43.0135C48.3359 37.5092 44.6486 34.0422 38.8996 32.9342C36.0053 32.3981 35.6881 32.4338 33.4281 33.4346ZM40.6441 37.7594C42.3094 38.4742 44.7676 41.4051 44.7676 42.6203C44.7676 43.2279 44.609 43.2637 43.3006 43.0135C40.3666 42.4773 35.9656 42.7275 34.1814 43.5496C32.5955 44.3002 30.8906 45.9801 30.8906 46.8379C30.8906 47.1238 30.4545 47.1953 29.5426 47.0523C28.3928 46.8379 27.9566 46.9809 26.7672 47.9102C26.0138 48.5178 24.864 49.9475 24.2693 51.0555C23.2385 52.9856 23.1592 53.3787 23.1592 57.775V62.4572L21.6129 63.4938C19.8287 64.709 17.8066 66.8535 16.8154 68.6049C15.9828 70.0703 16.4586 71.357 18.0049 71.7145C19.3926 72.0361 20.0269 71.7145 21.1371 70.1418C22.5248 68.1045 25.5777 65.8527 28.5117 64.566C33.0713 62.6002 38.8599 62.8861 42.3887 65.2451C44.4504 66.6033 45.3226 66.4246 48.1377 64.0299C51.7457 61.0275 54.4814 59.8838 58.248 59.8838C60.4683 59.8838 61.6974 60.0983 63.1248 60.6701L65.0676 61.4922L62.7283 63.4223C55.8295 69.1768 55.9484 78.3983 63.0058 84.117L65.2262 85.9041L64.7107 87.727C63.9574 90.1217 64.3142 93.267 65.583 95.483C66.0984 96.4481 66.376 97.2344 66.2174 97.2344C66.0191 97.2344 64.6314 96.3766 63.1248 95.3043C60.0322 93.124 56.5431 89.5856 54.0453 86.1186C52.3404 83.7953 52.3008 83.7596 49.9615 83.3307C48.6531 83.0805 46.75 82.5801 45.7588 82.1869C44.7676 81.7938 43.816 81.5436 43.6574 81.6508C42.7851 82.1154 36.6 83.3664 33.5867 83.6524C26.9654 84.26 18.5203 82.9375 12.9299 80.3998C10.8285 79.4348 10.1148 79.2918 7.65662 79.3275L4.80194 79.399L4.56405 77.7906C4.20721 75.6461 4.96053 70.8566 6.14998 67.6399C9.99588 57.2746 19.9476 46.4805 33.0713 38.4742C35.4898 37.0088 36.0449 36.7943 37.4722 36.9373C38.3842 37.0088 39.8115 37.402 40.6441 37.7594ZM162.087 38.6172C167.479 41.9412 169.858 43.7641 174.418 47.8744C181.356 54.165 186.431 61.099 188.85 67.5684C190 70.7137 190.793 75.8606 190.436 77.9336L190.158 79.399L187.343 79.3275C184.885 79.2918 184.171 79.4348 182.07 80.3998C174.339 83.9025 163.713 84.7246 154.792 82.5443C150.946 81.5793 150.629 81.5793 147.854 82.5086C146.664 82.9375 144.999 83.3664 144.206 83.4736C142.937 83.6524 142.501 83.974 141.391 85.5467C137.941 90.3719 133.065 94.9111 128.624 97.4131L127.435 98.0565L128.228 97.0199C130.448 93.9461 131.161 91.051 130.448 87.9414L130.012 86.0471L132.351 84.117C139.329 78.4697 139.408 68.9623 132.589 63.3508C131.003 62.0641 130.567 61.4565 130.924 61.242C132.153 60.3842 134.413 59.8838 136.95 59.9195C140.519 59.9553 143.215 61.0633 146.783 63.9941C149.677 66.4246 150.589 66.6033 152.611 65.2451C154.792 63.7797 157.488 63.1721 160.898 63.3508C165.933 63.601 170.334 65.8885 173.665 69.9274C174.775 71.2856 175.488 71.8574 176.123 71.8574C177.273 71.8574 178.224 71.2141 178.541 70.2133C178.898 69.141 176.083 65.4953 173.665 63.8154L171.761 62.493L171.96 58.8473C172.158 54.594 171.484 51.9133 169.62 49.4471C168.035 47.4098 166.924 46.7664 165.378 47.0523C164.506 47.2311 164.109 47.1596 164.109 46.8379C164.109 45.9801 162.444 44.3002 160.858 43.5854C159.074 42.7633 155.466 42.5488 151.898 43.0135L149.796 43.2994L150.431 41.9412C151.422 39.7967 153.127 38.1168 155.03 37.4734C157.885 36.4727 158.915 36.6514 162.087 38.6172ZM90.6012 41.7982C92.5439 42.6203 94.5263 44.6934 95.0021 46.4447C95.1607 47.1596 95.24 57.775 95.1211 70.0703L94.9228 92.4092L93.1386 93.2313C91.1166 94.1606 90.1254 94.0533 87.9051 92.7309C86.1605 91.7301 85.3279 91.6586 84.3367 92.4807C83.0679 93.5172 83.4248 94.9469 85.2883 96.1621C86.2002 96.7697 87.5879 97.4131 88.3808 97.6275C89.8875 98.0565 93.2179 97.9492 94.4471 97.4488C95.0418 97.1986 95.1211 97.3774 95.1211 98.6283C95.1211 102.381 90.7201 106.17 86.3984 106.17C82.4336 106.17 79.6185 104.025 78.3101 99.9865C77.7947 98.4139 77.4379 98.1279 74.9797 97.5918C70.6976 96.6268 67.6844 91.5514 69.3892 88.1916C69.7857 87.3695 70.0633 87.2981 73.473 87.1551C77.4379 87.0121 80.2529 86.0828 82.7508 84.1885C84.3764 82.9375 84.416 81.2934 82.7904 80.4713C81.8388 80.0066 81.6406 80.0424 79.4203 81.2576C73.1162 84.7604 66.5742 83.4736 63.4816 78.1481C62.6094 76.6469 62.4111 75.8606 62.4111 73.6445C62.4111 71.2856 62.5697 70.7137 63.6402 68.9981C64.3539 67.89 65.583 66.5676 66.4949 65.9957L68.1601 64.9592L70.1029 65.8885C72.3629 66.9965 74.8607 67.3897 77.4775 67.068C80.4908 66.6391 81.7596 64.8162 80.0943 63.315C79.4203 62.7074 78.9445 62.6359 76.5656 62.8147C71.7681 63.1721 69.3892 61.2777 69.3496 57.0959C69.3496 54.3795 71.5303 51.3414 74.147 50.4479C75.1383 50.1262 75.2969 50.2334 76.407 51.8061C78.1119 54.308 81.0459 55.559 85.3279 55.5947C88.698 55.5947 89.5703 55.1658 89.5703 53.4502C89.5703 52.1277 88.4205 51.5559 85.3279 51.4129C82.156 51.2699 80.6494 50.5908 79.6978 48.8037C78.9842 47.4813 79.6185 45.5154 81.3631 43.7283C83.7816 41.2621 87.3896 40.4758 90.6012 41.7982ZM112.527 41.7982C114.707 42.799 116.373 44.6934 116.928 46.7664C117.483 48.8752 117.681 49.0539 120.298 49.6615C122.835 50.2334 124.58 51.4486 125.611 53.3787C126.523 55.0943 126.721 57.7393 126.007 59.0975C125.611 59.9195 125.333 59.991 121.923 60.134C117.959 60.277 115.144 61.2063 112.646 63.1006C111.02 64.3516 110.98 65.9957 112.606 66.8178C113.558 67.2824 113.756 67.2467 115.976 66.0315C121.567 62.9219 127.752 63.7082 131.161 67.9258C134.333 71.8574 133.421 78.0766 129.258 81.1861C127.593 82.4014 127.316 82.4371 125.571 81.5436C122.28 79.7922 117.285 79.7207 115.5 81.3291C114.351 82.3656 114.311 83.0805 115.342 84.0098C116.016 84.6174 116.492 84.6889 118.989 84.5102C121.606 84.3315 122.042 84.3672 123.271 85.1535C127.712 87.8699 126.443 95.0541 121.21 96.8412C120.219 97.1629 120.06 97.1272 119.545 96.1979C118.831 94.9826 116.412 93.0168 114.985 92.5522C111.813 91.4441 107.571 91.4084 106.381 92.4807C105.747 93.0525 105.668 94.3035 106.223 95.0899C106.461 95.4115 107.65 95.6617 109.751 95.8404C113.32 96.1264 114.906 96.877 115.738 98.6641C116.373 100.058 115.5 102.31 113.677 103.99C109.95 107.421 103.685 106.706 101.029 102.488L100.077 100.987V78.1123V55.2731L101.425 54.451C103.249 53.343 105.43 53.3787 107.333 54.5225C109.038 55.559 110.029 55.6305 111.06 54.8084C112.646 53.5217 111.496 51.6273 108.284 50.1977C106.698 49.4828 102.892 49.3041 100.91 49.8402L99.7599 50.1619L100.037 48.6607C100.553 45.6584 102.971 42.799 105.985 41.6195C107.809 40.9047 110.782 41.0119 112.527 41.7982ZM41.8336 47.0523C42.5472 47.2311 42.6662 47.4098 42.4283 48.1961C42.1904 49.0182 41.9129 49.1611 40.3666 49.2684C37.4722 49.4828 35.2519 49.0539 35.2519 48.3033C35.2519 47.9459 35.6484 47.4813 36.1638 47.2668C37.1154 46.8379 40.4855 46.7307 41.8336 47.0523ZM158.876 47.4098C159.352 47.6957 159.748 48.1604 159.748 48.4463C159.748 49.0182 157.211 49.4471 154.633 49.2684C153.087 49.1611 152.81 49.0182 152.572 48.1961C152.254 47.0523 152.532 46.9451 155.783 46.8736C157.211 46.8379 158.321 47.0523 158.876 47.4098Z" fill="#e83c3c"/>
<path d="M54.64 114.462C54.2832 114.712 52.2215 116.893 50.0012 119.252C45.8777 123.684 45.2037 125.006 46.4328 126.114C46.9482 126.579 48.6928 126.686 49.3271 126.257C49.565 126.114 51.6664 123.969 54.0057 121.432C56.7414 118.501 58.248 116.571 58.248 116.035C58.248 114.426 55.9881 113.461 54.64 114.462Z" fill="#e83c3c"/>
<path d="M137.426 114.677C136.197 115.892 136.673 116.785 140.637 121.074C145.593 126.436 145.712 126.543 147.021 126.543C148.409 126.543 149.043 125.935 149.043 124.649C149.043 123.898 148.052 122.576 144.999 119.287C142.818 116.893 140.717 114.712 140.4 114.462C139.488 113.854 138.179 113.926 137.426 114.677Z" fill="#e83c3c"/>
<path d="M74.1471 124.649C73.2748 125.328 68.9531 135.371 68.9531 136.765C68.9531 138.159 71.0941 139.196 72.3629 138.409C72.6008 138.266 72.9973 137.837 73.2352 137.409C74.0281 136.086 77.6758 126.757 77.6758 126.114C77.6758 125.363 76.3277 124.041 75.5348 124.041C75.2176 124.041 74.6229 124.327 74.1471 124.649Z" fill="#e83c3c"/>
<path d="M118.117 124.756C117.681 125.149 117.324 125.757 117.324 126.078C117.324 127.115 121.606 137.337 122.36 138.052C123.628 139.303 126.047 138.409 126.047 136.658C126.047 136.265 125.056 133.548 123.866 130.618C121.249 124.22 120.06 123.005 118.117 124.756Z" fill="#e83c3c"/>
<path d="M95.9141 128.33C95.2004 128.973 95.1211 129.51 95.1211 135.3C95.1211 141.09 95.2004 141.626 95.9141 142.27C96.9053 143.163 98.0947 143.163 99.0859 142.27C99.7996 141.626 99.8789 141.09 99.8789 135.3C99.8789 129.51 99.7996 128.973 99.0859 128.33C98.6498 127.937 97.9361 127.615 97.5 127.615C97.0639 127.615 96.3502 127.937 95.9141 128.33Z" fill="#e83c3c"/>
</svg>
