<svg width="41" height="38" viewBox="0 0 41 38" fill="none" xmlns="http://www.w3.org/2000/svg">
<g clip-path="url(#clip0_154_257)">
<path d="M5.61353 0.868465C4.94888 1.0837 4.24419 1.94464 4.24419 2.52354C4.24419 2.63487 4.10005 2.65714 2.94692 2.68682C1.85786 2.71651 1.5856 2.7462 1.2813 2.87237C0.848877 3.05792 0.448486 3.40675 0.21626 3.81495L0.0400879 4.11924L0.0160645 18.1466C0.00805664 25.8579 0.0160645 32.2481 0.0400879 32.3446C0.0641113 32.4337 0.152197 32.5747 0.240283 32.6564C0.384424 32.7899 0.512549 32.8048 1.60161 32.8048H2.80278V33.7993C2.80278 34.3411 2.84282 34.8978 2.89087 35.0314C3.06704 35.4989 2.57856 35.4767 12.8526 35.4767H22.1897L22.8063 35.8181C23.9434 36.4564 25.1926 36.9165 26.61 37.1985C27.2907 37.3321 27.6911 37.3618 28.9883 37.3618C30.694 37.3692 31.2225 37.295 32.6719 36.872C38.6538 35.1056 42.1372 29.3091 40.6317 23.6165C39.8469 20.6478 37.7649 18.1243 34.794 16.5583C34.4016 16.3505 34.0493 16.1798 34.0172 16.1798C33.9852 16.1798 33.9452 13.4856 33.9372 10.1829C33.9131 3.52549 33.9452 3.96339 33.3606 3.35479C32.8641 2.84268 32.4317 2.72393 30.9663 2.68682L29.709 2.65714L29.661 2.45675C29.4368 1.45479 28.7321 0.838776 27.7391 0.757137C26.6661 0.675495 25.6651 1.39542 25.4969 2.36768L25.4409 2.67198H24.0155C22.5821 2.67198 22.5821 2.67198 22.5821 2.50128C22.5821 1.95948 22.0616 1.2544 21.429 0.942684C20.9645 0.712605 20.0356 0.712605 19.5711 0.942684C18.9385 1.2544 18.418 1.95948 18.418 2.50128C18.418 2.67198 18.418 2.67198 16.9846 2.67198H15.5592L15.5032 2.36768C15.335 1.39542 14.334 0.675495 13.261 0.757137C12.276 0.838776 11.5633 1.46222 11.3391 2.46417L11.2911 2.67198H9.90571H8.51235L8.42427 2.30088C8.12798 1.11338 6.85474 0.460262 5.61353 0.868465ZM6.84673 2.26377C7.03892 2.43448 7.04692 2.47159 7.04692 3.5626V4.67588H6.36626H5.6856V3.5626C5.6856 2.47159 5.6936 2.43448 5.88579 2.26377C6.15005 2.01143 6.58247 2.01143 6.84673 2.26377ZM13.9096 2.25636L14.1338 2.43448V3.54034V4.63877L13.4372 4.66104L12.7325 4.68331V3.57745C12.7325 2.5087 12.7405 2.46417 12.9327 2.2712C13.1889 2.01886 13.5973 2.01143 13.9096 2.25636ZM20.9885 2.2712C21.1727 2.44932 21.1807 2.51612 21.2047 3.57003L21.2288 4.67588H20.5H19.7713L19.7954 3.57003C19.8194 2.51612 19.8274 2.44932 20.0116 2.2712C20.1557 2.13018 20.2918 2.07823 20.5 2.07823C20.7083 2.07823 20.8444 2.13018 20.9885 2.2712ZM28.0674 2.2712C28.2596 2.46417 28.2676 2.5087 28.2676 3.57745V4.68331L27.5709 4.66104L26.8663 4.63877V3.54034V2.43448L27.0905 2.25636C27.4028 2.01143 27.8112 2.01886 28.0674 2.2712ZM4.24419 4.71299C4.24419 5.94503 4.34829 6.01182 6.36626 6.01182C8.38423 6.01182 8.48833 5.94503 8.48833 4.71299V4.00792H9.88169H11.275L11.3071 4.78721C11.3311 5.52198 11.3471 5.57393 11.5553 5.7669L11.7715 5.97471L13.1088 5.99698C14.7024 6.02667 15.0868 5.98956 15.343 5.75206C15.5192 5.58878 15.5352 5.51456 15.5352 4.78721V4.00792L16.9606 4.02276L18.378 4.04502L18.402 4.83175C18.418 5.56651 18.434 5.63331 18.6262 5.79659C18.8264 5.97471 18.8504 5.97471 20.5081 5.97471H22.1817L22.3899 5.77432C22.5901 5.58878 22.6141 5.52198 22.6461 4.79464L22.6862 4.00792H24.0715H25.4649V4.78721C25.4649 5.51456 25.4809 5.58878 25.6571 5.75206C25.9133 5.98956 26.2977 6.02667 27.8913 5.99698L29.2286 5.97471L29.4448 5.7669C29.661 5.57393 29.669 5.52198 29.693 4.77979L29.725 4.0005L30.9262 4.02276L32.1274 4.04502L32.3196 4.25284C32.5118 4.46065 32.5118 4.46807 32.5118 6.20479V7.94151H16.9766H1.44146V6.16768V4.39386L1.6897 4.20089C1.92993 4.01534 1.96196 4.00792 3.09106 4.00792H4.24419V4.71299ZM32.5118 12.4614V15.6454L31.9352 15.5044C27.667 14.4653 22.9584 15.8087 19.9956 18.911C18.1698 20.8259 17.1208 23.2083 17.0006 25.754C16.9125 27.7134 17.2889 29.3833 18.3059 31.4466C18.3459 31.5208 16.6323 31.5431 9.89771 31.5431H1.44146V20.4103V9.27745H16.9766H32.5118V12.4614ZM30.5499 16.5806C34.9461 17.2189 38.4375 20.2915 39.3745 24.3439C39.5747 25.2271 39.5747 27.3126 39.3745 28.2032C38.4856 32.0626 35.4666 34.9423 31.3827 35.8478C25.6811 37.1021 19.9155 33.7103 18.6182 28.3517C18.442 27.6095 18.37 25.7169 18.4981 24.9228C19.0026 21.672 21.1647 18.911 24.3358 17.4786C25.1846 17.0927 26.3698 16.7364 27.2506 16.5954C28.1235 16.4618 29.661 16.4544 30.5499 16.5806ZM19.6592 33.2649C19.8834 33.5099 20.1397 33.8142 20.2438 33.9329L20.428 34.1407H12.3401H4.24419V33.4728V32.8048H11.7555H19.2588L19.6592 33.2649Z" fill="#e83c3c"/>
<path d="M5.72565 11.9641C4.10006 12.4984 3.73971 14.4207 5.09303 15.3781C6.30221 16.2391 8.01588 15.675 8.41627 14.2871C8.61647 13.6043 8.25612 12.7137 7.60748 12.2758C7.05495 11.9047 6.30221 11.7785 5.72565 11.9641ZM6.84674 13.3965C7.27916 13.7898 6.97487 14.4726 6.36627 14.4726C5.97389 14.4726 5.68561 14.2055 5.68561 13.8418C5.68561 13.2777 6.42233 12.9957 6.84674 13.3965Z" fill="#e83c3c"/>
<path d="M12.7885 11.979C11.7555 12.3204 11.1629 13.2629 11.3711 14.2204C11.5313 14.9254 12.1479 15.5415 12.8846 15.7344C13.7895 15.9645 14.7665 15.5786 15.279 14.7844C15.4631 14.4801 15.4952 14.354 15.4952 13.8418C15.4952 13.1368 15.327 12.7805 14.8065 12.3723C14.2299 11.9122 13.4532 11.7637 12.7885 11.979ZM13.8856 13.3743C14.1899 13.634 14.1979 14.0125 13.8936 14.2872C13.4211 14.7325 12.6043 14.302 12.7645 13.6934C12.8926 13.2332 13.5012 13.0625 13.8856 13.3743Z" fill="#e83c3c"/>
<path d="M19.7232 12.0309C19.2268 12.209 18.6262 12.7805 18.498 13.1961C18.3699 13.6414 18.402 14.25 18.5861 14.6211C18.9225 15.3113 19.7232 15.8086 20.5 15.8086C21.5971 15.8086 22.574 14.9031 22.582 13.8789C22.582 13.2777 22.4619 12.966 22.0535 12.5504C21.4369 11.9195 20.5801 11.7266 19.7232 12.0309ZM20.9805 13.3965C21.3969 13.8047 21.1006 14.4727 20.5 14.4727C20.2918 14.4727 20.1557 14.4207 20.0195 14.2871C19.6031 13.8789 19.8994 13.2109 20.5 13.2109C20.7082 13.2109 20.8443 13.2629 20.9805 13.3965Z" fill="#e83c3c"/>
<path d="M5.4854 17.3227C3.8518 18.0278 3.86782 20.1801 5.50942 20.8703C5.98989 21.0707 6.78266 21.0633 7.24712 20.8555C7.7436 20.6328 8.20805 20.1356 8.3602 19.6606C8.52036 19.1707 8.52036 18.9778 8.3602 18.4879C8.11196 17.7012 7.28716 17.1446 6.36626 17.1446C6.02993 17.1446 5.76567 17.1965 5.4854 17.3227ZM6.87075 18.6735C7.13501 18.9481 7.11098 19.3118 6.79868 19.5493C6.45434 19.8164 6.06196 19.7793 5.78969 19.4528C5.62153 19.2524 5.66157 18.8219 5.86977 18.6512C6.21411 18.3543 6.56645 18.3618 6.87075 18.6735Z" fill="#e83c3c"/>
<path d="M12.5723 17.2931C11.9156 17.5752 11.4992 18.0724 11.3631 18.7256C11.1549 19.772 11.9156 20.8111 13.0367 20.9892C14.342 21.197 15.4311 20.4029 15.5191 19.1709C15.5432 18.7998 15.5191 18.6439 15.359 18.3174C14.9826 17.5677 14.398 17.2041 13.4932 17.167C13.0527 17.1447 12.8525 17.1744 12.5723 17.2931ZM13.9176 18.6513C14.0297 18.7478 14.0937 18.8888 14.0937 19.0447C14.0937 19.3861 14.0217 19.5123 13.7574 19.6385C13.0928 19.9576 12.4361 19.2228 12.8926 18.681C13.1568 18.3767 13.5732 18.3619 13.9176 18.6513Z" fill="#e83c3c"/>
<path d="M5.82178 22.4438C4.32432 22.8297 3.77178 24.507 4.77276 25.598C5.2212 26.0805 5.60557 26.2363 6.36632 26.2363C6.91885 26.2363 7.05499 26.2066 7.38331 26.0359C8.62452 25.3531 8.84073 23.8688 7.83175 22.9336C7.32725 22.466 6.51046 22.2656 5.82178 22.4438ZM6.67061 23.7648C6.93487 23.891 7.03897 24.0543 7.04698 24.3289C7.04698 24.893 6.27823 25.1676 5.86983 24.7445C5.35733 24.225 6.00596 23.4383 6.67061 23.7648Z" fill="#e83c3c"/>
<path d="M12.9487 22.4217C12.4922 22.5256 12.236 22.6666 11.8756 23.0302C11.2831 23.624 11.1709 24.4404 11.5633 25.19C12.3481 26.6818 14.6223 26.615 15.367 25.0861C15.6713 24.4627 15.5352 23.6092 15.0547 23.0674C14.6063 22.5627 13.6293 22.2658 12.9487 22.4217ZM13.8936 23.8615C14.1819 24.1213 14.1899 24.5072 13.9096 24.767C13.6293 25.0267 13.2129 25.0193 12.9327 24.7521C12.6524 24.4998 12.6684 24.1732 12.9647 23.8912C13.269 23.6166 13.6213 23.6017 13.8936 23.8615Z" fill="#e83c3c"/>
<path d="M28.2276 17.8273C23.8553 18.1168 20.3158 21.3527 19.8594 25.457C19.499 28.7226 21.2047 31.8695 24.2557 33.5765C27.1145 35.1722 30.7901 35.1945 33.6328 33.6285C36.6918 31.9437 38.4375 28.7894 38.1092 25.5312C37.917 23.5719 37.0842 21.8648 35.6348 20.4547C33.6729 18.5324 31.1184 17.6269 28.2276 17.8273ZM28.2676 19.8164C28.2676 20.2765 28.3076 20.5586 28.3877 20.707C28.644 21.1672 29.4367 21.1004 29.6289 20.6105C29.669 20.4918 29.709 20.1058 29.709 19.757V19.1262L30.1494 19.1781C30.742 19.2375 31.791 19.5566 32.4717 19.8683C33.2965 20.2469 33.9211 20.6922 34.6418 21.3972C35.859 22.5922 36.5797 24.084 36.7319 25.7242L36.7799 26.2586L35.9311 26.2883C35.1703 26.3105 35.0662 26.3254 34.8821 26.4887C34.7299 26.6222 34.6739 26.741 34.6739 26.934C34.6819 27.4461 34.9862 27.6094 35.9631 27.6094C36.7158 27.6094 36.7078 27.5722 36.3315 28.5742C35.3545 31.2015 33.0643 32.9605 30.0133 33.4281L29.725 33.4801L29.693 32.6859C29.669 31.9289 29.661 31.8918 29.4447 31.7211C29.1565 31.491 28.8201 31.491 28.5319 31.7211C28.3156 31.8918 28.3076 31.9289 28.2836 32.6859L28.2516 33.4726L27.9233 33.4281C25.3207 33.057 23.0865 31.5355 21.9735 29.3683C21.7252 28.8785 21.3809 27.9211 21.3809 27.7058C21.3809 27.6539 21.6371 27.6168 22.1336 27.5945C22.8063 27.5722 22.9104 27.55 23.0946 27.3941C23.3828 27.1418 23.3828 26.741 23.0946 26.4887C22.9104 26.3254 22.8063 26.3105 22.0455 26.2883L21.1967 26.2586L21.2528 25.6426C21.3008 24.982 21.5731 24.0172 21.8934 23.3566C22.6461 21.7683 24.2477 20.3359 26.0414 19.6383C26.65 19.4008 27.611 19.1633 28.0113 19.1558L28.2676 19.1484V19.8164Z" fill="#e83c3c"/>
<path d="M32.784 23.1712C32.6559 23.2602 31.807 23.9134 30.8941 24.6184C29.9813 25.3235 29.2045 25.9024 29.1645 25.9024C29.1244 25.9024 28.9002 25.6352 28.668 25.3087C28.1635 24.6036 27.8672 24.3438 27.5389 24.3438C27.2025 24.3438 26.9062 24.6333 26.9062 24.9673C26.9062 25.1751 27.0744 25.4571 27.7311 26.3626C28.6359 27.6095 28.7881 27.7282 29.2605 27.513C29.717 27.3052 33.7449 24.136 33.857 23.8985C34.0412 23.4755 33.6809 23.0079 33.1604 23.0079C33.0803 23.0079 32.9121 23.0821 32.784 23.1712Z" fill="#e83c3c"/>
</g>
<defs>
<clipPath id="clip0_154_257">
<rect width="41" height="38" fill="white"/>
</clipPath>
</defs>
</svg>
