<svg width="38" height="36" viewBox="0 0 38 36" fill="none" xmlns="http://www.w3.org/2000/svg">
<path d="M15.9746 1.935C12.198 2.28815 9.17804 3.46756 6.40132 5.67979C2.92873 8.43175 0.712759 12.3431 0.0912061 16.8142C-0.030402 17.6471 -0.030402 20.2458 0.0912061 21.0788C0.631687 24.9568 2.30042 28.2951 5.0366 31.0005C9.96174 35.8514 17.2515 37.3173 23.744 34.7586C26.9531 33.4925 29.7906 31.187 31.7566 28.2352C33.6686 25.3766 34.6685 21.8317 34.5333 18.3801C34.3915 14.7819 33.27 11.6635 31 8.56501L30.8919 8.41842H31.4729C32.1282 8.41842 32.3849 8.3318 32.5133 8.05194C32.6822 7.68545 32.5876 7.35229 32.2566 7.1857C32.1012 7.10574 31.7701 7.08575 30.6081 7.08575H29.1488L28.9326 7.27899L28.7097 7.47223V9.00479C28.7097 10.5374 28.7097 10.5374 28.8718 10.7106C29.0677 10.9172 29.4123 10.9905 29.6285 10.8839C29.9393 10.7239 30.0271 10.5507 30.0271 10.0509L30.0338 9.5845L30.2298 9.81772C30.5135 10.1509 31.3986 11.6235 31.6891 12.2498C32.3376 13.6425 32.8106 15.2017 33.0403 16.7143C33.1348 17.3006 33.1619 17.9003 33.1619 18.9465C33.1619 20.5723 33.0605 21.4186 32.6957 22.8445C31.9931 25.5632 30.5676 28.0086 28.507 30.0409C26.4464 32.0799 23.9737 33.4792 21.2105 34.1722C19.7715 34.532 18.9067 34.632 17.2582 34.632C15.6571 34.632 14.8598 34.5454 13.4411 34.2055C10.5968 33.5192 7.80657 31.9333 5.80679 29.8677C3.44894 27.4356 2.00316 24.537 1.47619 21.212C1.30729 20.1392 1.30729 17.7538 1.47619 16.681C1.61131 15.7947 1.96262 14.4088 2.22611 13.6825C4.05698 8.67829 8.37407 4.86686 13.5694 3.65414C15.1301 3.28765 16.8123 3.17438 18.9337 3.28765L19.5688 3.32097L19.7647 3.10108C20.0485 2.7879 20.0012 2.34812 19.6499 2.12157C19.3796 1.94832 17.0893 1.82838 15.9746 1.935Z" fill="#C22727"/>
<path d="M21.501 2.7481C21.3186 2.90802 21.2781 2.98798 21.2781 3.20787C21.2781 3.54103 21.501 3.8009 21.8253 3.86087C22.4536 3.97415 22.859 3.2012 22.3996 2.7481C22.1293 2.48156 21.7983 2.48156 21.501 2.7481Z" fill="#C22727"/>
<path d="M15.7584 6.31268C13.9816 6.53923 12.2453 7.10561 10.84 7.91854C10.2252 8.2717 10.0969 8.41829 10.0969 8.73813C10.0969 9.03132 10.1915 9.19124 10.4347 9.31784C10.7049 9.45777 10.8265 9.44444 11.1778 9.25121C12.5831 8.47826 13.7519 8.02515 15.0963 7.74529C16.0489 7.53873 18.3054 7.51874 19.2513 7.70531C22.3455 8.31168 24.8993 9.9242 26.6761 12.3763C28.203 14.4886 28.9867 17.2805 28.757 19.8193C28.6692 20.7654 28.4192 21.9648 28.1557 22.7111C27.8855 23.4774 27.149 24.8634 26.6626 25.5431C26.0816 26.356 24.7642 27.6487 23.9535 28.2151C21.197 30.1274 17.7379 30.7804 14.5221 30.0008C8.47544 28.5282 4.72586 22.6512 5.97572 16.6075C6.22569 15.4081 6.7459 14.0821 7.3607 13.0893C7.65796 12.6029 7.66472 12.363 7.40123 12.0698C7.23909 11.8899 7.15802 11.8499 6.92831 11.8566C6.577 11.8699 6.46215 11.9698 6.08381 12.6095C4.7799 14.8018 4.16511 17.607 4.42859 20.1524C4.73937 23.2309 6.07706 25.9495 8.32005 28.0818C10.2658 29.9209 12.4209 31.0003 15.1369 31.4801C16.3124 31.6867 18.1703 31.6867 19.3864 31.4801C22.2036 30.9937 24.5683 29.7609 26.5207 27.7619C28.3922 25.8429 29.4934 23.684 29.9663 21.0386C30.1825 19.8259 30.1825 18.0668 29.9663 16.8541C29.4934 14.2087 28.3922 12.0498 26.5207 10.1308C24.5885 8.15176 22.1564 6.87906 19.4202 6.41263C18.4068 6.23938 16.7178 6.19274 15.7584 6.31268Z" fill="#C22727"/>
<path d="M16.8799 8.93817C16.6367 9.12475 16.5826 9.31798 16.5826 9.91768C16.5826 10.4907 16.5894 10.5041 16.8123 10.7239C17.0691 10.9772 17.2853 11.0105 17.596 10.8505C17.8866 10.704 17.9338 10.564 17.9338 9.85105C17.9338 9.23136 17.9271 9.19804 17.7379 9.01147C17.5015 8.78492 17.1096 8.7516 16.8799 8.93817Z" fill="#C22727"/>
<path d="M8.16465 9.97763C7.91468 10.2242 7.87414 10.4441 8.02953 10.7439C8.13087 10.9305 8.3876 11.0837 8.61055 11.0837C8.9551 11.0837 9.28615 10.7572 9.28615 10.4241C9.28615 10.1975 9.13076 9.94431 8.94159 9.84436C8.63757 9.6911 8.41462 9.73108 8.16465 9.97763Z" fill="#C22727"/>
<path d="M23.1697 12.2565C23.0616 12.3099 21.9266 13.376 20.6632 14.6287L18.3527 16.9009L18.0284 16.7876C17.6163 16.6477 16.9001 16.6477 16.488 16.7876L16.1637 16.9009L15.0017 15.7615C14.3666 15.1418 13.7789 14.5954 13.6978 14.5554C13.1235 14.2689 12.5155 14.8686 12.806 15.435C12.8465 15.5149 13.4005 16.0946 14.0288 16.721L15.1841 17.8671L15.0693 18.1869C14.7855 19.0132 15.0017 19.9327 15.63 20.5524C16.2853 21.1987 17.2312 21.392 18.1162 21.0655C18.6499 20.8722 19.2107 20.3192 19.4066 19.7928C19.589 19.3263 19.6025 18.64 19.4472 18.1869L19.3323 17.8671L21.6969 15.5282C23.2643 13.9757 24.0818 13.1228 24.1088 13.0028C24.1764 12.7163 23.994 12.3632 23.717 12.2499C23.4264 12.1299 23.4197 12.1299 23.1697 12.2565ZM17.7784 18.1469C18.3662 18.4934 18.3392 19.4663 17.7379 19.7794C17.0758 20.1126 16.3124 19.6728 16.3124 18.9599C16.3124 18.3935 16.6907 18.0137 17.2582 18.0137C17.4406 18.0137 17.6501 18.067 17.7784 18.1469Z" fill="#C22727"/>
<path d="M7.18505 18.4732C6.92832 18.7331 6.91481 19.1129 7.15127 19.3661C7.36071 19.5927 7.54312 19.6326 8.21196 19.5993C8.73218 19.5793 8.76596 19.566 8.95512 19.3594C9.17132 19.1196 9.19834 18.8997 9.04971 18.6132C8.90108 18.3266 8.7592 18.28 8.03631 18.28C7.408 18.28 7.37422 18.2867 7.18505 18.4732Z" fill="#C22727"/>
<path d="M25.5884 18.5133C25.3722 18.7266 25.3519 18.7732 25.3857 19.0331C25.4127 19.2197 25.4803 19.3596 25.6019 19.4595C25.7573 19.5995 25.8519 19.6128 26.4532 19.6128C27.1152 19.6128 27.1355 19.6061 27.3314 19.4196C27.6625 19.0931 27.5679 18.5666 27.1423 18.3534C27.0612 18.3134 26.7301 18.2801 26.4126 18.2801C25.8316 18.2801 25.8248 18.2801 25.5884 18.5133Z" fill="#C22727"/>
<path d="M16.9475 27.0091C16.657 27.1224 16.5826 27.329 16.5826 28.0286C16.5826 28.6683 16.5894 28.6883 16.7786 28.8815C17.1096 29.208 17.6433 29.1148 17.8595 28.695C17.9001 28.615 17.9338 28.2885 17.9338 27.9753C17.9338 27.4023 17.9271 27.389 17.7041 27.1691C17.4677 26.9359 17.2447 26.8892 16.9475 27.0091Z" fill="#C22727"/>
</svg>
