<svg width="38" height="32" viewBox="0 0 38 32" fill="none" xmlns="http://www.w3.org/2000/svg">
<path d="M4.83173 0.10664C4.47547 0.304688 4.46063 0.434179 4.45321 2.56699V4.57031H2.52352C0.423131 4.57031 0.25985 4.60078 0.089147 4.98926C0.0223502 5.1416 8.45497e-05 7.95234 8.45497e-05 16.7654C8.45497e-05 29.1662 -0.0147592 28.6559 0.348913 28.8387C0.423131 28.8768 3.68876 28.9225 7.60751 28.9453C14.7028 28.9834 14.7325 28.991 15.3263 29.1586C16.4098 29.4709 17.4341 30.0422 18.2356 30.7811C18.8591 31.3676 19.1411 31.3676 19.7645 30.7811C20.5735 30.0422 21.6052 29.4633 22.6739 29.1586C23.2009 29.0139 23.5052 28.991 25.3829 28.9682C27.7208 28.9301 27.7579 28.9225 27.9509 28.4426C28.0399 28.2217 28.0399 28.1455 27.9509 27.9246C27.7505 27.4295 27.7059 27.4219 25.6649 27.4219C24.663 27.4219 23.5794 27.46 23.2602 27.5057C22.4809 27.6123 21.5384 27.9094 20.8036 28.2598C20.4622 28.4197 20.1876 28.534 20.1876 28.5035C20.1876 28.473 20.2915 28.2674 20.4177 28.0389C20.8704 27.2238 21.8352 26.4316 22.8001 26.0812C22.9782 26.0203 25.3235 25.609 28.0177 25.1672C30.7118 24.733 33.0126 24.3369 33.1239 24.2836C33.5618 24.1084 33.547 24.3674 33.547 17.3139V10.8545L35.0313 9.33105L36.5157 7.80762V17.6186V27.4219H34.9348C33.1833 27.4219 33.1016 27.4371 32.9087 27.9246C32.8196 28.1455 32.8196 28.2217 32.9087 28.4426C33.1091 28.9377 33.1313 28.9453 35.3876 28.9453C37.5845 28.9453 37.7403 28.9225 37.911 28.5264C37.9778 28.374 38.0001 25.51 38.0001 16.4988C38.0001 4.91309 38.0001 4.6541 37.8516 4.17422C37.3544 2.51367 35.6251 1.62246 34.0294 2.20137C33.7919 2.28516 33.5766 2.36133 33.5692 2.36133C33.5544 2.36133 33.547 1.96523 33.547 1.48535C33.547 0.487499 33.4653 0.228516 33.1016 0.0761719C32.9013 -0.00761795 32.3075 0.0685539 27.9063 0.792187C24.8188 1.29492 22.7184 1.67578 22.3622 1.79004C21.2044 2.16328 19.9798 3.10019 19.3341 4.10566C19.1708 4.35703 19.0223 4.56269 19.0001 4.56269C18.9778 4.56269 18.8294 4.35703 18.6661 4.10566C18.013 3.10019 16.7958 2.16328 15.6231 1.78242C15.2446 1.66055 13.2778 1.30254 10.1458 0.792187C7.45907 0.358007 5.20282 0 5.13602 0C5.06922 0.00761604 4.92821 0.0533199 4.83173 0.10664ZM10.4798 2.3918C12.8993 2.78789 15.022 3.16875 15.2001 3.22969C16.3134 3.64101 17.2411 4.47129 17.7384 5.49961C18.2802 6.63457 18.2579 6.09375 18.2579 16.7959V26.3859L17.9462 26.0736C17.1743 25.3195 16.4173 24.8701 15.4227 24.5807C15.0813 24.4816 12.8102 24.0779 10.3759 23.6818L5.93758 22.9658V12.317C5.93758 5.75859 5.96727 1.67578 6.00438 1.67578C6.04891 1.67578 8.06024 1.9957 10.4798 2.3918ZM32.0626 2.71934V3.77051L28.4778 7.46484L24.8856 11.1592L23.5423 14.2137C22.2063 17.2377 22.095 17.5652 22.2657 17.908C22.3548 18.068 22.711 18.2812 22.904 18.2812C23.0227 18.2812 24.9598 17.3977 27.7579 16.0723L29.0567 15.4629L30.5634 13.9166L32.0626 12.3779V17.6719V22.9658L27.513 23.7047C24.6481 24.1693 22.7407 24.5197 22.3696 24.634C21.6348 24.8777 20.811 25.3729 20.2098 25.9365L19.7423 26.3707V16.7807C19.7423 6.07851 19.72 6.64219 20.2692 5.49199C20.8259 4.32656 22.0059 3.37441 23.2083 3.11543C23.7427 3.00879 31.6618 1.69863 31.8993 1.6834C32.0626 1.67578 32.0626 1.6834 32.0626 2.71934ZM35.6993 3.69434C36.1595 3.93809 36.5157 4.55508 36.5157 5.08066C36.5083 5.53769 36.2782 5.93379 35.6325 6.58887L35.0313 7.19824L33.9923 6.13184L32.9532 5.06543L33.5692 4.4332C33.9032 4.08281 34.2446 3.76289 34.3263 3.71719C34.7122 3.49629 35.3059 3.48867 35.6993 3.69434ZM4.45321 14.9297C4.45321 24.5883 4.43094 24.1008 4.87626 24.2836C4.98758 24.3293 7.28836 24.733 9.98251 25.1672C12.6766 25.609 15.022 26.0203 15.2001 26.0812C16.1649 26.4316 17.1298 27.2238 17.5825 28.0389C17.7087 28.2674 17.8126 28.473 17.8126 28.5111C17.8126 28.5416 17.6196 28.4654 17.3895 28.3436C16.8626 28.077 16.0016 27.757 15.3634 27.5971C14.9403 27.4828 14.0348 27.4676 8.18641 27.4447L1.48446 27.4143V16.7578V6.09375H2.96883H4.45321V14.9297ZM32.9755 7.22109L33.9923 8.26465L31.3352 10.9916L28.6856 13.7109L27.6466 12.6445L26.6075 11.5781L29.2423 8.87402C30.6895 7.38867 31.8919 6.16992 31.9141 6.16992C31.9364 6.16992 32.4114 6.64219 32.9755 7.22109ZM25.9247 15.2496C25.1306 15.6229 24.47 15.9199 24.4552 15.9047C24.4329 15.8818 24.7001 15.2725 25.5016 13.4824L25.7614 12.9187L26.5704 13.749L27.3794 14.5793L25.9247 15.2496Z" fill="white"/>
<path d="M30.0661 26.3859C29.4204 26.7516 29.695 27.8027 30.4298 27.8027C30.8083 27.8027 31.172 27.4295 31.172 27.0486C31.172 26.4773 30.556 26.1041 30.0661 26.3859Z" fill="white"/>
</svg>
