<svg width="91" height="70" viewBox="0 0 91 70" fill="none" xmlns="http://www.w3.org/2000/svg">
<path d="M83.4167 41.8626C83.4167 50.9591 73.7161 58.3334 61.7499 58.3334H41.7083M54.528 26.3294C56.7867 25.7224 59.2175 25.3922 61.7499 25.3922C64.2323 25.3922 66.6169 25.7095 68.8381 26.2937M68.8381 26.2937C67.6323 18.065 58.452 11.6667 47.3056 11.6667C35.3394 11.6667 25.6389 19.0408 25.6389 28.1373C25.6389 30.1493 26.1134 32.0769 26.9821 33.8593M68.8381 26.2937C71.4278 26.9749 73.7946 28.0189 75.8333 29.3458M26.9821 33.8593C25.9634 33.7071 24.9106 33.6274 23.8333 33.6274C14.8587 33.6274 7.58333 39.158 7.58333 45.9804C7.58333 52.8028 14.8587 58.3334 23.8333 58.3334H26.5417M26.9821 33.8593C29.1222 34.1787 31.1117 34.8174 32.8611 35.7076" stroke="#e83c3c" stroke-width="8" stroke-linecap="round"/>
</svg>
