<svg width="92" height="85" viewBox="0 0 92 85" fill="none" xmlns="http://www.w3.org/2000/svg">
<path fill-rule="evenodd" clip-rule="evenodd" d="M46 4.42709C47.5878 4.42709 48.875 5.61635 48.875 7.08334V10.625C48.875 12.092 47.5878 13.2813 46 13.2813C44.4122 13.2813 43.125 12.092 43.125 10.625V7.08334C43.125 5.61635 44.4122 4.42709 46 4.42709ZM16.8613 15.5784C17.9841 14.5411 19.8045 14.5411 20.9272 15.5784L22.4331 16.9697C23.5558 18.007 23.5558 19.6889 22.4331 20.7262C21.3103 21.7636 19.49 21.7636 18.3672 20.7262L16.8613 19.3349C15.7386 18.2976 15.7386 16.6157 16.8613 15.5784ZM75.1376 15.5793C76.2603 16.6167 76.2603 18.2985 75.1376 19.3358L73.6318 20.7272C72.509 21.7645 70.6886 21.7645 69.5658 20.7272C68.443 19.6898 68.443 18.008 69.5658 16.9706L71.0719 15.5793C72.1947 14.542 74.0148 14.542 75.1376 15.5793ZM46 23.9063C34.8853 23.9063 25.875 32.2309 25.875 42.5C25.875 52.7691 34.8853 61.0938 46 61.0938C57.1148 61.0938 66.125 52.7691 66.125 42.5C66.125 32.2309 57.1148 23.9063 46 23.9063ZM20.125 42.5C20.125 29.297 31.7096 18.5938 46 18.5938C60.2903 18.5938 71.875 29.297 71.875 42.5C71.875 55.703 60.2903 66.4063 46 66.4063C31.7096 66.4063 20.125 55.703 20.125 42.5ZM4.79167 42.5C4.79167 41.0331 6.07887 39.8438 7.66667 39.8438H11.5C13.0878 39.8438 14.375 41.0331 14.375 42.5C14.375 43.967 13.0878 45.1563 11.5 45.1563H7.66667C6.07887 45.1563 4.79167 43.967 4.79167 42.5ZM77.625 42.5C77.625 41.0331 78.9122 39.8438 80.5 39.8438H84.3333C85.9211 39.8438 87.2083 41.0331 87.2083 42.5C87.2083 43.967 85.9211 45.1563 84.3333 45.1563H80.5C78.9122 45.1563 77.625 43.967 77.625 42.5ZM69.5658 64.2728C70.6886 63.2354 72.509 63.2354 73.6318 64.2728L75.1376 65.6643C76.2603 66.7016 76.2603 68.3832 75.1376 69.4206C74.0148 70.4579 72.1947 70.4579 71.0719 69.4206L69.5658 68.0294C68.443 66.992 68.443 65.3101 69.5658 64.2728ZM22.4331 64.2738C23.5558 65.3112 23.5558 66.9931 22.4331 68.0305L20.9272 69.4216C19.8045 70.459 17.9841 70.459 16.8613 69.4216C15.7386 68.3843 15.7386 66.7023 16.8613 65.665L18.3672 64.2738C19.49 63.2365 21.3103 63.2365 22.4331 64.2738ZM46 71.7188C47.5878 71.7188 48.875 72.9081 48.875 74.375V77.9167C48.875 79.3836 47.5878 80.5729 46 80.5729C44.4122 80.5729 43.125 79.3836 43.125 77.9167V74.375C43.125 72.9081 44.4122 71.7188 46 71.7188Z" fill="#e83c3c"/>
</svg>
