<svg width="161" height="176" viewBox="0 0 161 176" fill="none" xmlns="http://www.w3.org/2000/svg">
<g opacity="0.8">
<path d="M72.0481 0.741943C46.3673 4.80646 27.3831 21.9032 19.9064 47.7097C19.1262 50.3548 18.7362 55.3226 18.4761 65.5161L18.086 79.6452L14.5102 80.3548C10.5443 81.1936 10.0892 81.3871 6.57843 84.1613C-0.898248 90.0968 -1.15831 103.968 6.12333 110.032C8.6589 112.226 12.5598 114.032 15.8755 114.613L18.216 115.065L18.6061 119.71C19.7114 132.677 26.5379 146.742 36.5502 156.806C60.5405 180.935 100.524 181.258 124.385 157.516C129.326 152.677 135.112 144.355 137.778 138.355C139.858 133.839 142.589 123.387 142.589 120.161C142.589 115.774 143.109 115.129 146.36 114.613C160.013 112.613 165.669 95.4516 156.047 85.3226C153.511 82.6774 148.245 80.0968 145.385 80.0968H143.239V69.5807C143.239 53.7097 141.289 43.9678 136.217 33.9678C131.927 25.4516 123.865 16.3549 115.998 11.129C110.147 7.12904 102.085 3.58066 95.7134 2.03227C89.342 0.548401 77.6394 -0.096756 72.0481 0.741943ZM94.2181 8.48389C104.295 11.0645 113.397 16.2903 120.549 23.7097C128.026 31.5161 132.252 39.129 134.982 49.5807C136.348 55.129 136.413 56.1613 136.413 88.1613C136.413 120.419 136.413 121.194 134.917 126.419C133.097 132.935 131.146 137.452 127.961 142.419C117.558 158.613 99.7443 168.484 80.9551 168.484C55.2743 168.484 33.6245 151.839 26.4079 126.548C25.3676 122.677 25.2376 119.387 25.2376 87.5161C25.2376 53.0645 25.2376 52.6129 26.7329 47.5807C32.9093 26.4839 51.1134 10.5484 73.0233 7.25807C78.7446 6.41937 88.0417 6.9355 94.2181 8.48389ZM18.4111 97.1936V107.839H16.5257C14.3802 107.839 10.9994 105.71 9.114 103.194C7.3586 100.871 6.96852 95.8387 8.20379 92.871C9.43907 90.0323 13.9901 86.5484 16.5907 86.5484H18.4111V97.1936ZM149.155 88.0323C152.601 90.2903 154.292 93.3226 154.292 97C154.292 102.806 150.846 107.065 145.385 108.097L143.239 108.419V97.5161V86.5484H145.124C146.1 86.5484 147.92 87.1936 149.155 88.0323Z" fill="#e83c3c"/>
<path d="M56.7047 25.4516C44.612 29.5161 36.8102 40.7419 36.4201 54.5484C36.3551 58.2258 36.4201 58.4194 38.8257 60.4839C40.191 61.6452 42.6615 63.0645 44.2869 63.6452C52.6088 66.4194 73.8685 68.0323 91.6175 67.129C108.911 66.2903 119.314 63.9677 123.215 60.0323C124.775 58.4839 125.035 57.7742 125.035 54.4839C125.035 46.4194 121.849 38.8065 115.868 32.6129C107.091 23.6452 95.8435 21.6452 84.5309 27.1936L80.435 29.1936L77.3793 27.4516C70.6828 23.7742 63.6612 23.0645 56.7047 25.4516ZM71.0729 31.6452C72.8283 32.2903 75.4939 33.7742 77.0542 34.871C80.305 37.2581 81.4752 37.3226 83.8808 35.3226C87.9767 31.9032 91.2274 30.7419 96.7537 30.7419C103.125 30.7419 106.896 32.4839 111.577 37.4516C114.828 40.9355 116.193 43.3871 117.623 48.8065C119.509 55.6452 118.859 56.4839 110.407 58.3548C101.89 60.2903 91.7475 60.9355 75.7539 60.5484C59.5653 60.2258 51.1784 59.1936 45.9122 56.871C43.2467 55.7097 43.1166 55.5161 43.1166 52.871C43.1816 49.1936 45.002 44.0323 47.6676 40.2258C53.3889 31.9677 62.751 28.4839 71.0729 31.6452Z" fill="#e83c3c"/>
<path d="M45.1971 87.129C44.0919 87.7742 44.0268 91.4516 45.0671 94.5484C45.8472 97 50.0082 101.065 52.7388 102.097C53.714 102.484 55.9895 102.742 57.8099 102.742C63.7913 102.742 68.9924 99 70.4228 93.5807C71.7881 88.5484 70.4228 85.9032 66.977 86.8065C65.5467 87.129 65.1566 87.7097 64.8315 89.8387C64.3114 92.7419 61.5808 95.9677 59.1752 96.3548C57.2248 96.6774 54.2341 95.8387 52.8038 94.5484C52.0886 93.9032 51.2435 92.2258 50.8534 90.8065C50.4633 89.3226 49.8131 87.7742 49.4881 87.3226C48.7079 86.4194 46.4324 86.2903 45.1971 87.129Z" fill="#e83c3c"/>
<path d="M90.5122 87.9032C88.8869 91 91.7475 97.6452 95.9735 100.548C98.249 102.161 99.2242 102.355 103.58 102.355C107.936 102.355 108.911 102.161 111.317 100.548C113.202 99.2581 114.568 97.7097 115.673 95.3871C118.338 89.7097 117.493 86.2258 113.527 86.6774C112.162 86.8065 111.577 87.3226 111.187 88.8065C109.496 94.4839 107.351 96.5484 103.19 96.4194C100.199 96.3549 97.3388 93.7097 96.7536 90.5484C96.1685 87.4516 95.3883 86.5484 93.1128 86.5484C91.8775 86.5484 91.0324 87 90.5122 87.9032Z" fill="#e83c3c"/>
<path d="M78.3545 95.7097C77.2493 96.8065 77.2493 123.387 78.3545 124.484C79.3297 125.452 81.6703 125.452 82.6455 124.484C83.2306 123.903 83.4257 119.839 83.4257 110.097C83.4257 95.8388 83.2306 94.9355 80.5 94.9355C79.7198 94.9355 78.8096 95.2581 78.3545 95.7097Z" fill="#e83c3c"/>
<path d="M68.2123 132.097C64.7015 135.581 70.2277 145.387 76.7292 147.129C85.2461 149.516 92.6577 144.677 94.0881 135.903C94.4781 133.71 94.2831 133.065 93.2429 132.097C91.0974 130.161 88.8219 131.194 87.9767 134.419C86.6764 139.065 84.2709 141.387 80.7601 141.387C77.4443 141.387 73.6735 137.71 73.6735 134.419C73.6735 133 71.723 131.065 70.2277 131.065C69.7076 131.065 68.7324 131.516 68.2123 132.097Z" fill="#e83c3c"/>
</g>
</svg>
