<svg width="106" height="143" viewBox="0 0 106 143" fill="none" xmlns="http://www.w3.org/2000/svg">
<path d="M87.6394 142.56H47.3201C46.4009 142.561 45.511 142.237 44.807 141.646C44.1029 141.056 43.63 140.235 43.4714 139.33C42.0476 131.187 40.2825 125.311 38.8656 123.994C36.4751 121.769 30.8578 122.36 26.3471 122.837C24.8271 122.998 23.3896 123.149 22.109 123.201C11.0349 123.763 10.3877 116.633 9.75431 109.731C9.59137 107.047 9.17019 104.385 8.49662 101.782C8.15193 100.527 7.55511 99.355 6.74257 98.3379C5.93002 97.3207 4.91879 96.4797 3.77055 95.8662C1.92296 94.6486 -0.172043 93.2684 0.0112271 89.7737C0.0994257 88.083 1.43042 86.6088 3.11765 84.7429C5.71665 81.8656 9.27552 77.9264 9.29041 71.6952C9.29728 70.0802 9.13005 67.9222 8.9674 65.8363C8.83682 64.1525 8.71311 62.5615 8.67073 61.195C8.63866 60.1538 8.6524 59.0989 8.70853 58.0588C8.72934 57.6791 8.90015 57.3231 9.18337 57.0694C9.4666 56.8156 9.83905 56.6847 10.2188 56.7055C10.5985 56.7263 10.9544 56.8971 11.2082 57.1803C11.462 57.4635 11.5929 57.836 11.5721 58.2157C11.5206 59.1756 11.508 60.1481 11.5366 61.1057C11.5778 62.4057 11.6993 63.9693 11.8276 65.6141C11.9936 67.7584 12.1655 69.9748 12.1586 71.7044C12.1425 79.0352 7.99149 83.6238 5.24587 86.6615C4.10044 87.9329 2.91033 89.2479 2.87482 89.9237C2.78204 91.7083 3.52084 92.2684 5.35125 93.4746C6.78005 94.2749 8.03656 95.3497 9.04854 96.6373C10.0605 97.9248 10.808 99.3997 11.248 100.977C11.9728 103.758 12.427 106.602 12.6042 109.469C13.2513 116.517 13.6351 120.769 21.9761 120.341C23.1846 120.293 24.5774 120.146 26.0504 119.99C31.4065 119.426 37.475 118.788 40.8197 121.897C43.3007 124.204 45.1724 132.383 46.296 138.837C46.3389 139.079 46.4659 139.298 46.6544 139.456C46.843 139.614 47.0812 139.699 47.3269 139.699H87.6463C87.8102 139.699 87.972 139.662 88.1186 139.588C88.2652 139.515 88.3926 139.409 88.4905 139.277C88.5889 139.149 88.6551 138.998 88.6838 138.839C88.7125 138.68 88.7028 138.516 88.6554 138.361C87.2981 133.687 84.9511 124.748 84.4849 117.39C84.1963 112.846 85.5158 106.151 88.6085 102.144C100.14 87.185 103.983 75.3984 101.874 61.4619C101.715 60.4092 101.538 59.415 101.332 58.4231C101.288 58.237 101.282 58.0441 101.314 57.8556C101.347 57.6672 101.416 57.4872 101.519 57.326C101.622 57.1649 101.756 57.026 101.913 56.9175C102.07 56.809 102.248 56.733 102.435 56.6942C102.622 56.6553 102.815 56.6543 103.003 56.6913C103.19 56.7282 103.368 56.8023 103.527 56.9092C103.685 57.0161 103.821 57.1536 103.925 57.3137C104.03 57.4737 104.101 57.6531 104.135 57.8412C104.353 58.8847 104.539 59.9282 104.708 61.0335C106.917 75.6332 102.782 88.4507 90.8799 103.893C88.2522 107.301 87.0999 113.299 87.3462 117.209C87.7964 124.294 90.0861 133.001 91.4102 137.561C91.5798 138.145 91.6109 138.76 91.5011 139.358C91.3912 139.956 91.1433 140.52 90.7773 141.005C90.4112 141.491 89.9369 141.884 89.3922 142.154C88.8475 142.424 88.2473 142.563 87.6394 142.56Z" fill="#D94343"/>
<path d="M18.6349 104.103H10.209C9.82931 104.103 9.46513 103.952 9.19661 103.684C8.9281 103.415 8.77725 103.051 8.77725 102.671C8.77725 102.292 8.9281 101.927 9.19661 101.659C9.46513 101.39 9.82931 101.239 10.209 101.239H18.6349C19.0146 101.239 19.3788 101.39 19.6473 101.659C19.9158 101.927 20.0667 102.292 20.0667 102.671C20.0667 103.051 19.9158 103.415 19.6473 103.684C19.3788 103.952 19.0146 104.103 18.6349 104.103Z" fill="#D94343"/>
<path d="M17.5811 76.3503C18.9412 76.3503 20.0438 75.2477 20.0438 73.8876C20.0438 72.5275 18.9412 71.4249 17.5811 71.4249C16.221 71.4249 15.1184 72.5275 15.1184 73.8876C15.1184 75.2477 16.221 76.3503 17.5811 76.3503Z" fill="#D94343"/>
<path d="M58.9039 60.4184C56.6777 60.4621 54.4655 60.0572 52.3992 59.2277C50.3329 58.3983 48.4548 57.1612 46.8768 55.5904C43.8808 52.5336 42.205 48.4226 42.2102 44.1424C42.2153 39.8623 43.901 35.7553 46.9043 32.7057C49.3907 30.2251 52.7595 28.832 56.2716 28.832C59.7838 28.832 63.1526 30.2251 65.639 32.7057C67.6771 34.7485 68.8217 37.5163 68.8217 40.4019C68.8217 43.2875 67.6771 46.0553 65.639 48.0981C63.9515 49.7813 61.6653 50.7265 59.2819 50.7265C56.8984 50.7265 54.6122 49.7813 52.9247 48.0981C51.5235 46.6943 50.7366 44.7919 50.7366 42.8085C50.7366 40.825 51.5235 38.9226 52.9247 37.5188C54.1017 36.3444 55.6965 35.6848 57.3592 35.6848C59.022 35.6848 60.6168 36.3444 61.7938 37.5188C62.7867 38.5141 63.3443 39.8626 63.3443 41.2684C63.3443 42.6743 62.7867 44.0227 61.7938 45.018C61.6609 45.1509 61.5031 45.2563 61.3295 45.3282C61.1558 45.4002 60.9698 45.4372 60.7818 45.4372C60.5939 45.4372 60.4078 45.4002 60.2341 45.3282C60.0605 45.2563 59.9027 45.1509 59.7698 45.018C59.6369 44.8851 59.5315 44.7273 59.4596 44.5537C59.3876 44.3801 59.3506 44.194 59.3506 44.006C59.3506 43.8181 59.3876 43.632 59.4596 43.4583C59.5315 43.2847 59.6369 43.1269 59.7698 42.994C60.2264 42.536 60.4828 41.9157 60.4828 41.269C60.4828 40.6223 60.2264 40.0019 59.7698 39.544C59.1303 38.9055 58.2635 38.5469 57.3598 38.5469C56.4561 38.5469 55.5894 38.9055 54.9498 39.544C54.0853 40.4104 53.5997 41.5845 53.5997 42.8085C53.5997 44.0325 54.0853 45.2065 54.9498 46.073C56.1003 47.2206 57.6591 47.8652 59.2841 47.8652C60.9092 47.8652 62.468 47.2206 63.6185 46.073C65.1198 44.5679 65.9629 42.5289 65.9629 40.403C65.9629 38.2772 65.1198 36.2382 63.6185 34.7331C61.6696 32.7889 59.0291 31.697 56.2762 31.697C53.5234 31.697 50.8829 32.7889 48.934 34.7331C46.4615 37.257 45.079 40.6509 45.0841 44.184C45.0893 47.7172 46.4817 51.107 48.9615 53.6237C53.0931 58.0015 60.7492 58.8721 66.3801 55.6053C66.7085 55.4145 67.0993 55.362 67.4664 55.4593C67.6481 55.5075 67.8186 55.591 67.9681 55.7051C68.1176 55.8192 68.2432 55.9616 68.3377 56.1242C68.4321 56.2868 68.4937 56.4664 68.5187 56.6528C68.5438 56.8391 68.5318 57.0286 68.4837 57.2104C68.4355 57.3922 68.352 57.5627 68.2379 57.7122C68.1238 57.8617 67.9814 57.9873 67.8188 58.0817C65.1039 59.6299 62.0291 60.4358 58.9039 60.4184Z" fill="#D94343"/>
<path d="M70.9711 54.7451C70.6929 54.7441 70.4211 54.662 70.1887 54.5091C69.9564 54.3561 69.7737 54.1387 69.6629 53.8836C69.5521 53.6285 69.518 53.3466 69.5648 53.0724C69.6116 52.7982 69.7373 52.5436 69.9264 52.3396C70.5186 51.7266 71.0298 51.0403 71.4476 50.2973C71.5383 50.1294 71.6617 49.9813 71.8105 49.8618C71.9594 49.7423 72.1306 49.6537 72.3141 49.6013C72.4977 49.5489 72.6898 49.5337 72.8793 49.5567C73.0688 49.5796 73.2518 49.6402 73.4175 49.7349C73.5833 49.8296 73.7284 49.9565 73.8444 50.1081C73.9603 50.2597 74.0448 50.433 74.0929 50.6177C74.1409 50.8025 74.1515 50.9949 74.1241 51.1838C74.0967 51.3727 74.0317 51.5542 73.9331 51.7177C73.404 52.654 72.7598 53.5206 72.0157 54.2972C71.8815 54.4394 71.7196 54.5526 71.5399 54.6296C71.3602 54.7066 71.1666 54.7459 70.9711 54.7451Z" fill="#D94343"/>
<path d="M92.3873 56.2605C90.2333 56.2591 88.139 55.5518 86.4253 54.2468C84.6839 52.9305 83.5367 50.9765 83.236 48.8145C82.9353 46.6524 83.5057 44.4595 84.8217 42.718C85.9209 41.2656 87.5518 40.3091 89.3559 40.0584C91.16 39.8078 92.9898 40.2836 94.4434 41.3812C95.0491 41.8391 95.5587 42.4118 95.9431 43.0667C96.3276 43.7215 96.5792 44.4456 96.6838 45.1977C96.7883 45.9498 96.7437 46.7152 96.5525 47.45C96.3613 48.1849 96.0272 48.8749 95.5693 49.4806C94.7834 50.5195 93.6172 51.2038 92.327 51.3831C91.0368 51.5625 89.7281 51.2222 88.6887 50.4371C88.5342 50.3254 88.4035 50.1841 88.3043 50.0213C88.2051 49.8585 88.1395 49.6775 88.1112 49.489C88.0829 49.3005 88.0925 49.1082 88.1395 48.9235C88.1865 48.7387 88.2699 48.5652 88.3848 48.4131C88.4998 48.2611 88.6439 48.1335 88.8088 48.0378C88.9737 47.9422 89.1561 47.8805 89.3452 47.8562C89.5342 47.832 89.7263 47.8458 89.9099 47.8968C90.0936 47.9477 90.2653 48.0349 90.4149 48.1531C90.8486 48.4803 91.3944 48.622 91.9325 48.5473C92.4706 48.4726 92.9572 48.1874 93.2853 47.7545C93.5167 47.4485 93.6854 47.1 93.7818 46.7287C93.8782 46.3575 93.9005 45.9709 93.8473 45.591C93.7941 45.2112 93.6665 44.8456 93.4718 44.5151C93.2771 44.1847 93.0191 43.8959 92.7126 43.6652C91.8647 43.025 90.7972 42.7475 89.7448 42.8937C88.6924 43.04 87.7411 43.598 87.1 44.4453C86.6742 45.0074 86.3634 45.648 86.1853 46.3304C86.0073 47.0128 85.9656 47.7236 86.0625 48.4221C86.1594 49.1206 86.3931 49.7932 86.7502 50.4013C87.1072 51.0095 87.5807 51.5412 88.1435 51.9662C89.6384 53.0961 91.5208 53.586 93.3769 53.3283C95.233 53.0705 96.9107 52.0862 98.0412 50.5917C99.4882 48.632 100.108 46.1826 99.7675 43.7705C99.4269 41.3584 98.153 39.1764 96.2199 37.6941C95.0246 36.8127 93.6413 36.2205 92.1785 35.964C90.7157 35.7074 89.2134 35.7934 87.7895 36.2153C86.4485 36.5188 85.196 37.1288 84.1302 37.9974C83.0644 38.8661 82.2143 39.9698 81.6465 41.222C81.5793 41.4003 81.4772 41.5634 81.3462 41.7017C81.2152 41.84 81.0578 41.9508 80.8834 42.0275C80.709 42.1043 80.5211 42.1454 80.3306 42.1486C80.1401 42.1518 79.9509 42.1169 79.774 42.046C79.5972 41.9751 79.4362 41.8696 79.3007 41.7358C79.1651 41.6019 79.0576 41.4423 78.9845 41.2663C78.9114 41.0904 78.8742 40.9016 78.875 40.7111C78.8758 40.5206 78.9146 40.3321 78.9891 40.1568C79.7125 38.4826 80.8204 37.0026 82.2229 35.8368C83.6253 34.6709 85.2829 33.8521 87.061 33.4468C88.9169 32.9108 90.8721 32.8134 92.7721 33.1625C94.672 33.5116 96.4649 34.2975 98.0091 35.4582C100.528 37.404 102.183 40.2613 102.616 43.4149C103.049 46.5684 102.226 49.766 100.325 52.319C99.5413 53.3617 98.5584 54.2385 97.4333 54.8987C96.3083 55.5589 95.0635 55.9895 93.771 56.1654C93.3125 56.2292 92.8502 56.261 92.3873 56.2605Z" fill="#D94343"/>
<path d="M79.9215 31.4858C78.3721 31.4813 76.8716 30.9437 75.6718 29.9633C74.472 28.983 73.6462 27.6196 73.3329 26.1023C73.0314 24.6273 73.3272 23.0929 74.1554 21.8357C74.9836 20.5784 76.2766 19.701 77.7509 19.3957C79.0055 19.138 80.3111 19.3889 81.3807 20.0934C82.4504 20.7979 83.1965 21.8983 83.4551 23.1528C83.565 23.6865 83.5687 24.2366 83.4659 24.7717C83.3631 25.3068 83.156 25.8164 82.8562 26.2714C82.5565 26.7265 82.17 27.118 81.719 27.4237C81.2679 27.7294 80.761 27.9432 80.2273 28.0529C80.0405 28.0978 79.8465 28.1046 79.657 28.0729C79.4675 28.0413 79.2863 27.9718 79.1242 27.8686C78.9621 27.7654 78.8224 27.6307 78.7135 27.4724C78.6046 27.3141 78.5286 27.1355 78.4902 26.9472C78.4517 26.759 78.4516 26.5649 78.4897 26.3766C78.5278 26.1883 78.6035 26.0095 78.7121 25.8511C78.8208 25.6926 78.9602 25.5576 79.1221 25.4542C79.284 25.3507 79.4651 25.2809 79.6546 25.2489C79.9885 25.18 80.2815 24.9813 80.469 24.6965C80.6565 24.4117 80.7232 24.0641 80.6546 23.7301C80.5492 23.2195 80.2455 22.7717 79.8102 22.4849C79.3748 22.1982 78.8434 22.096 78.3328 22.2009C77.6025 22.352 76.9619 22.7866 76.5516 23.4093C76.1413 24.032 75.9946 24.792 76.1438 25.5227C76.2462 26.0218 76.446 26.4959 76.7317 26.9177C77.0175 27.3396 77.3836 27.7009 77.8092 27.9811C78.2347 28.2614 78.7113 28.4549 79.2118 28.5508C79.7122 28.6466 80.2266 28.6429 80.7256 28.5398C82.0769 28.2599 83.262 27.4555 84.0211 26.3031C84.7801 25.1506 85.0512 23.7442 84.7747 22.3922C84.3874 20.6127 83.3164 19.0566 81.7926 18.0592C80.2688 17.0619 78.4142 16.7031 76.6283 17.0602C75.5434 17.2986 74.5285 17.7855 73.6635 18.4825C72.7985 19.1796 72.107 20.0677 71.6434 21.0772C71.1519 21.9765 70.8755 22.9775 70.8357 24.0015C70.796 25.0256 70.994 26.045 71.4143 26.9797C71.5756 27.3173 71.5984 27.7047 71.4778 28.0589C71.3573 28.4131 71.103 28.7062 70.7692 28.8754C70.4355 29.0446 70.0488 29.0765 69.6918 28.9643C69.3348 28.8522 69.0359 28.6048 68.8589 28.2752C68.2273 26.9443 67.9181 25.4833 67.9565 24.0106C67.995 22.538 68.3798 21.0951 69.0799 19.7989C69.7438 18.3896 70.7261 17.1539 71.9495 16.1894C73.1728 15.2249 74.6036 14.5579 76.1289 14.2413C78.6501 13.7494 81.2636 14.2678 83.4062 15.6847C85.5488 17.1016 87.0489 19.3035 87.5833 21.816C88.0117 23.9118 87.5915 26.0918 86.4148 27.8781C85.2381 29.6645 83.4009 30.9112 81.3063 31.3449C80.8508 31.4396 80.3867 31.4868 79.9215 31.4858Z" fill="#D94343"/>
<path d="M76.1553 48.1577C75.8917 48.1569 75.6334 48.0833 75.409 47.9451C75.1845 47.8069 75.0026 47.6094 74.8832 47.3744C74.7638 47.1394 74.7115 46.876 74.7323 46.6132C74.753 46.3504 74.8459 46.0985 75.0007 45.8851C76.0087 44.5106 76.3431 44.1143 76.4004 44.0524C76.6507 43.7667 77.0043 43.5921 77.3833 43.5671C77.7624 43.5421 78.1358 43.6686 78.4215 43.919C78.7072 44.1693 78.8818 44.5229 78.9068 44.9019C78.9319 45.2809 78.8053 45.6544 78.555 45.9401C78.5481 45.947 78.2503 46.2975 77.3122 47.5792C77.1784 47.7598 77.0039 47.9063 76.8029 48.0068C76.6019 48.1073 76.38 48.159 76.1553 48.1577Z" fill="#D94343"/>
<path d="M42.421 55.3636C42.1573 55.3634 41.8987 55.2901 41.6742 55.1517C40.751 54.5999 39.9006 53.9345 39.1428 53.1712C39.0059 53.0393 38.8966 52.8815 38.8213 52.7069C38.746 52.5323 38.7063 52.3445 38.7044 52.1544C38.7024 51.9643 38.7384 51.7757 38.8101 51.5997C38.8819 51.4236 38.988 51.2636 39.1222 51.129C39.2565 50.9944 39.4162 50.8878 39.592 50.8156C39.7679 50.7434 39.9563 50.7069 40.1465 50.7082C40.3366 50.7096 40.5245 50.7488 40.6993 50.8236C40.8741 50.8984 41.0322 51.0072 41.1645 51.1438C41.7636 51.7494 42.4376 52.276 43.1701 52.7108C43.4363 52.8738 43.642 53.1193 43.7557 53.41C43.8695 53.7006 43.8851 54.0205 43.8003 54.3209C43.7155 54.6213 43.5348 54.8857 43.2858 55.074C43.0368 55.2622 42.7332 55.3639 42.421 55.3636Z" fill="#D94343"/>
<path d="M19.7609 57.4059C19.2964 57.4062 18.8325 57.3741 18.3726 57.3097C17.0801 57.1338 15.8353 56.7032 14.7102 56.043C13.5852 55.3828 12.6023 54.5059 11.8184 53.4633C9.91798 50.9113 9.09531 47.7153 9.52738 44.5628C9.95945 41.4104 11.6117 38.5536 14.1287 36.6071C15.6733 35.447 17.4661 34.6615 19.366 34.3124C21.2658 33.9634 23.2208 34.0603 25.0768 34.5957C26.8547 35.0008 28.5121 35.8192 29.9146 36.9846C31.317 38.15 32.425 39.6296 33.1487 41.3034C33.2233 41.4787 33.2621 41.6671 33.2629 41.8577C33.2637 42.0482 33.2264 42.237 33.1533 42.4129C33.0802 42.5889 32.9727 42.7485 32.8372 42.8823C32.7016 43.0162 32.5407 43.1217 32.3638 43.1926C32.187 43.2635 31.9978 43.2984 31.8073 43.2952C31.6167 43.292 31.4288 43.2509 31.2544 43.1741C31.08 43.0974 30.9227 42.9866 30.7917 42.8483C30.6606 42.71 30.5585 42.5469 30.4913 42.3686C29.9235 41.1164 29.0734 40.0127 28.0077 39.144C26.9419 38.2754 25.6894 37.6654 24.3483 37.3619C22.9245 36.9396 21.4221 36.8533 19.9592 37.1099C18.4964 37.3665 17.113 37.9589 15.9179 38.8407C13.985 40.3234 12.7113 42.5056 12.3707 44.9178C12.0301 47.33 12.6499 49.7795 14.0967 51.7394C14.6567 52.4798 15.3571 53.1025 16.1579 53.5722C16.9586 54.0418 17.8441 54.3491 18.7636 54.4765C19.6831 54.604 20.6187 54.549 21.517 54.3148C22.4153 54.0806 23.2587 53.6718 23.999 53.1117C24.5613 52.6869 25.0344 52.1555 25.3912 51.5478C25.7481 50.9401 25.9818 50.2681 26.0789 49.5701C26.176 48.8721 26.1347 48.1618 25.9572 47.4798C25.7798 46.7978 25.4697 46.1575 25.0448 45.5953C24.4036 44.7481 23.4523 44.19 22.3999 44.0437C21.3475 43.8975 20.28 44.175 19.4321 44.8153C19.1257 45.0458 18.8677 45.3345 18.673 45.6648C18.4783 45.9952 18.3507 46.3607 18.2975 46.7405C18.2443 47.1202 18.2666 47.5067 18.363 47.8779C18.4594 48.249 18.6281 48.5975 18.8594 48.9033C19.1872 49.3368 19.6737 49.6223 20.2119 49.6973C20.7501 49.7722 21.2961 49.6305 21.7299 49.3031C21.8794 49.1849 22.0511 49.0978 22.2348 49.0468C22.4185 48.9958 22.6105 48.982 22.7996 49.0063C22.9886 49.0305 23.171 49.0922 23.3359 49.1878C23.5008 49.2835 23.6449 49.4111 23.7599 49.5632C23.8748 49.7152 23.9582 49.8887 24.0052 50.0735C24.0522 50.2582 24.0618 50.4505 24.0335 50.639C24.0052 50.8275 23.9396 51.0085 23.8404 51.1713C23.7412 51.3341 23.6106 51.4755 23.456 51.5871C22.4166 52.3724 21.1077 52.7127 19.8174 52.5331C18.5271 52.3535 17.3609 51.6688 16.5754 50.6295C16.1175 50.0238 15.7834 49.3338 15.5922 48.5989C15.401 47.864 15.3564 47.0987 15.4609 46.3466C15.5655 45.5945 15.8171 44.8704 16.2016 44.2155C16.586 43.5607 17.0956 42.988 17.7014 42.5301C19.155 41.4326 20.9849 40.957 22.7891 41.2078C24.5932 41.4587 26.2239 42.4155 27.323 43.868C28.6374 45.6095 29.2065 47.8016 28.9054 49.9625C28.6043 52.1234 27.4575 54.0764 25.7171 55.3922C24.0047 56.6956 21.9129 57.4028 19.7609 57.4059Z" fill="#D94343"/>
<path d="M36.4842 49.8426C36.1203 49.8432 35.77 49.7047 35.5049 49.4554C34.771 48.7762 34.1446 47.9895 33.647 47.1222C33.5461 46.956 33.4802 46.7709 33.4532 46.5784C33.4261 46.3859 33.4386 46.1898 33.4898 46.0023C33.541 45.8147 33.6299 45.6396 33.751 45.4875C33.8721 45.3354 34.023 45.2096 34.1943 45.1177C34.3656 45.0258 34.5539 44.9697 34.7476 44.953C34.9413 44.9362 35.1364 44.959 35.3209 45.0201C35.5055 45.0812 35.6757 45.1793 35.8212 45.3083C35.9666 45.4373 36.0843 45.5946 36.1669 45.7706C36.5206 46.3601 36.9555 46.8969 37.459 47.365C37.6688 47.5612 37.8148 47.816 37.8779 48.0963C37.941 48.3766 37.9183 48.6694 37.8128 48.9366C37.7073 49.2038 37.5239 49.4331 37.2863 49.5947C37.0488 49.7563 36.7681 49.8426 36.4808 49.8426H36.4842Z" fill="#D94343"/>
<path d="M71.5243 36.5887C71.4653 36.5889 71.4064 36.5851 71.3479 36.5773C71.1612 36.5545 70.9809 36.4951 70.8173 36.4025C70.6536 36.31 70.5098 36.186 70.394 36.0378C70.2783 35.8896 70.1929 35.7201 70.1427 35.5389C70.0925 35.3576 70.0786 35.1683 70.1017 34.9817C70.1166 34.1968 70.0417 33.4128 69.8783 32.645C69.8392 32.4578 69.838 32.2647 69.8747 32.077C69.9115 31.8894 69.9854 31.711 70.0923 31.5524C70.1991 31.3938 70.3366 31.2582 70.4967 31.1536C70.6567 31.049 70.8362 30.9775 71.0243 30.9434C71.2125 30.9092 71.4055 30.9131 71.5922 30.9549C71.7788 30.9966 71.9552 31.0753 72.1109 31.1862C72.2666 31.2972 72.3985 31.4383 72.4988 31.6011C72.5991 31.7639 72.6658 31.9451 72.6949 32.1341C72.9272 33.1829 73.0105 34.2591 72.9423 35.331C72.9001 35.6776 72.7327 35.9968 72.4715 36.2284C72.2103 36.4601 71.8734 36.5882 71.5243 36.5887Z" fill="#D94343"/>
<path d="M32.2209 32.6312C31.7591 32.6315 31.2985 32.5843 30.8464 32.4904C28.7518 32.0566 26.9146 30.8099 25.7379 29.0236C24.5612 27.2373 24.141 25.0572 24.5694 22.9615C25.1046 20.4494 26.6049 18.248 28.7473 16.8313C30.8896 15.4145 33.5027 14.8958 36.0238 15.3867C37.5491 15.7034 38.9799 16.3703 40.2032 17.3348C41.4266 18.2993 42.4089 19.535 43.0728 20.9444C43.7729 22.2405 44.1577 23.6834 44.1961 25.1561C44.2346 26.6287 43.9254 28.0897 43.2938 29.4206C43.1195 29.7541 42.8209 30.0057 42.4626 30.1209C42.1043 30.2361 41.7151 30.2058 41.379 30.0364C41.0429 29.867 40.7869 29.5721 40.6664 29.2156C40.5459 28.859 40.5705 28.4694 40.7349 28.1308C41.1552 27.1961 41.3533 26.1768 41.3135 25.1527C41.2738 24.1286 40.9973 23.1277 40.5058 22.2284C40.0422 21.2189 39.3507 20.3307 38.4857 19.6337C37.6208 18.9367 36.6059 18.4498 35.5209 18.2113C33.7351 17.8542 31.8805 18.213 30.3567 19.2104C28.8329 20.2077 27.7619 21.7638 27.3746 23.5433C27.0981 24.8953 27.3691 26.3018 28.1282 27.4542C28.8872 28.6067 30.0724 29.411 31.4237 29.6909C31.9227 29.7941 32.4371 29.7978 32.9375 29.702C33.4379 29.6061 33.9145 29.4125 34.3401 29.1323C34.7656 28.8521 35.1318 28.4907 35.4175 28.0689C35.7033 27.647 35.903 27.173 36.0054 26.6738C36.154 25.9432 36.0071 25.1835 35.5969 24.561C35.1866 23.9384 34.5465 23.5037 33.8165 23.3521C33.3058 23.2485 32.7749 23.3513 32.3398 23.6381C31.9047 23.9248 31.6009 24.3722 31.4947 24.8824C31.426 25.2164 31.4928 25.564 31.6803 25.8488C31.8678 26.1336 32.1607 26.3323 32.4947 26.4012C32.6841 26.4332 32.8652 26.503 33.0271 26.6065C33.189 26.7099 33.3285 26.8449 33.4371 27.0034C33.5458 27.1618 33.6214 27.3406 33.6596 27.5289C33.6977 27.7172 33.6975 27.9113 33.6591 28.0995C33.6206 28.2878 33.5447 28.4664 33.4357 28.6247C33.3268 28.783 33.1872 28.9177 33.0251 29.0209C32.863 29.1241 32.6818 29.1936 32.4922 29.2252C32.3027 29.2569 32.1088 29.2501 31.9219 29.2052C31.3881 29.0955 30.8811 28.8816 30.43 28.5759C29.9788 28.2701 29.5923 27.8785 29.2926 27.4233C28.9928 26.9682 28.7857 26.4584 28.683 25.9232C28.5803 25.3879 28.5841 24.8377 28.6941 24.3039C28.9549 23.0507 29.7016 21.9518 30.7706 21.2477C31.8396 20.5436 33.144 20.2916 34.3984 20.5469C35.8726 20.8527 37.1654 21.7304 37.9935 22.9877C38.8216 24.2451 39.1175 25.7794 38.8163 27.2546C38.5031 28.7719 37.6772 30.1353 36.4775 31.1156C35.2777 32.096 33.7771 32.6336 32.2278 32.6381L32.2209 32.6312Z" fill="#D94343"/>
<path d="M39.8827 36.9896C39.506 36.9909 39.144 36.8431 38.8758 36.5785C38.6076 36.3139 38.4549 35.954 38.4509 35.5773C38.4971 34.4516 38.6999 33.3379 39.0534 32.2681C39.1073 32.0881 39.1961 31.9204 39.3147 31.7747C39.4334 31.6289 39.5796 31.508 39.745 31.4187C39.9104 31.3295 40.0917 31.2737 40.2787 31.2546C40.4656 31.2354 40.6545 31.2533 40.8346 31.3071C41.0147 31.361 41.1823 31.4498 41.3281 31.5684C41.4738 31.6871 41.5948 31.8333 41.684 31.9987C41.7732 32.1641 41.829 32.3454 41.8482 32.5324C41.8673 32.7193 41.8495 32.9082 41.7956 33.0883C41.5322 33.8896 41.3706 34.7208 41.3145 35.5624C41.3118 35.9407 41.1601 36.3027 40.8923 36.5698C40.6245 36.837 40.261 36.9878 39.8827 36.9896Z" fill="#D94343"/>
<path d="M53.6143 22.0188C53.3447 22.0188 53.0806 21.9427 52.8524 21.7993C52.6243 21.6558 52.4412 21.4508 52.3245 21.2078C51.6284 19.8253 50.6301 18.6172 49.4036 17.673C48.1977 16.698 47.2203 15.4705 46.5403 14.0768C45.8603 12.6831 45.4943 11.1573 45.4679 9.60682C45.4217 8.2486 45.6825 6.89746 46.2308 5.65399C46.7792 4.41053 47.601 3.30678 48.635 2.42493C50.5671 0.733592 53.0861 -0.131397 55.6496 0.0162106C58.2131 0.163818 60.6162 1.31222 62.3413 3.21414C63.048 4.00365 63.5922 4.92467 63.9429 5.92457C64.2935 6.92447 64.4437 7.98366 64.3849 9.04163C64.3261 10.0996 64.0594 11.1356 63.6001 12.0905C63.1407 13.0453 62.4978 13.9004 61.7079 14.6067C61.0482 15.1969 60.2786 15.6515 59.4432 15.9443C58.6078 16.2372 57.7229 16.3626 56.839 16.3135C55.9551 16.2643 55.0896 16.0416 54.2918 15.6579C53.494 15.2743 52.7796 14.7372 52.1893 14.0775C51.692 13.5218 51.309 12.8735 51.0623 12.1697C50.8156 11.466 50.7099 10.7205 50.7514 9.97588C50.7929 9.23127 50.9807 8.50214 51.3041 7.83013C51.6274 7.15813 52.0801 6.55643 52.636 6.05941C53.1085 5.6363 53.6598 5.31047 54.2583 5.10052C54.8567 4.89058 55.4907 4.80064 56.124 4.83585C56.7573 4.87106 57.3774 5.03073 57.9489 5.30573C58.5204 5.58073 59.0322 5.96567 59.4548 6.43855C60.1875 7.25961 60.5646 8.33767 60.5036 9.43638C60.4427 10.5351 59.9485 11.5648 59.1295 12.2997C58.8462 12.5534 58.4738 12.6842 58.0941 12.6632C57.7144 12.6423 57.3586 12.4714 57.105 12.1881C56.8513 11.9048 56.7206 11.5323 56.7415 11.1527C56.7625 10.773 56.9334 10.4172 57.2166 10.1635C57.3427 10.0509 57.4452 9.91464 57.5186 9.76241C57.5919 9.61018 57.6345 9.445 57.644 9.2763C57.6534 9.10759 57.6296 8.93868 57.5737 8.7792C57.5179 8.61972 57.4312 8.47281 57.3186 8.34684C57.1467 8.15419 56.9384 7.99735 56.7058 7.88529C56.4732 7.77322 56.2208 7.70815 55.963 7.69379C55.7052 7.67942 55.4471 7.71605 55.2034 7.80158C54.9598 7.88711 54.7354 8.01985 54.5432 8.19221C54.2675 8.43865 54.043 8.73702 53.8827 9.07026C53.7223 9.40349 53.6292 9.76506 53.6087 10.1343C53.5882 10.5035 53.6406 10.8732 53.763 11.2222C53.8854 11.5711 54.0754 11.8925 54.3221 12.168C54.6616 12.5476 55.0725 12.8565 55.5314 13.0772C55.9903 13.2979 56.4882 13.4261 56.9966 13.4544C57.505 13.4827 58.0141 13.4106 58.4946 13.2421C58.9752 13.0737 59.4178 12.8122 59.7973 12.4727C60.3068 12.017 60.7215 11.4654 61.0177 10.8493C61.3139 10.2333 61.4857 9.56491 61.5235 8.88241C61.5613 8.1999 61.4642 7.51665 61.2378 6.87169C61.0113 6.22673 60.66 5.63271 60.2039 5.12358C58.9743 3.78077 57.2665 2.97457 55.4482 2.87859C53.63 2.78261 51.8468 3.40453 50.4826 4.61043C49.7744 5.2212 49.213 5.9838 48.8401 6.8415C48.4673 7.69921 48.2927 8.62993 48.3292 9.56444C48.3469 10.6922 48.612 11.8023 49.1056 12.8164C49.5992 13.8305 50.3093 14.724 51.1859 15.4337C52.7489 16.6458 54.0185 18.1947 54.9006 19.965C54.9824 20.1343 55.0299 20.3181 55.0406 20.5059C55.0512 20.6936 55.0247 20.8816 54.9625 21.0591C54.9004 21.2366 54.8039 21.4001 54.6784 21.5402C54.553 21.6803 54.4012 21.7943 54.2316 21.8756C54.0394 21.9696 53.8283 22.0186 53.6143 22.0188Z" fill="#D94343"/>
<path d="M55.9567 27.7082C55.6309 27.7078 55.3151 27.5963 55.0613 27.3923C54.8074 27.1882 54.6307 26.9037 54.5604 26.5856C54.4032 25.9978 54.1999 25.4233 53.9521 24.8675C53.8027 24.5181 53.7981 24.1237 53.9395 23.771C54.0808 23.4183 54.3565 23.1361 54.7058 22.9867C55.0552 22.8372 55.4496 22.8326 55.8023 22.974C56.1551 23.1153 56.4372 23.391 56.5866 23.7404C56.9064 24.4602 57.1643 25.2059 57.3575 25.9694C57.4394 26.34 57.3708 26.728 57.1667 27.048C56.9627 27.368 56.6399 27.5939 56.2694 27.6761C56.1666 27.698 56.0617 27.7087 55.9567 27.7082Z" fill="#D94343"/>
<path d="M40.2836 44.1234C40.0181 44.1237 39.7578 44.05 39.5318 43.9106C39.3058 43.7712 39.1231 43.5716 39.0042 43.3342C38.4462 42.2124 38.1227 40.9886 38.0535 39.7375C38.0523 39.5495 38.0881 39.3631 38.159 39.1889C38.2298 39.0147 38.3343 38.8562 38.4664 38.7224C38.5985 38.5886 38.7556 38.4821 38.9289 38.4091C39.1021 38.336 39.2881 38.2978 39.4761 38.2966H39.4853C39.8633 38.2969 40.226 38.4466 40.4942 38.713C40.7623 38.9795 40.9144 39.3412 40.9171 39.7192C40.9825 40.5288 41.201 41.3186 41.5608 42.0467C41.6702 42.265 41.7221 42.5076 41.7115 42.7515C41.7009 42.9955 41.6282 43.2326 41.5003 43.4406C41.3724 43.6486 41.1935 43.8205 40.9806 43.9399C40.7677 44.0594 40.5278 44.1226 40.2836 44.1234Z" fill="#D94343"/>
<path d="M70.4682 43.6733C70.2286 43.6729 69.9928 43.6125 69.7826 43.4975C69.5724 43.3826 69.3943 43.2167 69.2647 43.0151C69.1352 42.8135 69.0582 42.5827 69.041 42.3436C69.0237 42.1046 69.0666 41.8651 69.1658 41.647C69.4651 40.9318 69.6514 40.1744 69.7179 39.4019C69.7278 39.2136 69.7752 39.0291 69.8574 38.8594C69.9395 38.6896 70.0548 38.538 70.1964 38.4135C70.3381 38.2889 70.5031 38.194 70.682 38.1341C70.8609 38.0743 71.0499 38.0509 71.2379 38.0652C71.4255 38.0772 71.6089 38.126 71.7777 38.2088C71.9464 38.2917 72.0971 38.407 72.2213 38.5482C72.3454 38.6893 72.4405 38.8536 72.5012 39.0315C72.5618 39.2095 72.5868 39.3976 72.5747 39.5852C72.4874 40.7025 72.2165 41.7977 71.7728 42.8268C71.6601 43.0786 71.4769 43.2924 71.2455 43.4426C71.014 43.5928 70.7441 43.6729 70.4682 43.6733Z" fill="#D94343"/>
</svg>
