<svg width="80" height="71" viewBox="0 0 80 71" fill="none" xmlns="http://www.w3.org/2000/svg">
<g clip-path="url(#clip0_127_193)">
<path opacity="0.941" fill-rule="evenodd" clip-rule="evenodd" d="M-0.078125 51.5166C-0.078125 48.928 -0.078125 46.3395 -0.078125 43.7509C0.279772 42.9483 0.930812 42.3936 1.875 42.0869C1.97917 40.053 1.97917 38.0192 1.875 35.9853C0.908656 35.0625 0.257614 33.9993 -0.078125 32.7959C-0.078125 26.2321 -0.078125 19.6682 -0.078125 13.1045C0.951023 11.0415 2.69581 10.302 5.15625 10.8857C5.36672 9.49887 6.17402 8.50506 7.57812 7.90427C8.9545 7.51895 10.2305 7.68074 11.4062 8.38962C13.3839 6.77693 15.4152 6.7307 17.5 8.25095C19.7294 7.24345 21.6044 7.61325 23.125 9.36032C23.2597 9.58039 23.3639 9.8115 23.4375 10.0537C23.6622 12.2645 23.7403 14.4833 23.6719 16.7099C26.0706 17.2441 27.555 18.5846 28.125 20.7314C28.2292 24.1057 28.2292 27.4802 28.125 30.8545C27.6103 33.202 26.152 34.9123 23.75 35.9853C23.6719 38.0648 23.6458 40.1449 23.6719 42.2256C24.8261 42.5345 25.5292 43.2279 25.7812 44.3056C25.948 44.2098 26.1303 44.1405 26.3281 44.0976C27.8386 44.0051 29.3489 44.0051 30.8594 44.0976C32.1308 44.3711 33.1205 44.9951 33.8281 45.9697C35.0509 45.6904 36.1969 45.8522 37.2656 46.455C38.073 47.1716 38.8802 47.8879 39.6875 48.6045C39.9686 49.5395 39.578 50.0942 38.5156 50.2685C38.1859 50.1917 37.8734 50.076 37.5781 49.9218C36.8959 49.2699 36.1667 48.6691 35.3906 48.1191C34.9081 48.0017 34.4655 48.071 34.0625 48.3271C33.9155 48.8657 33.6811 49.3742 33.3594 49.8525C34.0853 50.6587 34.8405 51.4445 35.625 52.2099C35.8784 53.4982 35.2795 53.9835 33.8281 53.666C32.8564 52.8732 31.9709 52.0181 31.1719 51.1006C29.5647 51.2589 27.95 51.2821 26.3281 51.1699C26.1303 51.127 25.948 51.0577 25.7812 50.9619C25.535 52.0349 24.8319 52.7283 23.6719 53.042C23.698 56.3242 23.6719 59.6061 23.5938 62.8877C23.4833 63.1069 23.3531 63.3149 23.2031 63.5117C16.3933 63.7413 9.57038 63.7875 2.73438 63.6504C2.45531 63.5415 2.22094 63.3798 2.03125 63.165C1.97917 59.8369 1.92708 56.5088 1.875 53.1806C0.934778 52.8775 0.283738 52.3228 -0.078125 51.5166ZM13.9844 9.36032C14.9267 9.30387 15.5257 9.67366 15.7812 10.4697C15.9114 12.5513 15.8853 14.6314 15.7031 16.7099C14.171 17.2143 13.3117 18.185 13.125 19.622C13.0208 16.4788 13.0208 13.3356 13.125 10.1924C13.3375 9.84254 13.6239 9.56519 13.9844 9.36032ZM8.67188 9.91501C9.61108 9.85751 10.21 10.2273 10.4688 11.0244C10.5729 14.0752 10.5729 17.1259 10.4688 20.1767C10.0985 21.2664 9.34333 21.5438 8.20312 21.0088C8.07292 20.8701 7.9427 20.7314 7.8125 20.5927C7.70833 17.2646 7.70833 13.9365 7.8125 10.6084C8.03211 10.2972 8.31858 10.0661 8.67188 9.91501ZM19.2969 9.91501C20.2044 9.7974 20.8034 10.121 21.0938 10.8857C21.1719 12.7803 21.198 14.6755 21.1719 16.5713C20.2344 16.5713 19.2969 16.5713 18.3594 16.5713C18.3333 14.5831 18.3594 12.5955 18.4375 10.6084C18.7078 10.3446 18.9942 10.1135 19.2969 9.91501ZM3.35938 12.8271C4.34881 12.8042 4.94778 13.2202 5.15625 14.0752C5.26042 16.0627 5.26042 18.0505 5.15625 20.0381C4.84169 21.1599 4.08648 21.4834 2.89062 21.0088C2.54648 20.7598 2.36419 20.4362 2.34375 20.0381C2.23958 18.0505 2.23958 16.0627 2.34375 14.0752C2.47388 13.5213 2.81241 13.1053 3.35938 12.8271ZM16.4844 18.79C18.7245 18.7668 20.9642 18.79 23.2031 18.8593C24.427 19.206 25.2344 19.9225 25.625 21.0088C25.7292 24.1982 25.7292 27.3877 25.625 30.5771C25.047 32.5232 23.6667 33.7944 21.4844 34.3906C21.3866 34.4946 21.3084 34.6102 21.25 34.7373C21.1719 37.1868 21.1458 39.6366 21.1719 42.0869C17.8381 42.0637 14.5048 42.0869 11.1719 42.1562C10.2822 42.9691 10.3864 43.6625 11.4844 44.2363C15.3385 44.2825 19.1927 44.3288 23.0469 44.375C23.2277 46.5141 23.2537 48.6635 23.125 50.8232C16.2344 51.0076 9.33341 51.0076 2.42188 50.8232C2.21355 48.697 2.21355 46.5706 2.42188 44.4443C3.82525 44.3289 5.2315 44.2596 6.64062 44.2363C7.48523 43.9617 7.7717 43.4301 7.5 42.6416C7.3177 42.4797 7.13542 42.318 6.95312 42.1562C6.12142 42.087 5.28808 42.0639 4.45312 42.0869C4.47916 39.8214 4.45311 37.5565 4.375 35.292C3.68723 34.5815 3.11433 33.7958 2.65625 32.9345C2.48853 32.4375 2.38436 31.9292 2.34375 31.4091C2.26562 28.7286 2.23959 26.0475 2.26562 23.3662C3.79761 23.7054 5.20386 23.4742 6.48438 22.6728C8.22391 23.7787 9.9687 23.7787 11.7188 22.6728C12.2089 23.0176 12.7558 23.2717 13.3594 23.4355C15.233 23.3576 17.108 23.4039 18.9844 23.5742C14.5296 24.8458 12.6286 27.5499 13.2812 31.6865C14.0104 32.426 14.7396 32.426 15.4688 31.6865C15.6581 30.7731 15.7623 29.8485 15.7812 28.9131C16.1302 27.9105 16.7811 27.1016 17.7344 26.4863C18.7891 26.0972 19.8308 25.6812 20.8594 25.2382C21.9539 24.3119 22.3966 23.1795 22.1875 21.8408C21.9978 21.626 21.7634 21.4643 21.4844 21.3554C19.7505 21.3493 18.0317 21.2568 16.3281 21.0781C15.3347 20.2703 15.3868 19.5076 16.4844 18.79ZM26.7969 46.247C28.1681 46.1859 29.5222 46.2552 30.8594 46.455C31.1637 46.6546 31.372 46.9088 31.4844 47.2177C31.2237 47.773 30.9634 48.3277 30.7031 48.8818C30.0341 48.9703 29.3569 49.0165 28.6719 49.0205C27.9253 49.0356 27.1963 48.9663 26.4844 48.8125C25.3856 47.8448 25.4897 46.9898 26.7969 46.247ZM4.45312 53.1806C10.026 53.1806 15.599 53.1806 21.1719 53.1806C21.1719 55.9541 21.1719 58.7275 21.1719 61.5009C15.599 61.5009 10.026 61.5009 4.45312 61.5009C4.45312 58.7275 4.45312 55.9541 4.45312 53.1806Z" fill="#F2F2F2"/>
<path opacity="0.94" fill-rule="evenodd" clip-rule="evenodd" d="M79.9219 13.1045C79.9219 19.6682 79.9219 26.2321 79.9219 32.7959C79.5861 33.9993 78.9352 35.0625 77.9688 35.9853C77.8645 38.0192 77.8645 40.053 77.9688 42.0869C78.913 42.3936 79.5639 42.9483 79.9219 43.7509C79.9219 46.3395 79.9219 48.928 79.9219 51.5166C79.56 52.3228 78.9089 52.8775 77.9688 53.1806C77.9167 56.5088 77.8645 59.8369 77.8125 63.165C77.6228 63.3798 77.3884 63.5415 77.1094 63.6504C70.2734 63.7875 63.4505 63.7413 56.6406 63.5117C56.4906 63.3149 56.3605 63.1069 56.25 62.8877C56.1719 59.6061 56.1458 56.3242 56.1719 53.042C55.0119 52.7283 54.3088 52.0349 54.0625 50.9619C53.8958 51.0577 53.7134 51.127 53.5156 51.1699C51.9531 51.2624 50.3906 51.2624 48.8281 51.1699C47.645 50.8595 46.7336 50.2355 46.0938 49.2978C44.6147 49.6582 43.2866 49.404 42.1094 48.5351C41.5625 48.0498 41.0156 47.5644 40.4688 47.0791C39.9261 46.4544 39.9522 45.8533 40.5469 45.2763C41.0059 45.1273 41.4747 45.1042 41.9531 45.207C42.5781 45.7617 43.2031 46.3164 43.8281 46.8711C44.4813 47.2789 45.1323 47.3021 45.7813 46.9404C45.9283 46.4018 46.1627 45.8933 46.4844 45.415C45.8158 44.6132 45.0606 43.8737 44.2188 43.1963C44.0206 41.8 44.6716 41.3146 46.1719 41.7402C47.0917 42.4868 47.925 43.2957 48.6719 44.167C50.2791 44.0086 51.8938 43.9854 53.5156 44.0976C53.7134 44.1405 53.8958 44.2098 54.0625 44.3056C54.3145 43.2279 55.0177 42.5345 56.1719 42.2256C56.198 40.1449 56.1719 38.0648 56.0938 35.9853C52.1945 34.0145 50.8664 31.1256 52.1094 27.3183C52.7678 27.0037 53.3667 27.073 53.9062 27.5263C54.0977 28.5324 54.2019 29.5494 54.2188 30.5771C54.8009 32.5268 56.1811 33.7979 58.3594 34.3906C58.4572 34.4946 58.5353 34.6102 58.5938 34.7373C58.6719 37.1868 58.698 39.6366 58.6719 42.0869C64.2448 42.0869 69.8177 42.0869 75.3906 42.0869C75.3645 39.7752 75.3906 37.464 75.4688 35.1533C76.69 34.141 77.367 32.8929 77.5 31.4091C77.5781 28.7286 77.6042 26.0475 77.5781 23.3662C76.0461 23.7054 74.6398 23.4742 73.3594 22.6728C71.6198 23.7787 69.875 23.7787 68.125 22.6728C67.6348 23.0176 67.088 23.2717 66.4844 23.4355C64.6108 23.3576 62.7358 23.4039 60.8594 23.5742C65.3141 24.8458 67.2152 27.5499 66.5625 31.6865C65.6541 32.4776 64.8728 32.3851 64.2188 31.4091C64.1667 30.5771 64.1145 29.7451 64.0625 28.9131C63.7136 27.9105 63.0627 27.1016 62.1094 26.4863C61.0547 26.0972 60.013 25.6812 58.9844 25.2382C57.8898 24.3119 57.4472 23.1795 57.6562 21.8408C57.8459 21.626 58.0803 21.4643 58.3594 21.3554C60.0933 21.3493 61.812 21.2568 63.5156 21.0781C64.4775 20.4355 64.5295 19.7421 63.6719 18.998C62.4634 18.8405 61.2394 18.7711 60 18.79C58.7125 18.7734 57.4366 18.8427 56.1719 18.998C55.3645 19.3447 54.7656 19.8762 54.375 20.5927C54.2241 21.752 54.0678 22.9077 53.9062 24.0595C53.1322 24.6388 52.4031 24.5925 51.7188 23.9209C51.0895 21.3661 51.8447 19.2167 53.9844 17.4726C54.6661 17.1004 55.3953 16.8461 56.1719 16.7099C56.1034 14.4833 56.1816 12.2645 56.4062 10.0537C57.2548 8.23198 58.7913 7.46928 61.0156 7.76559C61.4889 7.87442 61.9316 8.03621 62.3438 8.25095C64.4286 6.7307 66.4598 6.77693 68.4375 8.38962C70.3198 7.36908 72.0908 7.50775 73.75 8.80563C74.2762 9.42071 74.5887 10.1141 74.6875 10.8857C77.148 10.302 78.8927 11.0415 79.9219 13.1045ZM65.0781 9.36032C65.847 9.29693 66.3939 9.57428 66.7188 10.1924C66.823 13.3356 66.823 16.4788 66.7188 19.622C66.532 18.185 65.6727 17.2143 64.1406 16.7099C63.9584 14.6314 63.9323 12.5513 64.0625 10.4697C64.1536 9.90498 64.4922 9.53519 65.0781 9.36032ZM59.6094 9.91501C60.3667 9.82354 60.9658 10.0547 61.4062 10.6084C61.4844 12.5955 61.5105 14.5831 61.4844 16.5713C60.5469 16.5713 59.6094 16.5713 58.6719 16.5713C58.6458 14.6755 58.6719 12.7803 58.75 10.8857C58.9011 10.453 59.1875 10.1294 59.6094 9.91501ZM70.2344 9.91501C70.9975 9.82634 71.5964 10.0575 72.0312 10.6084C72.1355 13.9365 72.1355 17.2646 72.0312 20.5927C71.3944 21.3456 70.6392 21.4612 69.7656 20.9394C69.5755 20.7109 69.4453 20.4567 69.375 20.1767C69.2708 17.1259 69.2708 14.0752 69.375 11.0244C69.4727 10.5239 69.7591 10.1541 70.2344 9.91501ZM75.7031 12.8271C76.6925 12.8042 77.2916 13.2202 77.5 14.0752C77.6042 16.0627 77.6042 18.0505 77.5 20.0381C77.1225 21.2338 76.3152 21.5343 75.0781 20.9394C74.8652 20.6697 74.7348 20.3692 74.6875 20.0381C74.5833 18.0505 74.5833 16.0627 74.6875 14.0752C74.8177 13.5213 75.1561 13.1053 75.7031 12.8271ZM56.7969 44.3056C63.6727 44.2595 70.5477 44.3056 77.4219 44.4443C77.6302 46.5706 77.6302 48.697 77.4219 50.8232C76.0706 50.9386 74.7166 51.0079 73.3594 51.0312C72.4075 51.3466 72.1209 51.9244 72.5 52.7646C72.6411 52.9312 72.8233 53.0468 73.0469 53.1113C73.8264 53.1805 74.6077 53.2037 75.3906 53.1806C75.3906 55.9541 75.3906 58.7275 75.3906 61.5009C69.8177 61.5009 64.2448 61.5009 58.6719 61.5009C58.6719 58.7275 58.6719 55.9541 58.6719 53.1806C62.0056 53.2038 65.3389 53.1806 68.6719 53.1113C68.9583 53.042 69.1406 52.8801 69.2188 52.6259C69.53 51.8165 69.2434 51.2848 68.3594 51.0312C64.5052 50.985 60.6511 50.9387 56.7969 50.8925C56.5897 48.697 56.5897 46.5012 56.7969 44.3056ZM49.2969 46.247C50.548 46.224 51.798 46.247 53.0469 46.3164C54.5052 47.1946 54.5052 48.0729 53.0469 48.9511C51.7969 49.0436 50.5469 49.0436 49.2969 48.9511C48.8447 48.7581 48.5322 48.4576 48.3594 48.0498C48.6342 47.4239 48.9467 46.8231 49.2969 46.247Z" fill="#F2F2F2"/>
<path opacity="0.894" fill-rule="evenodd" clip-rule="evenodd" d="M39.4531 34.3213C40.2 34.2022 40.7469 34.4333 41.0938 35.0146C41.198 35.8467 41.198 36.6787 41.0938 37.5107C40.623 38.2089 39.9719 38.3708 39.1406 37.9961C38.953 37.8709 38.8227 37.7092 38.75 37.5107C38.6458 36.6787 38.6458 35.8467 38.75 35.0146C38.9102 34.7114 39.1445 34.4802 39.4531 34.3213Z" fill="#F2F2F2"/>
<path opacity="0.872" fill-rule="evenodd" clip-rule="evenodd" d="M33.2031 36.2627C33.623 36.24 34.0397 36.2631 34.4531 36.3321C35.3905 36.8628 36.0675 37.5793 36.4844 38.4815C36.2941 39.4219 35.6691 39.7686 34.6094 39.5215C33.6375 38.9837 32.9605 38.2441 32.5781 37.3028C32.6448 36.8836 32.8533 36.5369 33.2031 36.2627Z" fill="#F2F2F2"/>
<path opacity="0.872" fill-rule="evenodd" clip-rule="evenodd" d="M45.3906 36.2627C47.0933 36.1884 47.588 36.8356 46.875 38.2041C46.3748 38.6945 45.828 39.1336 45.2344 39.5215C43.5305 39.6541 43.0358 39.03 43.75 37.6494C44.2806 37.1551 44.8275 36.6929 45.3906 36.2627Z" fill="#F2F2F2"/>
<path opacity="0.889" fill-rule="evenodd" clip-rule="evenodd" d="M34.6094 55.6768C36.3108 55.612 36.8056 56.2592 36.0937 57.6182C35.6511 58.011 35.2083 58.404 34.7656 58.7969C33.3561 59.3445 32.653 58.9517 32.6562 57.6182C33.2817 56.9477 33.9328 56.3005 34.6094 55.6768Z" fill="#F2F2F2"/>
<path opacity="0.889" fill-rule="evenodd" clip-rule="evenodd" d="M44.1406 55.6767C44.5089 55.6541 44.8734 55.6771 45.2344 55.7461C45.8333 56.2776 46.4323 56.8093 47.0312 57.3408C47.4011 57.9647 47.2708 58.4962 46.6406 58.9355C46.0994 59.0488 45.5784 59.0025 45.0781 58.7968C44.29 58.2607 43.717 57.5905 43.3594 56.7861C43.3922 56.2737 43.6527 55.9039 44.1406 55.6767Z" fill="#F2F2F2"/>
<path opacity="0.894" fill-rule="evenodd" clip-rule="evenodd" d="M39.4531 57.0635C40.2 56.9443 40.7469 57.1755 41.0938 57.7568C41.198 58.5889 41.198 59.4209 41.0938 60.2529C40.623 60.9511 39.9719 61.113 39.1406 60.7383C38.953 60.613 38.8227 60.4514 38.75 60.2529C38.6458 59.4209 38.6458 58.5889 38.75 57.7568C38.9102 57.4535 39.1445 57.2224 39.4531 57.0635Z" fill="#F2F2F2"/>
</g>
<defs>
<clipPath id="clip0_127_193">
<rect width="80" height="71" fill="white"/>
</clipPath>
</defs>
</svg>
