<svg width="91" height="83" viewBox="0 0 91 83" fill="none" xmlns="http://www.w3.org/2000/svg">
<g clip-path="url(#clip0_140_1415)">
<path d="M12.3881 11.3152L0.355469 22.29V52.491V82.6758H35.3691H70.3828V66.6756V50.6754L79.4117 42.3916C85.8102 36.5232 88.6006 33.8646 89.0094 33.2C90.3068 31.1898 90.8934 28.6285 90.4846 26.6994C89.8447 23.5221 86.7699 20.4096 83.3574 19.4369C81.9355 19.0479 79.625 19.0154 78.1143 19.3721C75.8748 19.907 74.5418 20.6689 72.3912 22.5818L70.3828 24.365V12.3527V0.324219H47.4018H24.4385L12.3881 11.3152ZM67.3613 14.9465V26.9912L64.482 29.6174L61.585 32.2598H46.9752H32.3477V33.5566V34.8535H45.5355H58.7412L52.876 40.2031L47.0107 45.5527H28.0465H9.06445V46.8496V48.1465H26.6068H44.167L38.3018 53.4961L32.4365 58.8457H20.7594H9.06445V60.1426V61.4395H19.7285H30.3926V61.8447C30.3926 62.0717 30.1437 65.0707 29.8594 68.5236C29.5572 71.9604 29.3439 74.7973 29.3795 74.8297C29.415 74.8621 32.9342 74.6352 37.2353 74.3271L45.0379 73.776L56.1996 63.5955L67.3613 53.415V66.7566V80.082L35.3336 80.0496L3.28809 80.001L3.23477 52.0695L3.19922 24.1543H14.8408H26.4824V13.5361V2.91797H46.9219H67.3613V14.9465ZM23.6031 13.2443L23.5498 21.4795L14.5387 21.5281C9.56211 21.5443 5.50977 21.5119 5.50977 21.4471C5.50977 21.285 23.3365 5.02539 23.5143 5.02539C23.5854 5.02539 23.6209 8.72148 23.6031 13.2443ZM82.1844 21.9658C83.5529 22.29 84.5482 22.8412 85.6324 23.8949C86.9654 25.1756 87.4809 26.2293 87.5875 27.8342C87.6408 28.8555 87.5875 29.3904 87.3031 30.2658C86.5922 32.4057 87.0721 32.6326 81.4023 27.4775C78.6652 24.9811 76.4258 22.8898 76.4258 22.8412C76.4258 22.6791 78.1853 22.0631 79.0918 21.901C80.3182 21.6902 81.0469 21.7064 82.1844 21.9658ZM77.8476 40.1383C74.1863 43.4777 65.1219 51.6967 57.7103 58.408L44.2381 70.5824L39.1371 65.9299L34.0361 61.2773L54.1201 42.959L74.2041 24.6406L79.3584 29.3418L84.5127 34.043L77.8476 40.1383ZM37.1287 67.8266C40.559 70.9553 40.8967 71.3119 40.5057 71.393C39.8836 71.5064 32.6498 71.9766 32.5609 71.9117C32.4721 71.8145 33.1119 64.3574 33.2186 64.3574C33.2896 64.3574 35.0492 65.9137 37.1287 67.8266Z" fill="#e83c3c"/>
<path d="M32.4188 8.47832C32.3655 8.60801 32.3477 9.20781 32.3832 9.82383L32.4366 10.9424H47.0108H61.585V9.64551V8.34863L47.0463 8.3C34.9604 8.26758 32.5077 8.3 32.4188 8.47832Z" fill="#e83c3c"/>
<path d="M32.3477 21.5605V22.8574H47.0107H61.6738V21.5605V20.2637H47.0107H32.3477V21.5605Z" fill="#e83c3c"/>
<path d="M9.18887 72.0738C9.11777 72.1387 9.06445 72.7709 9.06445 73.468V74.7324H10.5752H12.1037L12.0504 73.3869L11.9971 72.0576L10.6641 72.009C9.91758 71.9928 9.25996 72.009 9.18887 72.0738Z" fill="#e83c3c"/>
<path d="M14.9297 73.3545V74.7324H16.3516H17.7734V73.3545V71.9766H16.3516H14.9297V73.3545Z" fill="#e83c3c"/>
<path d="M20.7949 73.3545V74.7324H22.2168H23.6387V73.3545V71.9766H22.2168H20.7949V73.3545Z" fill="#e83c3c"/>
<path d="M58.1547 46.7361L40.168 63.1416L41.1988 64.0818L42.2119 65.0059L60.252 48.5518L78.292 32.0977L77.3145 31.2061C76.7812 30.7197 76.3014 30.3145 76.248 30.3145C76.1947 30.3145 68.0545 37.7066 58.1547 46.7361Z" fill="#e83c3c"/>
</g>
<defs>
<clipPath id="clip0_140_1415">
<rect width="91" height="83" fill="white"/>
</clipPath>
</defs>
</svg>
