<svg width="38" height="31" viewBox="0 0 38 31" fill="none" xmlns="http://www.w3.org/2000/svg">
<g clip-path="url(#clip0_154_298)">
<path d="M33.8438 0.0786743C33.3836 0.205822 32.8789 0.484337 32.6637 0.73258C32.5449 0.859728 32.2703 1.29567 32.0625 1.69527L31.6691 2.42184H31.3648C30.9492 2.42789 30.4965 2.60348 30.2145 2.88199C30.0437 3.05153 28.3219 6.26051 24.2547 13.9863C21.1152 19.9623 18.4953 24.9634 18.4359 25.1027C18.3395 25.3207 18.3395 25.5205 18.4656 26.8586C18.5473 27.688 18.5992 28.3722 18.5918 28.3843C18.5844 28.3904 18.3914 28.1966 18.1613 27.9484C16.5434 26.1986 14.8141 25.3328 13.3742 25.5507C12.4168 25.69 11.8305 26.0714 10.6281 27.3187C9.35898 28.6265 8.63164 28.9716 7.63711 28.7416C7.23633 28.6447 6.30117 28.2209 6.25664 28.1119C6.2418 28.0816 6.45703 27.9242 6.73164 27.7607C9.18828 26.3076 10.4574 25.1996 10.9176 24.1037C11.4223 22.923 10.591 21.5789 8.98047 20.9552C8.43867 20.7494 8.40156 20.7433 7.5332 20.7373C6.50156 20.7373 5.92266 20.8584 5.12109 21.2338C4.52734 21.5183 3.54023 22.3115 3.19883 22.7838C2.15234 24.2369 2.30078 26.0775 3.56992 27.5912C3.68867 27.7304 3.78516 27.8636 3.78516 27.8939C3.78516 27.9484 3.18398 28.2693 1.55859 29.0806C0.311719 29.7043 0.0742188 29.8798 0.0742188 30.1886C0.0742188 30.4914 0.408203 30.7578 0.786719 30.7578C1.07617 30.7578 1.36563 30.6306 3.63672 29.456C4.23047 29.1533 4.75 28.8869 4.79453 28.8627C4.83906 28.8445 5.06914 28.9474 5.31406 29.0927C6.2418 29.6619 7.35508 30.0312 8.13437 30.0312C9.34414 30.0252 10.4945 29.4257 11.6598 28.2027C12.2832 27.5488 12.9734 26.9554 13.248 26.8404C13.582 26.6951 14.1684 26.7254 14.5914 26.9009C15.4672 27.2703 16.1871 27.8576 17.5898 29.3652C18.1984 30.013 18.7996 30.6306 18.9258 30.7396C19.2523 31.0121 19.5789 31.0484 19.9871 30.8668C20.1578 30.788 21.3602 30.0191 22.6441 29.1714L24.982 27.6154L30.3852 17.274C33.3539 11.5886 35.8031 6.92047 35.818 6.90836C35.8699 6.86598 36.2262 7.16266 36.3449 7.35036C36.5676 7.70153 36.4488 8.00426 35.7363 8.92457C34.3039 10.7773 33.673 12.2789 33.5098 14.2709C33.443 15.0095 33.5172 15.2033 33.8883 15.3486C34.2074 15.4697 34.5043 15.4273 34.7344 15.2275C34.8754 15.1064 34.9125 14.9611 35.0016 14.2527C35.1574 12.957 35.3059 12.4121 35.766 11.4857C36.1 10.8015 36.3895 10.3535 37.0203 9.5361C37.7402 8.60367 37.9184 8.24645 37.9258 7.77418C37.9258 7.05973 37.5547 6.44215 36.8719 6.02438C36.6566 5.89723 36.4711 5.78219 36.4562 5.78219C36.4488 5.77613 36.4934 5.59449 36.5676 5.37653C36.6715 5.04352 36.6789 4.94664 36.5973 4.70445C36.5379 4.55309 36.382 4.31696 36.241 4.1777L35.9813 3.93551L36.3746 3.16051C36.7383 2.45211 36.768 2.35524 36.7754 1.90719C36.7754 1.49547 36.7457 1.36832 36.5676 1.0777C36.3301 0.684143 35.8996 0.339025 35.4098 0.163439C35.009 0.0181274 34.2148 -0.0242558 33.8438 0.0786743ZM34.6898 1.51969C34.7863 1.56207 34.9125 1.665 34.957 1.75582C35.0312 1.90113 34.9941 2.01012 34.6898 2.61559L34.341 3.31793L33.8734 3.15446C33.6137 3.06969 33.3984 2.97281 33.3984 2.9486C33.3984 2.86988 33.918 1.85875 34.0367 1.70738C34.1258 1.5984 34.2816 1.50758 34.4895 1.45914C34.4969 1.45309 34.5859 1.48336 34.6898 1.51969ZM33.1387 4.5107C33.9551 4.80133 34.6527 5.06168 34.6898 5.0859C34.7566 5.14039 31.4688 11.5039 31.3723 11.5039C31.3352 11.5039 30.593 11.2556 29.7172 10.9468C28.6262 10.5714 28.1363 10.3656 28.1586 10.3172C28.5965 9.39078 31.5281 3.94156 31.5801 3.95973C31.6172 3.97184 32.3223 4.22008 33.1387 4.5107ZM29.2793 12.1093C30.0586 12.3818 30.7117 12.624 30.7488 12.6482C30.7785 12.6724 29.1977 15.7724 27.2309 19.5324C25.2715 23.2923 23.6387 26.4045 23.6164 26.4529C23.5273 26.6406 22.3176 26.4287 21.4344 26.0654C20.9816 25.8777 20.2617 25.4539 20.2617 25.3691C20.2617 25.3388 21.85 22.2933 23.7945 18.606C25.7391 14.9187 27.3719 11.8066 27.4238 11.7037C27.5129 11.5281 27.55 11.5099 27.6984 11.5584C27.7949 11.5886 28.5074 11.8369 29.2793 12.1093ZM8.38672 22.0693C9.52969 22.5476 9.86367 23.3287 9.26992 24.1279C8.71328 24.8847 7.85234 25.5568 6.07852 26.6406L5.08398 27.2461L4.95781 27.1129C4.46797 26.58 4.14141 25.9564 4.00781 25.2843C3.68125 23.5951 5.52187 21.8574 7.57031 21.9361C7.91172 21.9482 8.22344 22.0027 8.38672 22.0693ZM21.7312 27.4943C21.902 27.5306 22.043 27.5851 22.043 27.6093C22.043 27.6336 21.6867 27.8939 21.2488 28.1845L20.4473 28.7113L20.3953 28.1785C20.3656 27.8818 20.3285 27.4882 20.3137 27.2945L20.2766 26.9554L20.848 27.1855C21.1598 27.3127 21.5531 27.4519 21.7312 27.4943Z" fill="#e83c3c"/>
</g>
<defs>
<clipPath id="clip0_154_298">
<rect width="38" height="31" fill="white"/>
</clipPath>
</defs>
</svg>
