<svg width="37" height="32" viewBox="0 0 37 32" fill="none" xmlns="http://www.w3.org/2000/svg">
<path d="M3.61318 0.138315C3.16494 0.39161 2.97697 0.911532 3.16494 1.37813C3.25893 1.59143 5.63027 3.85775 5.94115 4.01773C6.41108 4.27102 7.06176 4.10438 7.35817 3.65778C7.52446 3.41115 7.54615 2.91789 7.40878 2.69793C7.2425 2.4313 4.86392 0.204972 4.63257 0.104987C4.32169 -0.0349917 3.89514 -0.0216603 3.61318 0.138315Z" fill="white"/>
<path d="M17.9135 0.151502C17.7328 0.264818 17.3713 0.778073 16.5327 2.10454C15.9109 3.09105 15.3542 3.92426 15.3036 3.95092C15.2458 3.97759 14.2625 4.18422 13.1058 4.41086C11.9562 4.63082 10.9224 4.85745 10.8067 4.91078C10.3657 5.12408 10.1633 5.69733 10.3729 6.13059C10.4452 6.27724 11.1682 7.07712 11.9779 7.91032L13.4456 9.41676L13.2142 11.4898C12.9612 13.7694 12.9684 13.8894 13.3516 14.2294C13.6263 14.4693 14.0095 14.5493 14.3999 14.4427C14.5589 14.396 15.5494 14.0094 16.5977 13.5761L18.4991 12.8029L20.3933 13.5761C21.4344 14.0027 22.4249 14.396 22.5912 14.4427C22.9671 14.5493 23.3575 14.4627 23.6467 14.216C24.0154 13.8961 24.0226 13.7628 23.7696 11.4898L23.5383 9.41676L25.0059 7.91032C25.8156 7.07712 26.5386 6.27724 26.6109 6.13059C26.835 5.67733 26.6109 5.10408 26.141 4.89745C26.0108 4.84412 24.9408 4.61082 23.7696 4.37753L21.6368 3.95759L21.3983 3.59764C21.2681 3.39768 20.7404 2.5778 20.2343 1.77126C19.2077 0.13817 19.0775 0.00485706 18.4919 0.00485706C18.2606 0.00485706 18.0798 0.0515165 17.9135 0.151502Z" fill="white"/>
<path d="M32.3369 0.104987C32.12 0.204972 29.7342 2.43797 29.5751 2.69793C29.4377 2.91789 29.4594 3.41115 29.6257 3.65778C29.9221 4.10438 30.5728 4.27102 31.0427 4.01773C31.3536 3.85775 33.725 1.59143 33.8189 1.37813C34.1732 0.518257 33.2189 -0.294953 32.3369 0.104987Z" fill="white"/>
<path d="M0.533312 6.09705C-0.189659 6.49699 -0.1752 7.45684 0.562231 7.80345C0.822501 7.92344 0.981555 7.93677 2.695 7.93677C4.40844 7.93677 4.56749 7.92344 4.82776 7.80345C5.1531 7.65014 5.40614 7.2702 5.40614 6.93025C5.40614 6.62363 5.12418 6.21036 4.8133 6.06372C4.56749 5.9504 4.36506 5.93707 2.68054 5.93707C0.84419 5.93707 0.808042 5.94374 0.533312 6.09705Z" fill="white"/>
<path d="M32.1488 6.08372C31.838 6.24369 31.5777 6.63696 31.5777 6.93025C31.5777 7.2702 31.8307 7.65014 32.1561 7.80345C32.4163 7.92344 32.5754 7.93677 34.2888 7.93677C36.0023 7.93677 36.1613 7.92344 36.4216 7.80345C36.7469 7.65014 37 7.2702 37 6.93692C37 6.60364 36.7469 6.22369 36.4216 6.07038C36.1613 5.94374 36.0023 5.93707 34.2744 5.93707C32.5103 5.93707 32.3947 5.9504 32.1488 6.08372Z" fill="white"/>
<path d="M5.91222 9.88998C5.54351 10.1033 3.25891 12.2763 3.17216 12.4963C2.81067 13.3561 3.74331 14.1627 4.63979 13.7694C4.86391 13.6694 7.24249 11.4497 7.40877 11.1765C7.45938 11.0965 7.49553 10.9032 7.50276 10.7365C7.50276 9.95664 6.60627 9.47671 5.91222 9.88998Z" fill="white"/>
<path d="M30.0017 9.86998C29.8715 9.94331 29.7052 10.0966 29.6257 10.2166C29.4594 10.4632 29.4377 10.9565 29.5751 11.1765C29.7414 11.4497 32.12 13.6694 32.3441 13.7694C33.2406 14.1627 34.1732 13.3561 33.8117 12.4963C33.725 12.2763 31.4404 10.1033 31.0717 9.88998C30.7535 9.69668 30.3198 9.69001 30.0017 9.86998Z" fill="white"/>
<path d="M15.0578 18.9289C14.6891 19.0822 14.3855 19.3621 14.2192 19.7021C14.1107 19.922 14.0818 20.142 14.0818 20.9152V21.8684H18.4919H22.9021V20.9419C22.9021 20.4286 22.8659 19.9287 22.8225 19.8221C22.6707 19.4488 22.3815 19.1422 22.0128 18.9688L21.6441 18.8022H18.4992C15.6001 18.8022 15.3253 18.8155 15.0578 18.9289Z" fill="white"/>
<path d="M9.56323 23.9943C9.19452 24.1476 8.89087 24.4276 8.72458 24.7675C8.61614 24.9875 8.58722 25.2074 8.58722 25.9806V26.9338H18.4919H28.3966V25.9806C28.3966 25.2074 28.3677 24.9875 28.2593 24.7675C28.093 24.4276 27.7893 24.1476 27.4206 23.9943C27.1459 23.8743 26.7193 23.8676 18.4919 23.8676C10.2645 23.8676 9.83796 23.8743 9.56323 23.9943Z" fill="white"/>
<path d="M4.1554 29.0271C3.38905 29.2804 2.92635 30.0536 3.09986 30.8002C3.20831 31.2534 3.51195 31.6134 3.96743 31.8267L4.3506 32H18.4847H32.626L33.002 31.84C33.8261 31.4867 34.1587 30.5669 33.7466 29.8003C33.5948 29.5204 33.2912 29.2271 32.9875 29.0804C32.7851 28.9738 31.6428 28.9671 18.6004 28.9538C6.77256 28.9405 4.38675 28.9538 4.1554 29.0271Z" fill="white"/>
</svg>
