<svg width="50" height="41" viewBox="0 0 50 41" fill="none" xmlns="http://www.w3.org/2000/svg">
<path d="M34.9375 12.3512V35.1745C34.9403 35.6037 34.8392 36.029 34.6402 36.4259C34.4412 36.8228 34.1482 37.1834 33.7782 37.4868C33.4081 37.7902 32.9684 38.0305 32.4844 38.1937C32.0003 38.3569 31.4817 38.4397 30.9583 38.4374H11.0833C10.56 38.4397 10.0413 38.3569 9.55731 38.1937C9.07329 38.0305 8.63353 37.7902 8.26348 37.4868C7.89343 37.1834 7.60043 36.8228 7.40144 36.4259C7.20244 36.029 7.1014 35.6037 7.10417 35.1745V12.3512H13.0625C13.5974 12.3506 14.1122 12.5189 14.5 12.821C14.8878 13.1231 15.1191 13.536 15.1458 13.9741V16.417C15.1458 17.0649 15.4597 17.6863 16.0184 18.1444C16.5771 18.6026 17.3349 18.8599 18.125 18.8599C18.9151 18.8599 19.6729 18.6026 20.2316 18.1444C20.7903 17.6863 21.1042 17.0649 21.1042 16.417V13.9741C21.1309 13.536 21.3622 13.1231 21.75 12.821C22.1378 12.5189 22.6525 12.3506 23.1875 12.3512H34.9375Z" stroke="#d94343" stroke-width="3" stroke-miterlimit="10"/>
<path d="M34.9375 15.6142H40.8958C41.937 15.6094 42.9389 15.9395 43.6867 16.5335C44.4345 17.1275 44.8686 17.9382 44.8958 18.7917V25.3175C44.8958 25.746 44.7929 26.1703 44.5929 26.5662C44.393 26.9621 44.0999 27.3218 43.7304 27.6248C43.3609 27.9277 42.9222 28.1681 42.4394 28.3321C41.9567 28.496 41.4392 28.5804 40.9167 28.5804H34.9375V15.6142Z" stroke="#d94343" stroke-width="3" stroke-miterlimit="10"/>
<path d="M17.0417 18.8771V33.5517" stroke="#d94343" stroke-width="3" stroke-miterlimit="10"/>
<path d="M25 18.8771V33.5517" stroke="#d94343" stroke-width="3" stroke-miterlimit="10"/>
<path d="M23.0208 12.3512H33.9583C34.7081 12.2998 35.407 12.0193 35.9164 11.5652C36.4258 11.1112 36.7085 10.5167 36.7085 9.89974C36.7085 9.28276 36.4258 8.68831 35.9164 8.23425C35.407 7.78018 34.7081 7.49965 33.9583 7.44828H30.9583C30.9534 6.5988 30.5468 5.78401 29.8241 5.17542C29.1013 4.56682 28.1188 4.2119 27.0833 4.18536C26.626 4.19133 26.1739 4.26663 25.75 4.40745C25.147 3.75719 24.3528 3.24283 23.4417 2.9124C22.5306 2.58197 21.5322 2.44625 20.5398 2.5179C19.5474 2.58955 18.5933 2.86625 17.7667 3.32215C16.94 3.77804 16.2677 4.39828 15.8125 5.12495C15.4521 4.82885 15.0231 4.59474 14.5509 4.43633C14.0787 4.27792 13.5727 4.19841 13.0625 4.20245C12.0124 4.20689 11.0066 4.54975 10.2621 5.15701C9.51765 5.76428 9.09426 6.58726 9.08333 7.44828H8.10417C7.69059 7.41995 7.27434 7.46229 6.88174 7.57262C6.48914 7.68296 6.12873 7.85889 5.8233 8.08929C5.51786 8.31969 5.27405 8.59956 5.10727 8.91118C4.9405 9.22281 4.85439 9.55943 4.85439 9.89974C4.85439 10.2401 4.9405 10.5767 5.10727 10.8883C5.27405 11.1999 5.51786 11.4798 5.8233 11.7102C6.12873 11.9406 6.48914 12.1165 6.88174 12.2269C7.27434 12.3372 7.69059 12.3795 8.10417 12.3512H13.0625" stroke="#d94343" stroke-width="3" stroke-miterlimit="10"/>
</svg>
