<svg width="52" height="42" viewBox="0 0 52 42" fill="none" xmlns="http://www.w3.org/2000/svg">
<g clip-path="url(#clip0_127_335)">
<path fill-rule="evenodd" clip-rule="evenodd" d="M2.28516 25.1665L2.264 25.1596C2.2767 25.1494 2.28939 25.1391 2.29786 25.1323C2.3571 24.9921 2.47136 24.8759 2.61524 24.7939L26.4316 8.08346C26.5332 7.8818 26.6559 7.68014 26.7956 7.48531C27.7223 6.18649 29.2754 5.35934 30.9681 5.10641C29.9525 3.66402 28.5433 2.45065 26.9014 1.74313L26.8337 1.71578C26.2835 1.48336 26.0677 0.933067 26.3597 0.485314C26.6475 0.0409776 27.3288 -0.133339 27.8831 0.102501L27.9551 0.133263L27.9593 0.129845C28.446 0.331505 28.9157 0.570763 29.3643 0.840782C31.1247 1.90719 32.5719 3.44527 33.5495 5.17135C34.0869 5.28072 34.6117 5.45162 35.1152 5.68404C36.207 6.19332 37.028 6.9316 37.54 7.78268V7.78609L37.5654 7.83395C37.959 8.53121 38.1494 9.29342 38.1156 10.0625C41.6956 11.539 44.6156 13.7368 46.8711 16.56C46.9557 16.6284 47.0277 16.7138 47.07 16.813L47.0742 16.8198L47.0996 16.8505H47.0911C49.1605 20.5283 50.0661 24.0795 50.028 27.5214C49.9941 30.9941 48.9997 34.3471 47.2816 37.6113C47.1589 37.8437 46.8923 37.9941 46.6003 38.018L2.89454 41.9965C2.43327 42.0376 2.01856 41.7675 1.96778 41.395C1.96778 41.3711 1.96355 41.3471 1.96355 41.3232C1.96355 32.0605 2.09896 29.7226 2.25131 25.3305C2.25131 25.2793 2.264 25.2212 2.28516 25.1665ZM28.3105 7.96383L28.3063 7.96725L28.3021 7.97408L28.2979 7.9775L28.2936 7.98092L28.2894 7.98775L28.2852 7.99117L28.2809 7.99801L28.2767 8.00143L28.2725 8.00826L28.2682 8.0151L28.264 8.01852L28.2598 8.02535L28.2555 8.02877L28.2513 8.03219L28.2471 8.03902L28.2428 8.04586L28.2386 8.04928L28.2344 8.05611L28.2301 8.06295L28.2259 8.06979L28.2217 8.0732L28.2175 8.08004V8.08346L28.2132 8.08688L28.209 8.09371L28.2048 8.10055L28.2005 8.10738L28.1963 8.1108L28.1921 8.11764L28.1878 8.12447L28.1836 8.13131L28.1667 8.15182L28.1582 8.16549L28.154 8.17233L28.1413 8.19283L28.137 8.19967L28.1286 8.21334L28.1159 8.23385L28.1032 8.25436L28.0947 8.27145L28.0905 8.27486L28.0778 8.29537L28.0736 8.30563L28.0651 8.31588L28.0524 8.33639V8.33981L28.0397 8.3569L28.027 8.37399V8.3774L28.0143 8.39791L28.0059 8.40816L28.0016 8.41842L27.9889 8.43893L27.9847 8.44576L27.9762 8.46285L27.9466 8.52096L27.9424 8.52779L27.9297 8.5483L27.9255 8.55514L27.917 8.56881L27.9043 8.58932L27.8958 8.60983L27.8874 8.6235L27.8831 8.63033L27.8747 8.65084L27.8704 8.66109L27.8535 8.69527V8.69869L27.8451 8.7192L27.8281 8.76363L27.8239 8.77389L27.8197 8.78414L27.8112 8.80465V8.80807L27.8027 8.82516L27.7943 8.84566V8.84908L27.7773 8.87984L27.7731 8.89352L27.7689 8.90377L27.7604 8.92428V8.93111L27.7562 8.9482L27.7477 8.96871L27.7393 8.98922L27.735 9.00289L27.7266 9.03365V9.04049L27.7223 9.05416L27.7139 9.07467L27.7054 9.09518L27.7012 9.11227V9.1191L27.6969 9.13961L27.6927 9.14986L27.6885 9.16354L27.6842 9.18404V9.18746L27.68 9.20797L27.6673 9.22848V9.2319L27.6631 9.2524L27.6589 9.26266L27.6546 9.27291L27.6504 9.29342V9.29684L27.6462 9.31393L27.6419 9.33443V9.33785L27.6377 9.35836V9.37203V9.38229L27.6335 9.40279V9.40963L27.6292 9.42672L27.625 9.44723L27.6208 9.47115V9.48483V9.49166L27.6165 9.51559C27.57 9.84713 27.5785 10.1821 27.6462 10.5068C27.8704 11.5219 28.6237 12.4516 29.8171 13.0088C31.9583 14.0068 34.6921 13.4155 35.9277 11.686C36.0251 11.5493 36.1097 11.4091 36.1859 11.269L36.1986 11.2417L36.2028 11.2348L36.2113 11.2143L36.224 11.187L36.2282 11.1836L36.2409 11.1596L36.2536 11.1323L36.2663 11.1049L36.279 11.081V11.0776L36.2917 11.0503L36.3001 11.0297L36.3044 11.0229L36.3171 10.9956L36.3255 10.9785L36.3298 10.9648L36.3424 10.9375L36.3467 10.9238L36.3509 10.9067L36.3636 10.8794L36.3678 10.8725L36.3763 10.852L36.3848 10.8247V10.8213L36.3932 10.7973L36.4017 10.77L36.4102 10.7426L36.4186 10.7187V10.7153L36.4271 10.688L36.4313 10.6674V10.6606L36.4398 10.6333L36.444 10.6162L36.4482 10.6025L36.4567 10.5752L36.4609 10.5649L36.4652 10.5478L36.4736 10.5205V10.5136L36.4779 10.4931L36.4821 10.4658V10.4624L36.4863 10.4384L36.4906 10.4111L36.4948 10.3838L36.499 10.3598V10.3564L36.5033 10.3291L36.5075 10.3086V10.2983L36.5117 10.271V10.2573V10.2436L36.516 10.2163V10.206V10.1889L36.5202 10.1616V10.1547V10.1342V10.1069V10.083V10.0556V10.0283V10.0009V9.97701V9.97018V9.94283V9.92233V9.91207V9.88473V9.87106V9.85738V9.83004V9.81979V9.77193V9.7651V9.74459V9.71725V9.71383V9.68649L36.516 9.65914L36.5117 9.6318V9.60787V9.60104L36.5075 9.57369L36.5033 9.55318V9.54293L36.499 9.51559V9.50191V9.48824L36.4948 9.4609C36.4398 9.08834 36.3128 8.72604 36.1182 8.38424L36.097 8.35006C35.7161 7.72457 35.1152 7.1777 34.3112 6.80514L34.2731 6.78805L34.235 6.77096L34.2096 6.7607L34.1927 6.75387L34.1546 6.73678L34.1165 6.71969L34.1081 6.71627L34.0785 6.7026L34.0404 6.68893L34.0065 6.67525L34.0023 6.67184L33.9219 6.64108L33.9007 6.63424L33.8796 6.6274L33.8415 6.61373L33.8034 6.60006H33.7992L33.7653 6.58981L33.7272 6.57613L33.6976 6.56588L33.6849 6.56246L33.6426 6.54879L33.6045 6.53512L33.5918 6.5317L33.5664 6.52486L33.5241 6.51461L33.486 6.50436L33.4437 6.4941L33.4014 6.48385L33.376 6.47701L33.3591 6.47359L33.3167 6.46334L33.2786 6.44967L33.2702 6.44625L33.2363 6.43941L33.194 6.42916L33.1602 6.42233H33.1517L33.1094 6.41549L33.0671 6.40865L33.0501 6.40524L33.029 6.40182L32.9867 6.39498L32.9443 6.38815H32.9401L32.902 6.38131L32.8597 6.37447L32.8301 6.37106H32.8174L32.7751 6.36422L32.7327 6.35738H32.7201L32.6481 6.35055L32.61 6.34713H32.6058L32.5635 6.34371L32.5212 6.34029H32.4958H32.4788L32.4365 6.33688L32.3942 6.33346H32.3857L32.3519 6.33004L32.2757 6.32662H32.2673H32.2249H32.1826H32.1657H32.1403H32.098H32.0557H32.0176H31.9753H31.9456H31.9329H31.8906H31.8483H31.8356H31.806L31.7637 6.33004L31.7552 6.3232H31.751L31.7087 6.32662C30.3672 6.41549 29.0934 6.98971 28.3105 7.96383ZM26.0339 10.5888L5.82715 24.2299L44.4167 16.4336C42.487 14.9467 40.1595 13.289 37.5612 11.9492C37.485 12.0825 37.4004 12.2124 37.3115 12.3388C35.6315 14.687 31.916 15.4936 29.0088 14.1367C27.388 13.3813 26.3639 12.1167 26.0592 10.7392L26.0339 10.5888ZM34.4635 11.5664C34.6328 11.4741 34.6751 11.2895 34.5651 11.1528C34.4551 11.0161 34.2223 10.9785 34.0573 11.0708C33.6383 11.2963 33.2067 11.4672 32.7666 11.58C32.3265 11.6928 31.8737 11.7544 31.404 11.7646C31.2008 11.768 31.04 11.9013 31.0443 12.0654C31.0485 12.2295 31.2135 12.3593 31.4167 12.3559C31.9541 12.3457 32.4788 12.2773 32.9867 12.144C33.4945 12.0141 33.9896 11.8193 34.4635 11.5664ZM4.02865 28.8203C4.32487 28.9399 4.6211 29.0698 4.91309 29.1963L4.92155 29.1997C8.83171 30.9121 10.7995 29.374 12.8392 27.7846C15.1159 26.0073 17.4772 24.1616 22.5469 26.3833C23.444 26.7763 24.3369 27.166 25.3568 27.1796C26.3766 27.1933 27.5531 26.8379 29.0469 25.7441L29.1569 25.6381C33.5114 22.0527 35.9701 23.1294 38.4753 24.2231C42.3896 25.9389 44.3574 24.4008 46.3929 22.8081C46.7145 22.5551 47.0404 22.3022 47.3704 22.0595C46.96 20.7026 46.3844 19.3252 45.6312 17.9272C21.1758 22.6338 28.3698 21.2529 4.09213 25.9218C4.07943 26.1987 4.05827 27.3164 4.02865 28.8203ZM47.7894 23.7343C47.6201 23.8642 47.4551 23.9941 47.2858 24.1274C45.0091 25.9047 42.6478 27.7505 37.5781 25.5288C36.681 25.1357 35.7881 24.7461 34.7682 24.7324C33.7484 24.7187 32.5719 25.0742 31.0824 26.1645L30.9681 26.2739C26.6136 29.8559 24.155 28.7827 21.6497 27.6855L21.6413 27.6821C17.7311 25.9731 15.7633 27.5078 13.7279 29.0971C11.4512 30.8779 9.08985 32.7202 4.01596 30.4985L3.9948 30.4848L3.90593 35.3418C4.39681 35.5161 4.87077 35.7246 5.34473 35.9331L5.35319 35.9365C9.26758 37.6523 11.2354 36.1142 13.2708 34.5214C15.5475 32.7441 17.9089 30.8984 22.9785 33.1201C23.8757 33.5131 24.7686 33.9028 25.7926 33.9165C26.8125 33.9301 27.9889 33.5747 29.4827 32.4809L29.5885 32.3818C33.9473 28.7929 36.4059 29.8696 38.9111 30.9668C42.8255 32.6792 44.7933 31.1445 46.8288 29.5517C47.252 29.2202 47.6794 28.8886 48.1195 28.5844C48.1449 28.2358 48.1576 27.8838 48.1618 27.5317C48.1745 26.2807 48.056 25.0161 47.7894 23.7343ZM47.8317 30.7856L47.7301 30.8642C45.4534 32.6416 43.0921 34.4873 38.0225 32.2656C37.1253 31.8725 36.2324 31.4829 35.2126 31.4692C34.1927 31.4555 33.0163 31.811 31.5225 32.9047L31.4124 33.0107C27.0579 36.5962 24.5993 35.5195 22.0983 34.4257C18.1797 32.7099 16.2119 34.248 14.1764 35.8374C11.8997 37.6147 9.53842 39.4604 4.46452 37.2387L4.45606 37.2353C4.26563 37.1499 4.07097 37.0678 3.87631 36.9858C3.85092 38.6572 3.82976 39.9868 3.82976 40.4687L45.7539 36.6611C46.7357 34.7299 47.4424 32.7749 47.8317 30.7856Z" fill="#d94343"/>
</g>
<defs>
<clipPath id="clip0_127_335">
<rect width="52" height="42" fill="white"/>
</clipPath>
</defs>
</svg>
