<svg width="49" height="47" viewBox="0 0 49 47" fill="none" xmlns="http://www.w3.org/2000/svg">
<g clip-path="url(#clip0_130_367)">
<path d="M26.0978 34.9077H22.9021V47H26.0978V34.9077Z" fill="#d94343"/>
<path d="M48.6246 32.1766C48.6246 32.1766 42.6396 28.862 35.2567 28.862C34.8607 28.862 34.4691 28.872 34.082 28.8901C34.7003 28.4083 35.3109 27.8859 35.9013 27.3196C41.1218 22.3122 42.7971 15.8004 42.7971 15.8004C42.7971 15.8004 36.0083 17.4074 30.7879 22.4148C29.8572 23.3075 29.0398 24.248 28.3238 25.1908C28.7113 23.0761 28.9663 20.7668 28.9663 18.3477C28.9661 8.21454 24.4999 0 24.4999 0C24.4999 0 20.0337 8.21454 20.0337 18.3477C20.0337 20.7668 20.2887 23.076 20.6762 25.1908C19.9602 24.248 19.1428 23.3074 18.2121 22.4148C12.9916 17.4074 6.20281 15.8004 6.20281 15.8004C6.20281 15.8004 7.87809 22.3122 13.0986 27.3195C13.689 27.8857 14.2995 28.4081 14.9179 28.89C14.5307 28.872 14.1392 28.8619 13.7433 28.8619C6.36034 28.8619 0.375351 32.1766 0.375351 32.1766C0.375351 32.1766 6.36034 35.4912 13.7433 35.4912C15.3823 35.4912 16.9519 35.3273 18.403 35.073C18.3453 35.1263 18.2879 35.18 18.2311 35.2347C14.7646 38.5598 14.0578 43.273 14.0578 43.273C14.0578 43.273 18.9716 42.5952 22.4382 39.2701C23.2778 38.4647 23.9551 37.578 24.5001 36.6965C25.045 37.578 25.7223 38.4647 26.5619 39.2701C30.0286 42.5952 34.9423 43.273 34.9423 43.273C34.9423 43.273 34.2355 38.5598 30.7689 35.2348C30.7121 35.1802 30.6547 35.1264 30.5971 35.0731C32.0481 35.3273 33.6177 35.4912 35.2567 35.4912C42.6396 35.4912 48.6246 32.1766 48.6246 32.1766Z" fill="#d94343"/>
<path d="M48.6246 32.1766C48.6246 32.1766 42.6396 28.862 35.2567 28.862C34.8607 28.862 34.4691 28.872 34.0819 28.8901C34.7002 28.4083 35.3108 27.8859 35.9012 27.3196C41.1217 22.3121 42.797 15.8004 42.797 15.8004C42.797 15.8004 36.0083 17.4073 30.7877 22.4148C29.857 23.3075 29.0396 24.248 28.3236 25.1908C28.7111 23.076 28.9661 20.7667 28.9661 18.3477C28.9661 8.21453 24.4999 0 24.4999 0V36.6964C25.0448 37.5779 25.7222 38.4646 26.5617 39.27C30.0283 42.5951 34.9421 43.273 34.9421 43.273C34.9421 43.273 34.2353 38.5597 30.7688 35.2348C30.7118 35.1802 30.6545 35.1264 30.5967 35.0732C32.0477 35.3274 33.6174 35.4913 35.2564 35.4913C42.6396 35.4912 48.6246 32.1766 48.6246 32.1766Z" fill="#d94343"/>
</g>
<defs>
<clipPath id="clip0_130_367">
<rect width="49" height="47" fill="white"/>
</clipPath>
</defs>
</svg>
