<svg width="44" height="41" viewBox="0 0 44 41" fill="none" xmlns="http://www.w3.org/2000/svg">
<g clip-path="url(#clip0_132_522)">
<path opacity="0.938" fill-rule="evenodd" clip-rule="evenodd" d="M17.3164 -0.0400391C17.5742 -0.0400391 17.832 -0.0400391 18.0898 -0.0400391C18.434 0.122508 18.6059 0.389436 18.6055 0.760742C18.4894 1.16407 18.3031 1.53776 18.0469 1.88184C17.8459 2.46477 17.9031 3.02532 18.2187 3.56348C20.4668 5.91613 20.4525 8.25173 18.1758 10.5703C17.3887 10.8288 16.9303 10.5752 16.8008 9.80957C16.8234 9.60713 16.895 9.42031 17.0156 9.24902C18.4685 7.75781 18.4399 6.28971 16.9297 4.84473C15.8411 3.32324 15.8411 1.80176 16.9297 0.280273C17.0497 0.154531 17.1786 0.0477596 17.3164 -0.0400391Z" fill="#d94343"/>
<path opacity="0.94" fill-rule="evenodd" clip-rule="evenodd" d="M12.6758 1.72173C13.5809 1.69762 13.939 2.09801 13.75 2.9229C12.9176 4.07837 13.0322 5.14608 14.0938 6.12603C15.2772 7.74232 15.3918 9.42397 14.4375 11.1709C14.1408 11.581 13.8114 11.968 13.4492 12.3321C12.6789 12.6273 12.2205 12.4005 12.0742 11.6514C12.0713 11.4165 12.1429 11.203 12.2891 11.0108C13.3627 9.96954 13.5632 8.79511 12.8906 7.48736C12.181 6.80547 11.694 6.00468 11.4297 5.08501C11.229 3.96459 11.4868 2.95027 12.2031 2.04204C12.3589 1.92376 12.5164 1.81699 12.6758 1.72173Z" fill="#d94343"/>
<path opacity="0.938" fill-rule="evenodd" clip-rule="evenodd" d="M22.2148 1.72173C23.1199 1.69762 23.478 2.09801 23.2891 2.9229C22.693 3.6594 22.5784 4.46018 22.9453 5.32525C23.7805 6.10745 24.3249 7.0417 24.5781 8.12798C24.8157 9.78616 24.2859 11.1875 22.9883 12.3321C22.2711 12.6118 21.7842 12.4116 21.5273 11.7315C21.5828 11.513 21.6544 11.2995 21.7422 11.0909C22.8297 10.1067 23.0875 8.95887 22.5156 7.64751C22.0523 7.08222 21.6227 6.49498 21.2266 5.88579C20.6904 4.51608 20.8623 3.23483 21.7422 2.04204C21.8711 1.88439 22.0286 1.77762 22.2148 1.72173Z" fill="#d94343"/>
<path opacity="0.97" fill-rule="evenodd" clip-rule="evenodd" d="M43.957 16.9366C43.957 19.3122 43.957 21.6878 43.957 24.0635C43.3683 27.2158 41.449 29.3378 38.1992 30.4297C37.5793 30.5883 36.9491 30.695 36.3086 30.75C35.2761 30.7634 34.2449 30.8034 33.2148 30.8701C32.1888 32.3741 30.9284 33.6954 29.4336 34.834C32.1836 34.8607 34.9336 34.8874 37.6836 34.9141C37.8411 35.0075 37.97 35.1277 38.0703 35.2744C38.2283 37.4493 37.3259 39.1176 35.3633 40.2793C34.7291 40.5961 34.0702 40.823 33.3867 40.96C23.819 40.96 14.2513 40.96 4.68359 40.96C2.10547 40.4261 0.529948 38.958 -0.0429688 36.5557C-0.0429688 36.1286 -0.0429688 35.7015 -0.0429688 35.2744C0.0835031 35.1436 0.226732 35.0235 0.386719 34.9141C2.44922 34.8874 4.51172 34.8607 6.57422 34.834C2.73358 31.8275 0.527845 27.9971 -0.0429688 23.3428C-0.0429688 20.3799 -0.0429688 17.417 -0.0429688 14.4541C0.0839946 14.2694 0.255869 14.1226 0.472656 14.0137C2.97225 13.935 5.46444 13.9616 7.94922 14.0938C8.36996 14.526 8.39861 14.9798 8.03516 15.4551C7.89877 15.5241 7.75555 15.5775 7.60547 15.6153C5.62911 15.6553 3.65255 15.6687 1.67578 15.6553C1.66146 17.6842 1.67578 19.7128 1.71875 21.7412C1.94218 27.4406 4.62057 31.8048 9.75391 34.834C15.2539 34.8874 20.7539 34.8874 26.2539 34.834C31.3872 31.8048 34.0656 27.4406 34.2891 21.7412C34.332 19.7128 34.3464 17.6842 34.332 15.6553C28.2828 15.6945 22.2385 15.6545 16.1992 15.5352C15.91 15.372 15.7667 15.1317 15.7695 14.8145C15.7436 14.4356 15.9155 14.1687 16.2852 14.0137C22.7019 13.9603 29.1185 13.9603 35.5352 14.0137C35.75 14.1072 35.9075 14.2539 36.0078 14.4541C36.0508 15.1209 36.065 15.7882 36.0508 16.4561C38.4858 16.4427 40.9208 16.4561 43.3555 16.4961C43.6237 16.5736 43.8242 16.7203 43.957 16.9366ZM36.0508 18.1377C38.1133 18.1377 40.1758 18.1377 42.2383 18.1377C42.2709 20.0616 42.2279 21.9835 42.1094 23.9033C41.2779 27.275 39.0006 29.01 35.2773 29.1084C34.9622 29.0818 34.6472 29.055 34.332 29.0283C34.5819 28.5632 34.7824 28.0827 34.9336 27.5869C37.1185 27.7368 38.7943 26.9627 39.9609 25.2647C40.1839 24.8282 40.3558 24.3744 40.4766 23.9033C40.5599 22.5881 40.5312 21.2801 40.3906 19.9795C40.2549 19.8561 40.0973 19.7627 39.918 19.6992C38.6292 19.6592 37.3402 19.6458 36.0508 19.6592C36.0508 19.1521 36.0508 18.6449 36.0508 18.1377ZM36.0508 21.3408C36.9675 21.3408 37.8841 21.3408 38.8008 21.3408C38.8218 22.1182 38.7788 22.8923 38.6719 23.6631C38.1911 25.1139 37.1455 25.8346 35.5352 25.8252C35.9522 24.3563 36.1241 22.8615 36.0508 21.3408ZM1.84766 36.4756C13.306 36.4756 24.7644 36.4756 36.2227 36.4756C35.7772 37.9184 34.7746 38.8393 33.2148 39.2383C28.4901 39.3302 23.7635 39.3702 19.0352 39.3584C14.3068 39.3702 9.58023 39.3302 4.85547 39.2383C3.29575 38.8393 2.29314 37.9184 1.84766 36.4756Z" fill="#d94343"/>
<path opacity="0.888" fill-rule="evenodd" clip-rule="evenodd" d="M11.9883 13.9737C12.6732 13.9048 13.0743 14.1851 13.1914 14.8145C13.0085 15.5136 12.5502 15.7538 11.8164 15.5352C11.4108 15.2711 11.2819 14.9108 11.4297 14.4542C11.5581 14.2288 11.7442 14.0687 11.9883 13.9737Z" fill="#d94343"/>
<path opacity="0.937" fill-rule="evenodd" clip-rule="evenodd" d="M30.6367 20.9404C31.1541 20.8379 31.5694 20.9714 31.8828 21.3408C32.0051 25.1553 30.6158 28.3984 27.7148 31.0703C26.9907 31.2772 26.5323 31.0369 26.3398 30.3496C26.3895 30.2045 26.4325 30.0577 26.4688 29.9091C28.9175 27.5242 30.178 24.6681 30.25 21.3408C30.3674 21.1917 30.4963 21.0582 30.6367 20.9404Z" fill="#d94343"/>
<path opacity="0.896" fill-rule="evenodd" clip-rule="evenodd" d="M24.1055 31.5107C25.0651 31.4564 25.4518 31.8568 25.2656 32.7119C24.7214 33.3525 24.1771 33.3525 23.6328 32.7119C23.4684 32.189 23.6259 31.7886 24.1055 31.5107Z" fill="#d94343"/>
</g>
<defs>
<clipPath id="clip0_132_522">
<rect width="44" height="41" fill="white"/>
</clipPath>
</defs>
</svg>
