<svg width="46" height="42" viewBox="0 0 46 42" fill="none" xmlns="http://www.w3.org/2000/svg">
<g clip-path="url(#clip0_132_600)">
<path d="M3.09941 0.114883C2.34472 0.287148 1.77871 0.582462 1.2037 1.10746C0.619721 1.64066 0.260345 2.22309 0.0986267 2.93676C-0.0451233 3.55199 -0.0451233 31.3934 0.0986267 32.0086C0.41308 33.3539 1.58105 34.4778 3.00956 34.8223C3.35996 34.9043 3.95292 34.9453 4.77949 34.9453H6.01933V38.0379C6.01933 40.9664 6.02831 41.1551 6.19902 41.4012C6.54042 41.9098 7.23222 42.1231 7.81621 41.8934C7.98691 41.8278 9.96347 40.2364 12.2096 38.3578L16.2795 34.9453H29.3697C40.8697 34.9453 42.5229 34.9289 42.99 34.8223C44.4186 34.4778 45.5865 33.3539 45.901 32.0086C46.0447 31.3852 46.0447 3.55199 45.901 2.93676C45.5686 1.52582 44.3197 0.385586 42.7834 0.0902748C42.0557 -0.0491791 3.71035 -0.0245705 3.09941 0.114883ZM42.5857 2.62504C42.8193 2.73168 43.008 2.90395 43.1248 3.11723C43.3045 3.43715 43.3045 3.5684 43.3045 17.4809C43.3045 33.0258 43.3494 31.861 42.7295 32.2629L42.451 32.4434L28.8846 32.4844C16.576 32.5254 15.2912 32.5418 15.0846 32.6567C14.9678 32.7305 13.4943 33.9446 11.8143 35.3473L8.75957 37.8985L8.71464 35.6672C8.66972 33.6164 8.65175 33.4032 8.49003 33.1489C8.09472 32.5418 8.0498 32.5336 5.67792 32.4844C3.65644 32.4434 3.53066 32.4352 3.27011 32.2629C2.65019 31.861 2.69511 33.0258 2.69511 17.4563C2.7041 4.08519 2.71308 3.38793 2.86581 3.12543C2.95566 2.97777 3.18027 2.76449 3.37792 2.65785L3.72831 2.46098H22.9818C42.1006 2.46098 42.2353 2.46098 42.5857 2.62504Z" fill="#d94343"/>
<path d="M27.7168 10.3195C26.5488 10.6887 25.8301 11.3367 25.5067 12.3211C25.1742 13.3219 25.3809 14.3309 26.0727 15.1266L26.3602 15.4465L26.1356 15.5695C25.6414 15.8485 24.6531 16.8738 24.3746 17.3906C23.3774 19.2445 23.7008 21.1395 25.2461 22.5668C25.911 23.182 26.4949 23.4856 27.3754 23.6742C28.8488 23.9942 30.7715 23.4363 32.1102 22.3125L32.5055 21.9762L33.1524 22.6735C33.5117 23.059 33.943 23.4281 34.1227 23.5102C34.9582 23.8711 35.9824 23.2559 35.9824 22.4027C35.9824 21.9516 35.8656 21.7711 34.8863 20.7293L34.2305 20.0402L34.9672 19.0477C35.5692 18.2274 35.7039 17.9895 35.7309 17.6613C35.7668 17.3414 35.7309 17.2102 35.5602 16.9887C35.2188 16.5293 34.9223 16.3735 34.4102 16.3817C33.8172 16.3899 33.4938 16.6195 32.9188 17.4235C32.6762 17.768 32.4516 18.0469 32.4156 18.0469C32.3887 18.0469 31.9395 17.5957 31.4184 17.0461L30.484 16.0535L30.9422 15.709C31.5352 15.266 32.0293 14.6754 32.2629 14.1094C32.4156 13.7485 32.4426 13.527 32.4156 13.002C32.3348 11.7059 31.4723 10.7461 29.9988 10.3277C29.307 10.1309 28.3188 10.1309 27.7168 10.3195ZM29.5047 12.8051C29.8461 13.0512 29.8102 13.3137 29.3699 13.6992C29.0465 13.9781 28.6871 14.175 28.6242 14.093C28.6153 14.0848 28.4805 13.9289 28.3188 13.7567C27.7887 13.1824 28.0672 12.6328 28.8848 12.6328C29.1363 12.6328 29.343 12.6902 29.5047 12.8051ZM29.4688 18.7606L30.7625 20.1305L30.3582 20.4504C29.343 21.2707 28.175 21.5168 27.4203 21.0656C26.441 20.4668 26.2344 19.2445 26.9442 18.2602C27.1688 17.9402 27.8965 17.3988 28.0852 17.3906C28.1391 17.3906 28.768 18.0059 29.4688 18.7606Z" fill="#d94343"/>
<path d="M14.1504 11.2301C13.5934 11.4597 13.5125 11.6074 13.0274 13.2644L12.9285 13.6172H12.4344C11.5359 13.6172 10.9789 14.0191 10.8891 14.7246C10.8352 15.2086 11.1316 15.6926 11.6348 15.914C11.8414 16.0043 12.0481 16.0781 12.093 16.0781C12.1469 16.0781 12.0391 16.5785 11.8684 17.1855L11.5449 18.2929H11.1856C10.6824 18.3011 10.0984 18.5554 9.88282 18.8836C9.60431 19.2855 9.6672 20.0074 10.0086 20.3355C10.1524 20.4668 10.377 20.6226 10.5207 20.6719C10.6645 20.7293 10.7813 20.7867 10.7813 20.8031C10.7813 20.8195 10.7004 21.1066 10.6016 21.4429C10.377 22.173 10.4488 22.5586 10.8441 22.9031C11.3563 23.3297 11.8324 23.4117 12.3984 23.1492C12.8477 22.9441 13.0453 22.616 13.3328 21.6234L13.5934 20.7539H14.968C16.5133 20.7539 16.4414 20.7129 16.2168 21.3773C16.1449 21.5988 16.082 21.9269 16.082 22.1156C16.082 22.9441 17.1602 23.5594 17.9508 23.182C18.427 22.9523 18.6156 22.6734 18.9031 21.7219L19.1906 20.7949L19.9453 20.7539C20.7539 20.7129 20.9426 20.6472 21.284 20.3109C21.5984 20.0074 21.6524 19.2691 21.3828 18.8836C21.1852 18.5883 20.5922 18.3011 20.1879 18.2929C19.9902 18.2929 19.9453 18.2601 19.9813 18.1453C19.9992 18.0715 20.125 17.6367 20.2598 17.1855C20.3856 16.7344 20.5113 16.2996 20.5383 16.2176C20.5742 16.1027 20.691 16.0781 21.1402 16.0781C21.8949 16.0781 22.3891 15.8484 22.6316 15.389C22.8652 14.9543 22.8652 14.6836 22.6496 14.2816C22.443 13.9207 22.1195 13.7074 21.6883 13.6418C21.3379 13.5926 21.3379 13.5926 21.5266 12.9281C21.7781 12.034 21.5356 11.4515 20.7988 11.1972C20.2777 11.0086 19.8465 11.0906 19.4332 11.4351C19.1637 11.6566 19.0738 11.8371 18.8223 12.6328L18.5348 13.5761L17.1242 13.6008C16.3516 13.609 15.7227 13.609 15.7227 13.6008C15.7227 13.5844 15.8035 13.3136 15.9024 13.0019C16.118 12.3129 16.0731 11.9191 15.7406 11.55C15.4891 11.2793 15.0488 11.0742 14.7164 11.0742C14.5996 11.0742 14.3481 11.148 14.1504 11.2301ZM17.7711 16.1765C17.7441 16.234 17.5914 16.7344 17.4297 17.284L17.1332 18.2929H15.7496C14.9141 18.2929 14.375 18.2601 14.375 18.2109C14.375 18.1371 14.8691 16.398 14.959 16.1765C14.9859 16.1027 15.3633 16.0781 16.4055 16.0781C17.4926 16.0781 17.7981 16.1027 17.7711 16.1765Z" fill="#d94343"/>
<path d="M6.10938 11.7141C5.60625 11.9274 5.21094 12.4113 5.21094 12.8133C5.21992 13.1168 5.53437 13.6582 5.80391 13.8387C6.38789 14.216 7.02578 14.1504 7.54688 13.6582C8.31953 12.9363 7.71758 11.6403 6.6125 11.6567C6.40586 11.6567 6.18125 11.6813 6.10938 11.7141Z" fill="#d94343"/>
<path d="M38.7406 11.8125C38.5789 11.9028 38.3723 12.0914 38.2734 12.2391C38.1027 12.4934 38.0938 12.6574 38.0938 15.3399C38.0938 17.8746 38.1117 18.2028 38.2555 18.4488C38.7406 19.3266 40.1332 19.3184 40.6004 18.4324C40.7801 18.0961 40.7891 17.9567 40.7891 15.3727C40.7891 12.7313 40.7801 12.6574 40.5914 12.3047C40.241 11.6895 39.3785 11.4598 38.7406 11.8125Z" fill="#d94343"/>
<path d="M5.90273 16.1765C5.70508 16.2832 5.49844 16.4883 5.39062 16.6933C5.21992 17.0133 5.21094 17.2019 5.21094 19.7367C5.21094 22.2222 5.22891 22.4601 5.39062 22.7801C5.82187 23.6496 7.16953 23.6988 7.72656 22.8703C7.89727 22.616 7.90625 22.4519 7.90625 19.7695C7.90625 17.2347 7.88828 16.9066 7.74453 16.6605C7.40313 16.0453 6.55859 15.8238 5.90273 16.1765Z" fill="#d94343"/>
<path d="M39.0371 21.0903C38.8844 21.1231 38.6238 21.2872 38.4621 21.443C38.2195 21.6727 38.1477 21.8122 38.1207 22.1239C38.0309 23.1083 39.0551 23.7481 40.0344 23.3298C41.0137 22.9032 40.9867 21.6481 39.9805 21.1805C39.5492 20.9837 39.4504 20.9755 39.0371 21.0903Z" fill="#d94343"/>
</g>
<defs>
<clipPath id="clip0_132_600">
<rect width="46" height="42" fill="white"/>
</clipPath>
</defs>
</svg>
