<svg width="48" height="42" viewBox="0 0 48 42" fill="none" xmlns="http://www.w3.org/2000/svg">
<path opacity="0.967" fill-rule="evenodd" clip-rule="evenodd" d="M27.5156 -0.0410156C33.1406 -0.0410156 38.7656 -0.0410156 44.3906 -0.0410156C44.6069 0.0801767 44.7788 0.244239 44.9062 0.451172C44.9531 2.91195 44.9688 5.37289 44.9531 7.83398C45.4612 7.78963 45.7893 7.98103 45.9375 8.4082C45.9687 13.3301 46 18.252 46.0312 23.1738C46.9917 24.0079 47.6324 24.9923 47.9531 26.127C47.9531 27.2481 47.9531 28.3691 47.9531 29.4902C47.7751 30.0058 47.4626 30.457 47.0156 30.8438C47.4434 31.3328 47.756 31.866 47.9531 32.4434C47.9531 32.9629 47.9531 33.4824 47.9531 34.002C47.7123 34.6802 47.306 35.2817 46.7344 35.8066C47.3138 36.3563 47.7201 36.9853 47.9531 37.6934C47.9531 38.2129 47.9531 38.7324 47.9531 39.252C47.4532 40.6192 46.4219 41.5215 44.8594 41.959C34.2656 41.959 23.6719 41.959 13.0781 41.959C10.8843 41.363 9.83737 40.0505 9.9375 38.0215C10.0497 37.1551 10.4716 36.4304 11.2031 35.8477C9.57038 34.2431 9.47663 32.5752 10.9219 30.8438C10.3917 30.4069 10.0636 29.8736 9.9375 29.2441C9.35844 26.6858 10.1553 24.5394 12.3281 22.8047C14.5039 21.4582 16.9102 20.5559 19.5469 20.0977C21.5272 19.7192 23.5271 19.4595 25.5469 19.3184C25.5885 18.7173 25.6197 18.1158 25.6406 17.5137C19.7344 17.5137 13.8281 17.5137 7.92188 17.5137C7.92188 16.9121 7.92188 16.3105 7.92188 15.709C14.5781 15.709 21.2344 15.709 27.8906 15.709C27.8906 15.1348 27.8906 14.5605 27.8906 13.9863C19.2656 13.9863 10.6406 13.9863 2.01562 13.9863C2.01562 14.5605 2.01562 15.1348 2.01562 15.709C3.32812 15.709 4.64062 15.709 5.95312 15.709C5.95312 16.3105 5.95312 16.9121 5.95312 17.5137C5.32812 17.5137 4.70313 17.5137 4.07812 17.5137C4.08899 17.7893 4.12024 18.0627 4.17188 18.334C7.10937 18.334 10.0469 18.334 12.9844 18.334C12.9844 18.9355 12.9844 19.5371 12.9844 20.1387C10.0775 20.1114 7.1712 20.1387 4.26562 20.2207C4.81677 26.6713 5.36364 33.1245 5.90625 39.5801C6.04688 39.8125 6.25 39.9902 6.51562 40.1133C7.32753 40.1543 8.14002 40.1679 8.95312 40.1543C8.95312 40.7558 8.95312 41.3574 8.95312 41.959C7.98438 41.959 7.01562 41.959 6.04688 41.959C4.91632 41.612 4.18194 40.9284 3.84375 39.9082C3.18106 32.4466 2.57168 24.9817 2.01562 17.5137C1.57702 17.5273 1.13951 17.5136 0.703125 17.4727C0.414757 17.3707 0.164757 17.2202 -0.046875 17.0215C-0.046875 15.5722 -0.046875 14.1231 -0.046875 12.6738C0.0980644 12.4523 0.316814 12.302 0.609375 12.2227C6.39054 12.1816 12.1718 12.1679 17.9531 12.1816C17.9531 10.7324 17.9531 9.28323 17.9531 7.83398C15.7259 7.87334 13.5071 7.83233 11.2969 7.71094C11.1524 7.58139 11.043 7.43099 10.9688 7.25977C10.9062 5.89258 10.9062 4.52539 10.9688 3.1582C11.0424 2.90533 11.2143 2.72759 11.4844 2.625C15.5235 2.54389 19.5548 2.57123 23.5781 2.70703C23.7233 2.80662 23.8327 2.92966 23.9062 3.07617C23.9531 6.11121 23.9688 9.14632 23.9531 12.1816C24.6094 12.1816 25.2656 12.1816 25.9219 12.1816C25.9062 10.9235 25.9219 9.66574 25.9688 8.4082C26.117 7.98103 26.4451 7.78963 26.9531 7.83398C26.9375 5.37289 26.9531 2.91195 27 0.451172C27.1275 0.244239 27.2993 0.0801767 27.5156 -0.0410156ZM29.0156 1.76367C29.6407 1.76367 30.2656 1.76367 30.8906 1.76367C30.8906 3.78711 30.8906 5.81054 30.8906 7.83398C30.2656 7.83398 29.6407 7.83398 29.0156 7.83398C29.0156 5.81054 29.0156 3.78711 29.0156 1.76367ZM32.9531 1.76367C33.6094 1.76367 34.2656 1.76367 34.9219 1.76367C34.9219 3.78711 34.9219 5.81054 34.9219 7.83398C34.2656 7.83398 33.6094 7.83398 32.9531 7.83398C32.9531 5.81054 32.9531 3.78711 32.9531 1.76367ZM36.9844 1.76367C37.6406 1.76367 38.2969 1.76367 38.9531 1.76367C38.9531 3.78711 38.9531 5.81054 38.9531 7.83398C38.2969 7.83398 37.6406 7.83398 36.9844 7.83398C36.9844 5.81054 36.9844 3.78711 36.9844 1.76367ZM41.0156 1.76367C41.6407 1.76367 42.2656 1.76367 42.8906 1.76367C42.8906 3.78711 42.8906 5.81054 42.8906 7.83398C42.2656 7.83398 41.6407 7.83398 41.0156 7.83398C41.0156 5.81054 41.0156 3.78711 41.0156 1.76367ZM12.9844 4.38867C13.9531 4.38867 14.9219 4.38867 15.8906 4.38867C15.8906 4.93555 15.8906 5.48242 15.8906 6.0293C14.9219 6.0293 13.9531 6.0293 12.9844 6.0293C12.9844 5.48242 12.9844 4.93555 12.9844 4.38867ZM17.9531 4.38867C18.735 4.37502 19.5162 4.3887 20.2969 4.42969C19.7032 4.94922 19.1093 5.46875 18.5156 5.98828C18.3307 6.02893 18.1432 6.04259 17.9531 6.0293C17.9531 5.48242 17.9531 4.93555 17.9531 4.38867ZM21.7969 5.7832C21.89 6.45175 21.9212 7.13534 21.8906 7.83398C21.2656 7.83398 20.6407 7.83398 20.0156 7.83398C20.0004 7.66768 20.0161 7.50362 20.0625 7.3418C20.6596 6.83305 21.2377 6.31352 21.7969 5.7832ZM20.0156 9.63867C20.6407 9.63867 21.2656 9.63867 21.8906 9.63867C21.8906 10.4863 21.8906 11.334 21.8906 12.1816C21.2656 12.1816 20.6407 12.1816 20.0156 12.1816C20.0156 11.334 20.0156 10.4863 20.0156 9.63867ZM27.9844 9.63867C33.2969 9.63867 38.6093 9.63867 43.9219 9.63867C43.9375 13.713 43.9219 17.7872 43.875 21.8613C41.5599 20.8033 39.1068 20.106 36.5156 19.7695C33.5766 19.317 30.6234 19.1393 27.6562 19.2363C27.6762 18.6641 27.7231 18.0899 27.7969 17.5137C28.2667 17.5273 28.7354 17.5136 29.2031 17.4727C29.488 17.3881 29.7224 17.2376 29.9062 17.0215C29.9688 15.5722 29.9688 14.1231 29.9062 12.6738C29.789 12.4375 29.5859 12.2871 29.2969 12.2227C28.8605 12.1817 28.423 12.168 27.9844 12.1816C27.9844 11.334 27.9844 10.4863 27.9844 9.63867ZM28.8281 20.959C33.0295 20.9792 37.1232 21.5672 41.1094 22.7227C42.7241 23.2159 44.0835 24.0225 45.1875 25.1426C45.7826 25.9544 46.017 26.8431 45.8906 27.8086C45.875 28.2324 45.8594 28.6562 45.8438 29.0801C45.7657 29.3672 45.5625 29.5449 45.2344 29.6133C34.2893 29.695 23.3518 29.6677 12.4219 29.5312C11.3093 27.029 12.0593 25.0602 14.6719 23.625C16.5801 22.7038 18.6112 22.0749 20.7656 21.7383C23.4436 21.2881 26.1311 21.0283 28.8281 20.959ZM13.9219 31.459C24.1127 31.4188 34.3002 31.4598 44.4844 31.582C45.693 31.9882 46.1149 32.7401 45.75 33.8379C45.4701 34.3563 45.017 34.6982 44.3906 34.8633C43.1407 34.8906 41.8906 34.918 40.6406 34.9453C39.0972 35.9405 37.5816 36.9659 36.0938 38.0215C35.5509 37.6287 35.0353 37.2049 34.5469 36.75C35.0146 36.7091 35.4833 36.6954 35.9531 36.709C35.9531 36.1074 35.9531 35.5058 35.9531 34.9043C28.453 34.918 20.953 34.9043 13.4531 34.8633C12.3058 34.4831 11.8526 33.7585 12.0938 32.6895C12.4271 31.9505 13.0365 31.5404 13.9219 31.459ZM13.9219 36.709C19.7657 36.6953 25.6095 36.709 31.4531 36.75C32.737 37.9008 34.0495 39.0219 35.3906 40.1133C28.0781 40.168 20.7656 40.168 13.4531 40.1133C12.3058 39.7331 11.8526 39.0085 12.0938 37.9395C12.4271 37.2005 13.0365 36.7904 13.9219 36.709ZM41.3906 36.709C42.2662 36.6954 43.1412 36.709 44.0156 36.75C45.7372 37.0967 46.2528 37.9853 45.5625 39.416C45.2726 39.7793 44.882 40.0116 44.3906 40.1133C41.7656 40.168 39.1406 40.168 36.5156 40.1133C38.1642 38.9967 39.7893 37.8619 41.3906 36.709Z" fill="#d94343"/>
</svg>
