<svg width="46" height="43" viewBox="0 0 46 43" fill="none" xmlns="http://www.w3.org/2000/svg">
<path opacity="0.963" fill-rule="evenodd" clip-rule="evenodd" d="M44.0684 -0.0419922C44.4277 -0.0419922 44.7871 -0.0419922 45.1465 -0.0419922C45.2801 0.0674857 45.4299 0.165468 45.5957 0.251953C45.7032 0.421209 45.823 0.57518 45.9551 0.713867C45.9551 1.0498 45.9551 1.38574 45.9551 1.72168C43.6561 3.98285 41.3201 6.22244 38.9473 8.44043C39.4022 8.85145 39.8065 9.29934 40.1602 9.78418C40.2537 10.1991 40.1938 10.5909 39.9805 10.96C38.7676 12.0938 37.5547 13.2275 36.3418 14.3613C37.7585 16.0845 38.0729 17.9742 37.2852 20.0303C37.0215 20.528 36.722 21.004 36.3867 21.458C30.6517 26.819 24.9166 32.18 19.1816 37.541C19.6189 37.9216 20.0232 38.3276 20.3945 38.7588C20.701 39.81 20.2817 40.426 19.1367 40.6064C18.8328 40.605 18.5482 40.5351 18.2832 40.3965C16.651 38.8707 15.0189 37.3451 13.3867 35.8193C12.1439 36.9811 10.901 38.1429 9.6582 39.3047C10.3385 39.8843 10.9524 40.5141 11.5 41.1943C11.7412 41.9745 11.4867 42.5624 10.7363 42.958C10.377 42.958 10.0176 42.958 9.6582 42.958C6.4918 40.1242 3.36223 37.2407 0.269531 34.3076C0.177012 34.1526 0.072194 34.0126 -0.0449219 33.8877C-0.0449219 33.5518 -0.0449219 33.2158 -0.0449219 32.8799C0.520225 32.0657 1.26893 31.8837 2.20117 32.334C2.75521 32.8519 3.30924 33.3698 3.86328 33.8877C5.10612 32.7259 6.34896 31.5641 7.5918 30.4023C5.95963 28.8766 4.32748 27.3509 2.69531 25.8252C2.20895 24.7189 2.5833 24.0189 3.81836 23.7256C4.02673 23.773 4.23637 23.8149 4.44727 23.8516C4.90856 24.1987 5.3428 24.5766 5.75 24.9854C11.485 19.6244 17.2201 14.2633 22.9551 8.90234C24.7946 7.61352 26.8012 7.33357 28.9746 8.0625C29.5509 8.28251 30.0749 8.57648 30.5469 8.94434C31.7298 7.83854 32.9127 6.73275 34.0957 5.62695C34.6465 5.27213 35.2156 5.24414 35.8027 5.54297C36.1485 5.88022 36.5078 6.20215 36.8809 6.50879C39.2536 4.29064 41.6494 2.10704 44.0684 -0.0419922ZM34.9043 8.52441C35.5863 9.02169 36.2152 9.58161 36.791 10.2041C36.0123 10.9879 35.2037 11.7438 34.3652 12.4717C33.7363 11.9398 33.1373 11.3799 32.5684 10.792C33.3489 10.0344 34.1276 9.27851 34.9043 8.52441ZM26.0996 10.2881C27.0622 10.1701 27.9307 10.38 28.7051 10.918C30.5469 12.6396 32.3887 14.3613 34.2305 16.083C35.0892 17.2423 35.1192 18.4181 34.3203 19.6104C33.9093 19.1698 33.4451 18.7918 32.9277 18.4766C31.5649 18.3784 30.9809 18.9523 31.1758 20.1982C31.5131 20.6818 31.9174 21.1158 32.3887 21.5C31.7748 22.0739 31.1608 22.6478 30.5469 23.2217C30.1725 22.8717 29.7982 22.5218 29.4238 22.1719C28.216 21.7425 27.4972 22.1204 27.2676 23.3057C27.276 23.5092 27.3209 23.7051 27.4023 23.8936C27.76 24.298 28.1344 24.6899 28.5254 25.0693C27.9564 25.6572 27.3574 26.2171 26.7285 26.749C23.5541 23.8375 20.4095 20.8981 17.2949 17.9307C19.7344 15.6082 22.1901 13.2987 24.6621 11.002C25.1098 10.6949 25.5889 10.457 26.0996 10.2881ZM15.2285 19.7783C18.4148 22.7148 21.5894 25.6683 24.752 28.6387C24.1667 29.1998 23.5677 29.7457 22.9551 30.2764C22.5492 29.9109 22.13 29.5609 21.6973 29.2266C20.57 28.9134 19.8812 29.2913 19.6309 30.3604C19.6815 30.5551 19.7265 30.7511 19.7656 30.9482C20.1369 31.3794 20.5412 31.7854 20.9785 32.166C19.7344 33.343 18.4766 34.5047 17.2051 35.6514C14.0306 32.7399 10.8861 29.8004 7.77148 26.833C10.2591 24.4797 12.7447 22.1281 15.2285 19.7783ZM9.47852 32.292C10.1605 32.7893 10.7894 33.3492 11.3652 33.9717C10.1673 35.1475 8.93945 36.2953 7.68164 37.415C7.05273 36.8832 6.45377 36.3232 5.88477 35.7354C7.08459 34.5859 8.28251 33.438 9.47852 32.292Z" fill="#d94343"/>
</svg>
