<svg width="48" height="48" viewBox="0 0 48 48" fill="none" xmlns="http://www.w3.org/2000/svg">
<g clip-path="url(#clip0_132_609)">
<path opacity="0.908" fill-rule="evenodd" clip-rule="evenodd" d="M23.4844 -0.046875C23.7969 -0.046875 24.1094 -0.046875 24.4219 -0.046875C24.8668 0.313343 25.0075 0.782093 24.8438 1.35938C24.5011 1.80698 24.048 1.94761 23.4844 1.78125C23.0367 1.43858 22.8961 0.985463 23.0625 0.421875C23.1906 0.247344 23.3312 0.0910943 23.4844 -0.046875Z" fill="#d94343"/>
<path opacity="0.943" fill-rule="evenodd" clip-rule="evenodd" d="M19.2656 0.32815C20.3427 0.202064 20.7959 0.670814 20.625 1.7344C20.5814 1.86854 20.5032 1.97792 20.3906 2.06253C13.5257 3.46338 8.3851 7.19777 4.96876 13.2656C1.43864 20.3787 1.59489 27.4099 5.43751 34.3594C6.63143 36.2763 8.06893 37.9951 9.75001 39.5156C10.2681 40.6528 9.90863 41.1997 8.67188 41.1563C4.32288 37.4456 1.68226 32.7425 0.750005 27.0469C-0.31721 18.779 2.13591 11.7633 8.10938 6.00003C11.3401 3.16587 15.0588 1.27524 19.2656 0.32815Z" fill="#d94343"/>
<path opacity="0.942" fill-rule="evenodd" clip-rule="evenodd" d="M27.7969 0.328125C33.4876 1.21187 38.1907 3.83687 41.9063 8.20312C47.1503 14.7981 48.6503 22.1731 46.4063 30.3281C45.0776 34.6618 42.687 38.2712 39.2344 41.1562C38.1983 41.2763 37.7764 40.8232 37.9688 39.7969C44.4266 33.7656 46.6766 26.4218 44.7188 17.7656C43.0134 11.9286 39.529 7.5067 34.2656 4.5C32.1235 3.39008 29.8735 2.57758 27.5156 2.0625C27.2475 1.71737 27.1694 1.32674 27.2813 0.890625C27.4088 0.65413 27.5806 0.46663 27.7969 0.328125Z" fill="#d94343"/>
<path opacity="0.942" fill-rule="evenodd" clip-rule="evenodd" d="M23.3906 7.73438C29.6977 7.80064 34.4633 10.5194 37.6875 15.8906C40.2925 21.0461 40.2299 26.1711 37.5 31.2656C37.246 31.6643 36.9804 32.055 36.7031 32.4375C35.8177 32.9009 35.2552 32.6509 35.0156 31.6875C35.0434 31.5105 35.0903 31.3386 35.1563 31.1719C38.2314 26.3855 38.4189 21.4792 35.7188 16.4531C32.3747 11.3832 27.6715 9.21133 21.6094 9.9375C16.2402 11.0878 12.6622 14.2597 10.875 19.4531C9.70558 23.6552 10.3306 27.5615 12.75 31.1719C13.0158 32.1872 12.6252 32.6716 11.5781 32.625C11.358 32.5926 11.1862 32.4832 11.0625 32.2969C7.72707 26.989 7.44582 21.5203 10.2188 15.8906C13.183 10.8817 17.5735 8.16287 23.3906 7.73438ZM22.9219 16.2656C26.4703 16.0312 29.0172 17.4998 30.5625 20.6719C30.9703 21.664 31.1422 22.6953 31.0781 23.7656C28.5122 23.7325 26.3559 22.7794 24.6094 20.9062C24.1719 20.5938 23.7344 20.5938 23.2969 20.9062C21.5503 22.7794 19.3941 23.7325 16.8281 23.7656C16.8382 20.51 18.307 18.1819 21.2344 16.7812C21.7998 16.578 22.3623 16.4062 22.9219 16.2656Z" fill="#d94343"/>
<path opacity="0.954" fill-rule="evenodd" clip-rule="evenodd" d="M34.6406 47.953C27.5156 47.953 20.3906 47.953 13.2656 47.953C13.0125 47.8081 12.8406 47.5894 12.75 47.2968C12.6875 44.2342 12.6875 41.1718 12.75 38.1093C13.3353 34.5868 15.4134 32.6961 18.9844 32.4374C16.826 30.6981 15.7635 28.4325 15.7969 25.6405C15.3728 25.655 15.076 25.4675 14.9062 25.078C14.408 20.7466 16.0174 17.481 19.7344 15.2811C23.3981 13.6219 26.8044 14.0282 29.9531 16.4999C32.6291 18.9945 33.5354 21.9945 32.6719 25.4999C32.4989 25.6056 32.3114 25.6525 32.1094 25.6405C32.1427 28.4325 31.0803 30.6981 28.9219 32.4374C32.4928 32.6961 34.571 34.5868 35.1562 38.1093C35.2188 41.1718 35.2188 44.2342 35.1562 47.2968C35.0656 47.5894 34.8937 47.8081 34.6406 47.953ZM22.9219 16.2655C22.3623 16.406 21.7998 16.5779 21.2344 16.7811C18.3069 18.1818 16.8381 20.5099 16.8281 23.7655C19.3941 23.7324 21.5503 22.7793 23.2969 20.9061C23.7344 20.5937 24.1718 20.5937 24.6094 20.9061C26.3559 22.7793 28.5122 23.7324 31.0781 23.7655C31.1421 22.6952 30.9703 21.6639 30.5625 20.6718C29.0172 17.4997 26.4703 16.031 22.9219 16.2655ZM23.8594 23.1093C24.8073 23.7872 25.8073 24.3965 26.8594 24.9374C27.9109 25.3759 29.0046 25.6414 30.1406 25.7343C30.0549 28.5533 28.7424 30.5689 26.2031 31.7811C25.935 32.1262 25.8569 32.5169 25.9687 32.953C26.1212 33.1928 26.2149 33.4429 26.25 33.703C24.7188 34.953 23.1875 34.953 21.6562 33.703C21.6913 33.4429 21.7851 33.1928 21.9375 32.953C22.0493 32.5169 21.9712 32.1262 21.7031 31.7811C19.1638 30.5689 17.8513 28.5533 17.7656 25.7343C20.1081 25.5466 22.1393 24.6715 23.8594 23.1093ZM18.1406 34.453C18.7066 34.4222 19.2691 34.4534 19.8281 34.5468C20.6417 35.7199 21.7667 36.3919 23.2031 36.5624C24.6823 36.7317 26.0261 36.3879 27.2344 35.5311C27.5683 35.2444 27.8496 34.9163 28.0781 34.5468C30.025 34.2315 31.5407 34.8877 32.625 36.5155C32.9248 37.04 33.1123 37.6025 33.1875 38.203C33.2344 40.8278 33.25 43.4528 33.2344 46.078C32.2031 46.078 31.1719 46.078 30.1406 46.078C30.1563 44.234 30.1406 42.3903 30.0937 40.5468C29.7023 39.8559 29.1555 39.7153 28.4531 40.1249C28.3631 40.2579 28.285 40.3985 28.2187 40.5468C28.1719 42.3903 28.1562 44.234 28.1719 46.078C25.3594 46.078 22.5469 46.078 19.7344 46.078C19.75 44.234 19.7344 42.3903 19.6875 40.5468C19.2961 39.8559 18.7492 39.7153 18.0469 40.1249C17.9569 40.2579 17.8788 40.3985 17.8125 40.5468C17.7656 42.3903 17.75 44.234 17.7656 46.078C16.7344 46.078 15.7031 46.078 14.6719 46.078C14.6562 43.4528 14.6719 40.8278 14.7187 38.203C15.0663 36.2154 16.2069 34.9654 18.1406 34.453Z" fill="#d94343"/>
</g>
<defs>
<clipPath id="clip0_132_609">
<rect width="48" height="48" fill="white"/>
</clipPath>
</defs>
</svg>
