<svg width="45" height="41" viewBox="0 0 45 41" fill="none" xmlns="http://www.w3.org/2000/svg">
<g clip-path="url(#clip0_130_495)">
<path opacity="0.98" fill-rule="evenodd" clip-rule="evenodd" d="M-0.0439453 24.1435C-0.0439453 23.3427 -0.0439453 22.542 -0.0439453 21.7412C0.266927 19.8933 1.10188 18.265 2.46094 16.8564C7.22168 12.5188 11.9824 8.1813 16.7432 3.84371C19.6775 1.61131 22.9881 0.997383 26.6748 2.00191C29.0762 2.82888 30.9072 4.25694 32.168 6.28609C33.9623 9.83844 33.5815 13.1751 31.0254 16.2959C26.0596 20.8203 21.0938 25.3447 16.1279 29.8691C12.7027 32.198 9.04052 32.545 5.1416 30.9101C2.25144 29.394 0.522923 27.1385 -0.0439453 24.1435ZM22.2803 3.24313C26.1728 2.99347 29 4.43488 30.7617 7.56734C31.8814 10.1439 31.5883 12.5729 29.8828 14.8545C27.6001 17.0143 25.2857 19.1498 22.9395 21.2607C19.1589 17.8296 15.3943 14.3862 11.6455 10.9306C13.8879 8.82073 16.1731 6.75207 18.501 4.72457C19.6435 3.96338 20.9033 3.46956 22.2803 3.24313Z" fill="#d94343"/>
<path opacity="0.94" fill-rule="evenodd" clip-rule="evenodd" d="M22.8955 4.92484C25.9711 4.85009 28.0072 6.13134 29.0039 8.76859C29.2223 9.82458 29.1637 10.8656 28.8281 11.8916C28.2715 12.5323 27.7148 12.5323 27.1582 11.8916C27.2587 11.0425 27.288 10.1884 27.2461 9.32914C26.6073 7.457 25.2157 6.56279 23.0713 6.64652C22.613 6.73427 22.159 6.8277 21.709 6.9268C21.1126 6.91727 20.8049 6.63699 20.7861 6.08598C20.7945 5.77725 20.941 5.53702 21.2256 5.36527C21.7808 5.17912 22.3374 5.03231 22.8955 4.92484Z" fill="#d94343"/>
<path opacity="0.956" fill-rule="evenodd" clip-rule="evenodd" d="M44.9561 29.0283C44.9561 29.8291 44.9561 30.6298 44.9561 31.4306C44.0343 35.8606 41.1339 38.4898 36.2549 39.3183C31.3479 39.6531 27.8176 37.8247 25.6641 33.833C24.1817 30.2186 24.7969 26.9354 27.5098 23.9834C30.7976 21.0891 34.5915 20.3551 38.8916 21.7812C42.2934 23.239 44.3149 25.6546 44.9561 29.0283ZM34.6729 22.7021C36.1626 22.7211 37.5689 23.0414 38.8916 23.663C38.9813 23.7032 38.996 23.7566 38.9356 23.8232C35.2442 27.1865 31.5527 30.5498 27.8613 33.913C26.3378 31.4784 26.3085 29.0226 27.7734 26.5459C29.3703 24.2105 31.6701 22.9292 34.6729 22.7021ZM41.9678 26.5459C42.052 26.5821 42.1253 26.6355 42.1875 26.706C43.9401 30.2724 43.2517 33.3821 40.1221 36.0351C37.2784 37.9393 34.2608 38.2063 31.0693 36.8359C31.0107 36.7825 30.9522 36.7292 30.8936 36.6757C34.6026 33.3097 38.294 29.9331 41.9678 26.5459Z" fill="#d94343"/>
</g>
<defs>
<clipPath id="clip0_130_495">
<rect width="45" height="41" fill="white"/>
</clipPath>
</defs>
</svg>
