<svg width="45" height="44" viewBox="0 0 45 44" fill="none" xmlns="http://www.w3.org/2000/svg">
<g clip-path="url(#clip0_130_460)">
<path opacity="0.948" fill-rule="evenodd" clip-rule="evenodd" d="M3.12012 -0.0429688C10.0342 -0.0429688 16.9482 -0.0429688 23.8623 -0.0429688C24.593 0.256223 25.1057 0.771849 25.4004 1.50391C25.4762 2.03782 25.5495 2.56777 25.6201 3.09375C27.8597 3.80461 30.0864 4.5494 32.2998 5.32812C33.7462 6.35225 34.1417 7.68428 33.4863 9.32422C31.7029 13.7261 29.9745 18.1375 28.3008 22.5586C30.6863 19.4816 33.8064 18.4074 37.6611 19.3359C40.9158 20.4555 42.8348 22.6756 43.418 25.9961C43.6955 28.4645 43.0217 30.6416 41.3965 32.5273C41.0235 32.9497 40.5987 33.3077 40.1221 33.6016C41.0596 33.6302 41.997 33.6589 42.9346 33.6875C43.1593 33.7464 43.3205 33.8753 43.418 34.0742C43.4766 37.2539 43.4766 40.4336 43.418 43.6133C43.297 43.7168 43.1946 43.8314 43.1104 43.957C37.8662 43.957 32.6221 43.957 27.3779 43.957C27.2043 43.8585 27.0725 43.7153 26.9824 43.5273C26.9238 40.3763 26.9238 37.2253 26.9824 34.0742C27.0903 33.8829 27.2515 33.754 27.4658 33.6875C28.4034 33.6589 29.3408 33.6302 30.2783 33.6016C27.6889 31.5947 26.5903 28.9736 26.9824 25.7383C26.4965 26.906 26.0277 28.0804 25.5762 29.2617C25.5469 30.0352 25.5176 30.8086 25.4883 31.582C25.3993 32.7004 24.7987 33.4023 23.6865 33.6875C16.8603 33.7448 10.0342 33.7448 3.20801 33.6875C2.32325 33.4813 1.75196 32.9514 1.49414 32.0977C1.43555 21.9284 1.43555 11.7591 1.49414 1.58984C1.76243 0.769095 2.30442 0.224824 3.12012 -0.0429688ZM3.38379 1.50391C10.0928 1.48958 16.8018 1.50391 23.5107 1.54688C23.6133 1.64714 23.7158 1.74739 23.8184 1.84766C23.9642 11.7268 23.9934 21.6096 23.9063 31.4961C23.8609 31.7139 23.7583 31.9 23.5986 32.0547C16.924 32.1972 10.2443 32.2258 3.55957 32.1406C3.42065 32.0799 3.28882 32.0083 3.16406 31.9258C3.01794 21.9067 2.98864 11.8806 3.07617 1.84766C3.19708 1.74409 3.29962 1.62951 3.38379 1.50391ZM25.5322 4.76953C27.4724 5.3589 29.406 5.97478 31.333 6.61719C31.8704 6.88526 32.1633 7.31495 32.2119 7.90625C30.0626 13.585 27.8507 19.2426 25.5762 24.8789C25.5322 18.1759 25.5176 11.4727 25.5322 4.76953ZM13.4033 11.043C14.6243 12.9424 15.8255 14.8617 17.0068 16.8008C15.8425 18.7629 14.6559 20.7109 13.4473 22.6445C12.2939 20.6895 11.1074 18.7559 9.8877 16.8438C11.0726 14.9125 12.2446 12.9789 13.4033 11.043ZM35.1123 20.4961C38.5582 20.7004 40.7702 22.4191 41.7481 25.6523C42.2579 29.0238 40.9835 31.5017 37.9248 33.0859C34.5574 34.2648 31.7888 33.477 29.6191 30.7227C28.0585 28.0699 28.1757 25.4918 29.9707 22.9883C31.3244 21.4313 33.0383 20.6005 35.1123 20.4961ZM34.4971 23.5039C34.562 23.4926 34.6206 23.507 34.6729 23.5469C34.4929 24.172 34.2731 24.7879 34.0137 25.3945C33.7569 25.7032 33.4493 25.9467 33.0908 26.125C32.6077 26.2269 32.139 26.3558 31.6846 26.5117C31.7805 25.4817 32.2785 24.6653 33.1787 24.0625C33.6065 23.8241 34.0459 23.6379 34.4971 23.5039ZM38.8037 26.5117C38.3155 26.3649 37.8175 26.2359 37.3096 26.125C36.3942 25.6394 35.9401 24.8803 35.9473 23.8477C35.8632 23.7549 35.79 23.6547 35.7275 23.5469C37.4337 23.8544 38.4591 24.8426 38.8037 26.5117ZM35.1123 26.5117C35.3974 26.6467 35.6318 26.8473 35.8154 27.1133C35.581 27.2852 35.376 27.4856 35.2002 27.7148C35.0268 27.4881 34.8217 27.2875 34.585 27.1133C34.7628 26.9111 34.9385 26.7106 35.1123 26.5117ZM38.8037 27.543C38.6476 28.8893 37.9152 29.8488 36.6064 30.4219C36.3234 30.5529 36.0305 30.6103 35.7275 30.5938C35.8331 30.5161 35.9064 30.4159 35.9473 30.293C36.0632 28.667 36.9568 27.822 38.6279 27.7578C38.7054 27.697 38.7639 27.6253 38.8037 27.543ZM31.5967 27.6289C31.7181 27.7407 31.8646 27.8123 32.0361 27.8438C33.5441 27.9432 34.3498 28.731 34.4531 30.207C34.4771 30.3642 34.5504 30.4931 34.6729 30.5938C32.9407 30.3181 31.9153 29.3299 31.5967 27.6289ZM28.5205 35.1914C32.9737 35.1914 37.4267 35.1914 41.8799 35.1914C41.8799 35.6497 41.8799 36.1081 41.8799 36.5664C37.4267 36.5664 32.9737 36.5664 28.5205 36.5664C28.5205 36.1081 28.5205 35.6497 28.5205 35.1914ZM28.5205 38.1133C32.9737 38.1133 37.4267 38.1133 41.8799 38.1133C41.8799 38.5716 41.8799 39.03 41.8799 39.4883C37.4267 39.4883 32.9737 39.4883 28.5205 39.4883C28.5205 39.03 28.5205 38.5716 28.5205 38.1133ZM28.5205 41.0352C32.9737 41.0352 37.4267 41.0352 41.8799 41.0352C41.8799 41.4935 41.8799 41.9519 41.8799 42.4102C37.4267 42.4102 32.9737 42.4102 28.5205 42.4102C28.5205 41.9519 28.5205 41.4935 28.5205 41.0352Z" fill="#d94343"/>
<path opacity="0.93" fill-rule="evenodd" clip-rule="evenodd" d="M4.87793 2.87886C5.44844 2.73663 5.81464 2.93715 5.97656 3.48042C6.03516 4.54032 6.03516 5.60022 5.97656 6.66011C5.61491 7.45724 5.11686 7.54318 4.48242 6.91792C4.42383 5.7148 4.42383 4.51167 4.48242 3.30855C4.57251 3.1206 4.70435 2.97738 4.87793 2.87886Z" fill="#d94343"/>
<path opacity="0.931" fill-rule="evenodd" clip-rule="evenodd" d="M13.2275 8.72265C13.5946 8.69412 13.9022 8.80876 14.1504 9.0664C15.6224 11.5155 17.1165 13.9504 18.6328 16.3711C18.8259 16.803 18.7674 17.2041 18.457 17.5742C16.9665 19.959 15.487 22.351 14.0186 24.75C13.3804 25.0767 12.897 24.9192 12.5684 24.2773C11.0538 21.8164 9.57428 19.3386 8.12988 16.8437C8.19809 16.5864 8.30062 16.3429 8.4375 16.1133C9.84375 13.8216 11.25 11.53 12.6562 9.23827C12.7876 8.99645 12.9779 8.82457 13.2275 8.72265ZM13.4033 11.043C12.2446 12.9789 11.0726 14.9125 9.8877 16.8437C11.1074 18.7559 12.2939 20.6895 13.4473 22.6445C14.6559 20.7108 15.8425 18.7629 17.0068 16.8008C15.8255 14.8617 14.6243 12.9424 13.4033 11.043Z" fill="#d94343"/>
<path opacity="0.941" fill-rule="evenodd" clip-rule="evenodd" d="M34.251 22.0532C36.4495 21.7896 38.2219 22.5057 39.5684 24.2016C40.6959 26.0126 40.7838 27.8745 39.8321 29.7876C38.4627 31.81 36.5438 32.6264 34.0753 32.2368C31.1595 31.3606 29.7972 29.427 29.9883 26.436C30.4682 24.0907 31.8892 22.6298 34.251 22.0532ZM34.5147 23.6001C34.0636 23.7341 33.6241 23.9203 33.1964 24.1587C32.2962 24.7614 31.7981 25.5779 31.7022 26.6079C32.1566 26.452 32.6253 26.3231 33.1085 26.2212C33.467 26.0429 33.7746 25.7994 34.0313 25.4907C34.2908 24.8841 34.5105 24.2682 34.6905 23.6431C34.6383 23.6032 34.5797 23.5888 34.5147 23.6001ZM38.8214 26.6079C38.4767 24.9388 37.4513 23.9505 35.7452 23.6431C35.8077 23.7509 35.8809 23.8511 35.9649 23.9438C35.9578 24.9765 36.4118 25.7355 37.3272 26.2212C37.8351 26.3321 38.3331 26.461 38.8214 26.6079ZM35.1299 26.6079C34.9562 26.8068 34.7804 27.0073 34.6026 27.2095C34.8394 27.3837 35.0444 27.5842 35.2178 27.811C35.3936 27.5818 35.5987 27.3813 35.8331 27.2095C35.6495 26.9435 35.4151 26.7429 35.1299 26.6079ZM38.8214 27.6391C38.7815 27.7215 38.723 27.7931 38.6456 27.854C36.9744 27.9182 36.0808 28.7632 35.9649 30.3891C35.924 30.5121 35.8507 30.6123 35.7452 30.6899C36.0481 30.7064 36.3411 30.6491 36.6241 30.5181C37.9329 29.945 38.6653 28.9854 38.8214 27.6391ZM31.6143 27.7251C31.9329 29.426 32.9583 30.4143 34.6905 30.6899C34.5681 30.5893 34.4948 30.4604 34.4708 30.3032C34.3674 28.8271 33.5617 28.0394 32.0538 27.9399C31.8822 27.9085 31.7358 27.8369 31.6143 27.7251Z" fill="#d94343"/>
<path opacity="0.928" fill-rule="evenodd" clip-rule="evenodd" d="M21.4014 26.3399C21.8527 26.2476 22.1896 26.3908 22.4121 26.7696C22.4707 27.9727 22.4707 29.1758 22.4121 30.3789C22.0641 30.8479 21.6393 30.9196 21.1377 30.5938C21.0179 30.4266 20.9446 30.2404 20.918 30.0352C20.8369 28.9131 20.8662 27.7959 21.0059 26.6836C21.1286 26.5487 21.2605 26.4341 21.4014 26.3399Z" fill="#d94343"/>
</g>
<defs>
<clipPath id="clip0_130_460">
<rect width="45" height="44" fill="white"/>
</clipPath>
</defs>
</svg>
