<svg width="46" height="42" viewBox="0 0 46 42" fill="none" xmlns="http://www.w3.org/2000/svg">
<path d="M16.2917 15.75L12.4583 21M12.4583 21L8.625 26.25M12.4583 21L8.625 15.75M12.4583 21L16.2917 26.25M26.8333 15.75L23 21M23 21L19.1667 26.25M23 21L19.1667 15.75M23 21L26.8333 26.25M37.375 15.75L33.5417 21M33.5417 21L29.7083 26.25M33.5417 21L29.7083 15.75M33.5417 21L37.375 26.25" stroke="#d94343" stroke-width="4" stroke-linecap="round"/>
<path d="M3.83333 21C3.83333 12.7504 3.83333 8.62563 6.64023 6.06282C9.44711 3.5 13.9647 3.5 23 3.5C32.0352 3.5 36.5529 3.5 39.3597 6.06282C42.1667 8.62563 42.1667 12.7504 42.1667 21C42.1667 29.2495 42.1667 33.3744 39.3597 35.9371C36.5529 38.5 32.0352 38.5 23 38.5C13.9647 38.5 9.44711 38.5 6.64023 35.9371C3.83333 33.3744 3.83333 29.2495 3.83333 21Z" stroke="#d94343" stroke-width="3"/>
</svg>
