<svg width="49" height="46" viewBox="0 0 49 46" fill="none" xmlns="http://www.w3.org/2000/svg">
<path d="M22.9209 1.68003C18.844 1.94058 14.6809 3.27925 11.2547 5.42652C8.88126 6.91792 8.53673 7.28629 9.00568 7.8523C9.31193 8.22066 9.72345 8.17574 10.3551 7.69957C13.4367 5.35464 17.3606 3.74644 21.3897 3.18042C22.9783 2.95581 26.0504 2.95581 27.5625 3.18042C32.6826 3.91714 36.9701 5.9566 40.6356 9.38863C44.3488 12.8566 46.5692 17.0343 47.3348 21.9668C47.574 23.4761 47.574 26.5218 47.3444 27.9414C46.617 32.3707 44.5785 35.6949 40.961 38.3363C37.8602 40.6003 33.0942 42.2714 28.1654 42.8105C23.1793 43.3585 18.0113 42.7566 13.4272 41.1035C5.82833 38.3453 1.78966 33.1703 1.46427 25.7941C1.23458 20.5562 3.08165 15.3003 6.55568 11.2933C8.01994 9.59527 8.00079 9.64019 7.64669 9.21793C7.34044 8.84956 6.86193 8.89449 6.43126 9.31675C4.21095 11.5359 2.11505 15.0039 1.06232 18.1933C0.315833 20.4753 0.0574341 22.2363 0.0574341 24.9765C0.0574341 27.2945 0.181848 28.3277 0.669934 30.1425C2.45001 36.755 7.77111 41.2742 16.2217 43.3496C19.0928 44.0593 21.3801 44.3289 24.5 44.3289C27.5242 44.3289 29.5819 44.1042 32.3955 43.4484C39.4871 41.7953 44.5307 38.3632 47.0381 33.4757C48.4162 30.7984 48.9522 28.3546 48.9426 24.8867C48.933 20.9156 48.1578 17.8609 46.2725 14.375C44.301 10.7543 41.2194 7.54683 37.5444 5.30074C33.2377 2.65933 27.9645 1.3566 22.9209 1.68003Z" fill="#d94343"/>
<path d="M16.6045 9.43358C13.0826 10.1344 10.2402 12.1019 7.83809 15.516C5.75176 18.4808 4.59375 22.1375 4.59375 25.6773C4.60332 28.7769 5.44551 31.4902 7.14902 33.916C7.94336 35.0211 9.5416 36.5484 10.8145 37.393C11.8863 38.1117 13.9344 39.109 15.2551 39.5762C18.2027 40.6004 22.5764 41.2652 25.3613 41.1035C31.8691 40.7351 36.75 38.9922 40.0996 35.8476C42.2721 33.8172 43.5354 31.5351 44.167 28.4805C44.4158 27.3215 44.4637 24.8238 44.2723 23.4762C43.698 19.4062 41.7744 15.6508 38.7598 12.7219C37.0658 11.0777 35.3145 10.0445 33.3525 9.55037C32.4912 9.33475 32.2328 9.3078 30.7686 9.3078C29.3713 9.3078 29.0268 9.33475 28.3281 9.50545C27.3328 9.75702 25.9834 10.368 25.2178 10.916C24.902 11.1406 24.5766 11.3203 24.5 11.3203C24.4139 11.3203 24.0693 11.1226 23.7248 10.8801C21.7629 9.46951 19.1311 8.93944 16.6045 9.43358ZM20.4613 10.8621C21.3609 11.1047 22.2701 11.5449 23.1027 12.1199C24.0311 12.7668 24.8062 12.8476 25.5336 12.3625C27.7156 10.907 28.9023 10.5387 31.1035 10.6285C33.7162 10.7273 35.793 11.7156 37.9941 13.8988L38.798 14.6894L36.951 14.7523C33.41 14.8691 31.2279 15.2824 29.5723 16.1449C27.9549 16.9894 26.8926 18.6605 26.8926 20.3496C26.9021 21.5535 27.2658 22.425 28.1463 23.3144C29.0938 24.2578 30.1465 24.689 32.9889 25.3C34.4818 25.6144 34.5488 25.6234 34.7881 25.4797C35.1039 25.282 35.2188 25.0035 35.1039 24.6801C34.9795 24.3566 34.9221 24.3297 33.3525 23.9972C31.3906 23.566 30.7398 23.3773 30.0795 23.0359C28.4525 22.1914 27.8879 20.5293 28.6822 18.9301C29.6967 16.9086 32.5391 16.091 38.6736 16.082H39.8795L40.559 17.223C41.382 18.6156 41.6213 19.1277 42.052 20.3765C42.7793 22.4879 43.0855 24.8508 42.8846 26.8633C42.8271 27.5101 42.7506 28.0941 42.7219 28.157C42.6836 28.2469 42.4348 28.0582 41.9562 27.582C40.5973 26.2523 38.1281 24.9406 37.4199 25.1742C37.1711 25.2551 36.9414 25.5695 36.9414 25.8211C36.9414 26.0637 37.3242 26.3781 37.8602 26.5847C39.5254 27.2137 41.248 28.5523 41.8988 29.7113L42.2146 30.2683L41.8605 31.059C41.1906 32.5863 40.3293 33.7722 39.0086 34.9941C36.5012 37.3121 32.7496 38.8574 27.9932 39.5492C26.0887 39.8187 22.9113 39.8187 21.0068 39.5492C13.9248 38.525 9.13965 35.5961 7.12988 31.059L6.78535 30.2683L7.0916 29.7293C7.76152 28.5523 9.32148 27.3125 10.9771 26.6476C12.1256 26.1894 13.0061 25.9469 15.4082 25.4347C18.8727 24.689 19.7244 24.3656 20.7676 23.3683C21.6959 22.4969 22.1074 21.5715 22.1074 20.3496C22.1074 18.2472 20.7006 16.5133 18.3176 15.6687C16.7193 15.1027 14.9584 14.8512 12.0107 14.7523L10.202 14.6894L11.0059 13.8988C12.7955 12.1199 14.4416 11.1855 16.5662 10.7363C17.4658 10.5476 19.5426 10.6105 20.4613 10.8621ZM13.5898 16.1719C16.5184 16.3785 18.5664 16.9805 19.5809 17.9238C20.5379 18.8222 20.9207 20.3047 20.49 21.3918C20.1264 22.2902 19.399 22.9101 18.174 23.3594C17.8869 23.4672 16.5566 23.7906 15.2168 24.0871C13.877 24.3746 12.3648 24.743 11.8672 24.8957C9.79043 25.5426 8.24961 26.4051 7.06289 27.564C6.5748 28.0492 6.31641 28.2469 6.27813 28.157C6.15371 27.8605 6.01973 25.6683 6.07715 24.8867C6.14414 23.9074 6.36426 22.398 6.56523 21.5805C6.91934 20.125 7.77109 18.2113 8.68027 16.7738L9.13008 16.082H10.7092C11.5896 16.082 12.8816 16.1269 13.5898 16.1719Z" fill="#d94343"/>
<path d="M31.8117 19.9722C31.2758 20.4035 31.5916 21.0773 32.6443 21.7332C33.6875 22.389 34.9795 22.4609 36.1184 21.9308C36.8553 21.5894 37.6113 20.8617 37.6113 20.4933C37.6113 19.9992 37.0754 19.6488 36.6447 19.8644C36.5299 19.9183 36.3193 20.098 36.1566 20.2597C35.592 20.8707 34.5871 21.1043 33.8119 20.7988C33.6205 20.7179 33.2377 20.4574 32.9602 20.2148C32.3955 19.7117 32.185 19.6668 31.8117 19.9722Z" fill="#d94343"/>
<path d="M23.5908 23.8086C22.5764 23.9434 21.4471 24.3477 20.7293 24.8238C20.5762 24.9227 20.3465 25.2281 20.2221 25.4887C19.868 26.2074 19.935 26.8543 20.4231 27.5461C21.3801 28.8938 23.2941 30.0977 24.4904 30.0977C25.7154 30.0977 27.6104 28.9117 28.577 27.5461C29.0746 26.8363 29.132 26.1895 28.7588 25.4617C28.443 24.8598 27.8688 24.4734 26.7682 24.123C25.6197 23.7637 24.6244 23.6648 23.5908 23.8086ZM25.5145 25.2012C26.816 25.4617 27.5625 25.866 27.5625 26.3242C27.5625 27.043 25.4092 28.75 24.5 28.75C23.5908 28.75 21.4375 27.043 21.4375 26.3242C21.4375 25.875 22.1744 25.4617 23.4281 25.2102C24.2703 25.0395 24.6531 25.0395 25.5145 25.2012Z" fill="#d94343"/>
<path d="M17.8678 31.2836C17.3893 31.6339 17.5137 32.164 18.2602 32.8468C19.8871 34.3562 22.4902 34.455 24.2512 33.0894L24.5287 32.8738L24.7775 33.0894C26.0025 34.1586 28.1941 34.3472 29.7828 33.5386C30.3475 33.2511 31.1801 32.5054 31.3428 32.1281C31.4863 31.8136 31.3715 31.4004 31.1035 31.2656C30.7111 31.0679 30.4432 31.1668 29.9264 31.6789C29.6584 31.9574 29.2182 32.2898 28.9502 32.4246C28.5387 32.6222 28.3568 32.6582 27.6104 32.6582C26.8639 32.6582 26.682 32.6222 26.2705 32.4246C26.0025 32.2898 25.5623 31.9574 25.2943 31.6789C24.6149 30.9961 24.3852 30.9961 23.7057 31.6789C23.4377 31.9574 22.9975 32.2898 22.7295 32.4246C22.318 32.6222 22.1361 32.6582 21.3897 32.6582C20.6432 32.6582 20.4613 32.6222 20.0498 32.4156C19.7914 32.2898 19.3416 31.9574 19.0545 31.6789C18.5281 31.1578 18.2027 31.05 17.8678 31.2836Z" fill="#d94343"/>
<path d="M11.8002 19.8555C11.5514 19.9543 11.3887 20.2148 11.3887 20.5113C11.3887 20.8617 12.1639 21.5984 12.8816 21.9308C14.0492 22.4699 15.3316 22.3801 16.4322 21.6883C17.4084 21.0683 17.7051 20.3945 17.1883 19.9723C16.815 19.6668 16.6045 19.7117 16.0398 20.2148C15.7623 20.4574 15.3795 20.718 15.1881 20.7988C14.4129 21.1043 13.408 20.8707 12.8434 20.2598C12.5658 19.9723 12.2404 19.7566 12.0873 19.7746C12.049 19.7746 11.915 19.8105 11.8002 19.8555Z" fill="#d94343"/>
</svg>
