<svg width="45" height="45" viewBox="0 0 45 45" fill="none" xmlns="http://www.w3.org/2000/svg">
<g clip-path="url(#clip0_130_488)">
<path opacity="0.97" fill-rule="evenodd" clip-rule="evenodd" d="M2.85645 -0.0439453C10.7959 -0.0439453 18.7354 -0.0439453 26.6748 -0.0439453C26.6455 5.43488 26.6748 10.9134 26.7627 16.3916C28.4233 17.1852 30.0493 18.0348 31.6406 18.9404C35.0307 23.7875 37.5796 29.0609 39.2871 34.7607C40.2989 35.6554 41.2511 36.6075 42.1436 37.6172C39.6376 40.0499 37.1474 42.4962 34.6729 44.9561C34.585 44.9561 34.4971 44.9561 34.4092 44.9561C33.7824 44.2853 33.1379 43.6261 32.4756 42.9785C27.6685 42.5366 24.5776 40.0025 23.2031 35.376C21.953 36.9009 20.3856 37.355 18.501 36.7383C18.0914 36.5629 17.7105 36.3432 17.3584 36.0791C15.8055 37.1813 14.1942 37.2837 12.5244 36.3867C11.0239 35.2139 10.438 33.6758 10.7666 31.7725C8.12988 31.7725 5.49316 31.7725 2.85645 31.7725C2.85645 21.167 2.85645 10.5616 2.85645 -0.0439453ZM5.58105 2.59277C6.43067 2.59277 7.28027 2.59277 8.12988 2.59277C8.12988 11.4111 8.12988 20.2295 8.12988 29.0479C7.28027 29.0479 6.43067 29.0479 5.58105 29.0479C5.58105 20.2295 5.58105 11.4111 5.58105 2.59277ZM10.8545 2.59277C15.2198 2.59277 19.5849 2.59277 23.9502 2.59277C23.9649 9.41897 23.9502 16.2452 23.9062 23.0713C22.233 21.6373 20.4605 21.5054 18.5889 22.6758C16.9003 24.2376 16.5927 26.0394 17.666 28.0811C17.9118 28.415 18.1902 28.7226 18.501 29.0039C15.9523 29.0479 13.4035 29.0625 10.8545 29.0479C10.8545 20.2295 10.8545 11.4111 10.8545 2.59277ZM26.6748 19.4678C27.6504 19.9116 28.6172 20.3803 29.5752 20.874C32.8127 25.5628 35.2297 30.6605 36.8262 36.167C37.3096 36.6504 37.793 37.1338 38.2764 37.6172C37.0312 38.8037 35.7862 39.9902 34.541 41.1768C34.2334 40.8691 33.9258 40.5615 33.6182 40.2539C31.0959 40.3908 29.0012 39.5264 27.334 37.6611C26.9452 37.1477 26.6229 36.591 26.3672 35.9912C25.8691 34.4971 25.3711 33.0029 24.873 31.5088C23.2617 29.8975 21.6504 28.2861 20.0391 26.6748C19.4969 25.5616 19.8338 24.8585 21.0498 24.5654C21.3758 24.6259 21.6688 24.7577 21.9287 24.9609C23.5453 26.6362 25.2152 28.2475 26.9385 29.7949C27.9 30.4588 28.94 30.9714 30.0586 31.333C30.1264 31.3203 30.1851 31.291 30.2344 31.2451C30.5077 30.4264 30.742 29.6061 30.9375 28.7842C29.2775 28.1884 27.8713 27.2216 26.7188 25.8838C26.6748 23.7453 26.6601 21.6067 26.6748 19.4678ZM13.4912 31.7725C14.3408 31.7725 15.1904 31.7725 16.04 31.7725C16.1031 32.4755 16.0006 33.1494 15.7324 33.7939C15.1823 34.3461 14.5818 34.4193 13.9307 34.0137C13.7446 33.8615 13.6128 33.6711 13.5352 33.4424C13.4912 32.8865 13.4766 32.3299 13.4912 31.7725ZM18.7646 31.7725C19.6143 31.7725 20.4638 31.7725 21.3135 31.7725C21.3766 32.4755 21.274 33.1494 21.0059 33.7939C20.4558 34.3461 19.8552 34.4193 19.2041 34.0137C19.018 33.8615 18.8862 33.6711 18.8086 33.4424C18.7646 32.8865 18.7501 32.3299 18.7646 31.7725Z" fill="#d94343"/>
<path opacity="0.958" fill-rule="evenodd" clip-rule="evenodd" d="M13.4033 5.22949C14.3115 5.22949 15.2198 5.22949 16.1279 5.22949C16.1426 7.89567 16.1279 10.5616 16.084 13.2275C15.1977 13.3142 14.3041 13.3435 13.4033 13.3154C13.4033 10.6201 13.4033 7.92481 13.4033 5.22949Z" fill="#d94343"/>
<path opacity="0.958" fill-rule="evenodd" clip-rule="evenodd" d="M18.6768 5.22949C19.5849 5.22949 20.4932 5.22949 21.4014 5.22949C21.416 7.89567 21.4014 10.5616 21.3574 13.2275C20.4711 13.3142 19.5775 13.3435 18.6768 13.3154C18.6768 10.6201 18.6768 7.92481 18.6768 5.22949Z" fill="#d94343"/>
</g>
<defs>
<clipPath id="clip0_130_488">
<rect width="45" height="45" fill="white"/>
</clipPath>
</defs>
</svg>
