<svg width="51" height="47" viewBox="0 0 51 47" fill="none" xmlns="http://www.w3.org/2000/svg">
<g clip-path="url(#clip0_127_221)">
<path d="M43.4764 31.9442H1.41574C0.632566 31.9442 0 32.5272 0 33.2489V41.0031C0 41.7249 0.632566 42.3078 1.41574 42.3078H43.4764C44.2596 42.3078 44.8921 41.7249 44.8921 41.0031V33.2489C44.8921 32.5272 44.2596 31.9442 43.4764 31.9442ZM9.94033 39.6984H2.83149V34.5536H9.94033V39.6984ZM35.6346 39.6984H12.7718V34.5536H35.6346V39.6984ZM42.0606 39.6984H38.466V34.5536H42.0606V39.6984Z" fill="#d94343"/>
<path d="M47.7236 15.8065C46.0167 14.2334 45.1933 12.6419 45.2737 11.0781C45.4042 8.71852 47.573 7.05294 47.6132 7.01593C48.2156 6.56252 48.316 5.74824 47.824 5.18379C47.332 4.61934 46.4384 4.52681 45.8359 4.98022C45.7054 5.07275 42.653 7.36755 42.4422 10.9115C42.3016 13.2526 43.4061 15.5196 45.7155 17.6479C47.3822 19.1839 48.2056 20.7847 48.1654 22.4133C48.1052 25.069 45.7857 27.0492 45.7657 27.0677C45.1833 27.5488 45.113 28.4001 45.6653 28.9091C46.3781 29.566 47.3923 29.2329 47.6634 29.0016C47.7939 28.8906 50.8965 26.2811 50.9969 22.4966C51.0672 20.137 49.9627 17.8792 47.7236 15.8065Z" fill="#d94343"/>
<path d="M41.2674 15.8065C39.5605 14.2334 38.7371 12.6419 38.8175 11.0781C38.948 8.71852 41.1168 7.05294 41.157 7.01593C41.7594 6.56252 41.8598 5.74824 41.3678 5.18379C40.8758 4.61934 39.9822 4.52681 39.3798 4.98022C39.2492 5.07275 36.1968 7.36755 35.986 10.9115C35.8454 13.2526 36.9499 15.5196 39.2593 17.6479C40.9361 19.1932 41.7594 20.794 41.7192 22.4225C41.659 25.0782 39.3396 27.0584 39.3195 27.0769C38.7371 27.5581 38.6669 28.4094 39.2191 28.9183C39.932 29.5753 40.9461 29.2422 41.2172 29.0108C41.3477 28.8998 44.4503 26.2904 44.5507 22.5058C44.621 20.1277 43.5165 17.87 41.2674 15.8065Z" fill="#d94343"/>
</g>
<defs>
<clipPath id="clip0_127_221">
<rect width="51" height="47" fill="white"/>
</clipPath>
</defs>
</svg>
