<svg width="49" height="45" viewBox="0 0 49 45" fill="none" xmlns="http://www.w3.org/2000/svg">
<path opacity="0.952" fill-rule="evenodd" clip-rule="evenodd" d="M13.0635 1.62603C21.5523 1.61829 30.0379 1.63294 38.5205 1.66997C42.7673 2.23016 45.5587 4.38348 46.8945 8.12993C47.9201 12.5145 46.4048 15.9276 42.3486 18.3692C40.969 19.0406 39.5015 19.4361 37.9463 19.5557C37.8507 20.7554 37.8187 21.9566 37.8506 23.1592C41.5931 23.623 44.2249 25.4394 45.7461 28.6084C47.1625 32.5315 46.2215 35.8861 42.9229 38.6719C41.4311 39.7373 39.7403 40.3672 37.8506 40.5616C38.0169 42.0292 37.347 43.0106 35.8408 43.5059C28.2484 43.5645 20.6559 43.5645 13.0635 43.5059C12.5719 43.3829 12.1571 43.1485 11.8193 42.8028C7.81593 42.7862 5.1841 41.043 3.92383 37.5733C3.18978 34.192 4.38607 31.5698 7.5127 29.7071C8.59251 29.1809 9.74095 28.8733 10.958 28.7842C11.0856 27.8761 11.0856 26.9678 10.958 26.0596C7.56747 24.7546 5.54175 22.4401 4.88086 19.1163C4.50211 14.6538 6.52782 11.519 10.958 9.71197C11.0377 7.63251 11.0856 5.55243 11.1016 3.47173C11.4542 2.57664 12.1083 1.9614 13.0635 1.62603ZM13.8291 3.03228C19.9223 3.01763 26.0154 3.03228 32.1084 3.07622C30.7378 3.96888 29.6532 5.09681 28.8545 6.46001C23.4317 6.5479 18.0086 6.5772 12.585 6.5479C12.5491 5.60553 12.5969 4.66803 12.7285 3.7354C12.9987 3.3564 13.3656 3.12202 13.8291 3.03228ZM36.7022 3.12017C40.0848 2.99595 42.6847 4.22642 44.502 6.81157C46.4408 10.4694 45.7868 13.6774 42.54 16.4356C38.9893 18.6638 35.5121 18.5759 32.1084 16.1719C29.181 13.4514 28.6228 10.3605 30.4336 6.89947C31.8864 4.74578 33.9759 3.48601 36.7022 3.12017ZM37.3721 6.98736C37.4559 6.97585 37.5197 7.00515 37.5635 7.07525C37.9175 7.79908 38.3322 8.48756 38.8076 9.14068C39.6869 9.34406 40.5801 9.49048 41.4873 9.58013C40.8303 10.1541 40.2082 10.7547 39.6211 11.3819C39.6649 12.2382 39.7606 13.0878 39.9082 13.9307C39.1474 13.4714 38.3339 13.1198 37.4678 12.876C36.6307 13.165 35.8172 13.5166 35.0273 13.9307C35.1008 13.3493 35.1966 12.7634 35.3145 12.1729C35.3783 11.88 35.3783 11.5869 35.3145 11.294C34.7243 10.752 34.1341 10.21 33.5439 9.66802C34.3569 9.48152 35.1864 9.335 36.0322 9.22857C36.5906 8.5402 37.0371 7.79313 37.3721 6.98736ZM12.585 7.95415C17.7849 7.9395 22.9848 7.95415 28.1846 7.9981C27.0645 12.1196 28.3406 15.4595 32.0127 18.0176C33.3263 18.8055 34.7619 19.2889 36.3193 19.4678C36.3193 20.6983 36.3193 21.9288 36.3193 23.1592C31.8711 23.5671 28.984 25.7351 27.6582 29.6631C26.9688 32.4145 27.527 34.9193 29.333 37.1778C25.7922 37.2217 22.2512 37.2364 18.71 37.2217C19.2405 33.523 17.6773 30.8716 14.0205 29.2676C13.5517 29.119 13.0731 29.0165 12.585 28.96C12.585 28.1397 12.585 27.3194 12.585 26.4991C17.2255 26.9539 20.6548 25.3133 22.8731 21.5772C24.5456 17.6292 23.7321 14.1868 20.4326 11.2501C18.1396 9.55534 15.5397 8.92552 12.6328 9.3604C12.5851 8.89256 12.5691 8.42381 12.585 7.95415ZM13.4463 10.6788C17.3575 10.5685 20.085 12.1506 21.6289 15.4249C22.7036 18.7033 21.8262 21.4426 18.9971 23.6426C15.8389 25.5762 12.6807 25.5762 9.52246 23.6426C6.53204 21.2857 5.71856 18.4 7.08203 14.9854C8.39162 12.5317 10.513 11.0962 13.4463 10.6788ZM13.7334 13.0518C14.0867 13.0053 14.3897 13.0932 14.6426 13.3155C14.7635 14.2466 14.8273 15.1841 14.834 16.128C14.9457 16.2305 15.0573 16.333 15.1689 16.4356C16.3493 16.4649 17.5297 16.4942 18.71 16.5235C18.7537 16.5599 18.7857 16.6038 18.8057 16.6553C18.5301 16.7767 18.2909 16.9525 18.0879 17.1827C17.9569 17.6197 18.0685 17.9858 18.4229 18.2813C17.655 18.7199 17.5593 19.2619 18.1357 19.9073C17.4215 20.0805 17.1823 20.4907 17.418 21.1377C17.5297 21.2403 17.6412 21.3428 17.7529 21.4454C15.4704 21.5762 13.1735 21.6202 10.8623 21.5772C10.8623 19.878 10.8623 18.1787 10.8623 16.4795C11.5998 16.5529 12.3016 16.4505 12.9678 16.1719C13.2915 15.8846 13.5308 15.5476 13.6856 15.1612C13.7334 14.4587 13.7493 13.7555 13.7334 13.0518ZM36.7979 24.5655C41.0594 24.8589 43.6913 26.9096 44.6934 30.7178C45.0537 34.3786 43.4427 37.0008 39.8604 38.584C35.8403 39.7655 32.6024 38.7841 30.1465 35.6397C28.6791 33.1201 28.6791 30.6007 30.1465 28.0811C31.7289 25.8969 33.9461 24.7251 36.7979 24.5655ZM34.2139 29.2237C34.6848 29.275 35.1314 29.4068 35.5537 29.6192C35.8408 29.8829 36.1279 30.1465 36.415 30.4102C36.7979 30.586 37.1807 30.586 37.5635 30.4102C38.5292 29.2316 39.7095 28.9973 41.1045 29.7071C42.0696 30.5578 42.2131 31.5099 41.5352 32.5635C40.0344 33.9563 38.5192 35.3333 36.9893 36.6944C35.3609 35.2722 33.7818 33.8074 32.252 32.2999C31.7273 30.6254 32.3813 29.6 34.2139 29.2237ZM10.958 30.2784C14.7463 30.5055 16.8518 32.3512 17.2744 35.8155C17.0612 38.2805 15.7213 39.9943 13.2549 40.9571C9.84049 41.74 7.3363 40.7 5.74219 37.837C4.68462 34.433 5.91281 32.0161 9.42676 30.586C9.94404 30.4545 10.4545 30.3519 10.958 30.2784ZM11.1494 32.5635C11.9039 32.6892 12.207 33.0993 12.0586 33.794C11.6108 34.3068 11.1004 34.3654 10.5273 33.9698C10.1818 33.296 10.3892 32.8273 11.1494 32.5635ZM10.7666 35.9034C12.2817 35.8215 13.143 36.466 13.3506 37.837C11.9803 37.9248 10.6086 37.9541 9.23536 37.9249C9.22457 36.9106 9.73502 36.2367 10.7666 35.9034ZM18.2314 38.628C22.4425 38.6133 26.6534 38.628 30.8643 38.6719C32.4592 39.8294 34.2776 40.4593 36.3193 40.5616C36.3769 41.4116 35.9621 41.9244 35.0752 42.0997C28.2164 42.1583 21.3578 42.1583 14.499 42.0997C16.2106 41.3628 17.4547 40.2056 18.2314 38.628Z" fill="#d94343"/>
<path opacity="0.978" fill-rule="evenodd" clip-rule="evenodd" d="M21.1025 4.1748C23.3039 4.16016 25.5051 4.1748 27.7061 4.21875C28.1653 4.48867 28.2769 4.85488 28.041 5.31738C27.9546 5.42297 27.843 5.49622 27.7061 5.53711C25.5049 5.5957 23.3037 5.5957 21.1025 5.53711C20.5973 5.08325 20.5973 4.62914 21.1025 4.1748Z" fill="#d94343"/>
<path opacity="0.935" fill-rule="evenodd" clip-rule="evenodd" d="M37.1807 4.4385C37.5266 4.41261 37.8297 4.50051 38.0898 4.70217C38.6481 5.72756 39.2064 6.75295 39.7646 7.77834C41.0343 7.99726 42.3103 8.18768 43.5928 8.34963C44.0817 8.64549 44.1934 9.04098 43.9277 9.53615C43.0664 10.2979 42.2051 11.0596 41.3437 11.8213C41.456 12.968 41.6315 14.1106 41.8701 15.249C41.8133 15.9059 41.4304 16.1549 40.7217 15.9961C39.652 15.4609 38.5674 14.9483 37.4678 14.458C36.415 14.9707 35.3623 15.4834 34.3096 15.9961C33.6246 16.1802 33.2098 15.9605 33.0654 15.3369C33.2739 14.2029 33.4971 13.075 33.7353 11.9531C32.7971 11.1794 31.8879 10.3738 31.0078 9.53615C30.7214 8.96399 30.8968 8.5685 31.5342 8.34963C32.7585 8.20619 33.9707 8.01577 35.1709 7.77834C35.6712 6.77149 36.1976 5.7754 36.75 4.79006C36.8837 4.65205 37.0272 4.53486 37.1807 4.4385ZM37.3721 6.98733C37.0371 7.7931 36.5905 8.54017 36.0322 9.22854C35.1864 9.33497 34.3569 9.48149 33.5439 9.66799C34.1341 10.21 34.7242 10.7519 35.3144 11.294C35.3783 11.5869 35.3783 11.8799 35.3144 12.1729C35.1965 12.7634 35.1008 13.3493 35.0273 13.9307C35.8172 13.5165 36.6306 13.165 37.4678 12.876C38.3339 13.1198 39.1474 13.4714 39.9082 13.9307C39.7606 13.0877 39.6649 12.2382 39.6211 11.3819C40.2082 10.7547 40.8303 10.1541 41.4873 9.5801C40.5801 9.49045 39.6869 9.34403 38.8076 9.14065C38.3322 8.48753 37.9175 7.79905 37.5635 7.07522C37.5197 7.00512 37.4559 6.97582 37.3721 6.98733Z" fill="#d94343"/>
<path opacity="0.934" fill-rule="evenodd" clip-rule="evenodd" d="M12.585 11.5576C15.4356 11.2165 16.7116 12.3591 16.4131 14.9853C17.4073 14.9528 18.3963 14.9968 19.3799 15.1172C20.3041 15.5513 20.6391 16.2397 20.3848 17.1826C20.1002 17.6705 19.9726 18.1978 20.002 18.7646C19.9408 18.9942 19.8291 19.1993 19.667 19.3799C19.8503 19.9593 19.7386 20.4867 19.332 20.9619C19.4783 21.9689 19.0476 22.6575 18.04 23.0273C15.1607 23.1138 12.2896 23.0845 9.42676 22.9394C9.33488 22.8147 9.25512 22.6829 9.1875 22.5439C9.1237 20.2295 9.1237 17.915 9.1875 15.6006C9.25819 15.3305 9.43364 15.14 9.71387 15.0293C10.4476 15 11.1813 14.9707 11.915 14.9414C11.9629 14.8974 12.0107 14.8535 12.0586 14.8095C12.0905 13.872 12.1224 12.9346 12.1543 11.997C12.2524 11.8048 12.396 11.6583 12.585 11.5576ZM13.7334 13.0517C13.7493 13.7555 13.7334 14.4586 13.6855 15.1611C13.5308 15.5476 13.2915 15.8845 12.9678 16.1719C12.3016 16.4504 11.5998 16.5529 10.8623 16.4795C10.8623 18.1787 10.8623 19.8779 10.8623 21.5771C13.1735 21.6201 15.4704 21.5762 17.7529 21.4453C17.6412 21.3427 17.5297 21.2402 17.418 21.1377C17.1823 20.4906 17.4215 20.0804 18.1357 19.9072C17.5593 19.2618 17.655 18.7198 18.4229 18.2812C18.0685 17.9857 17.9569 17.6196 18.0879 17.1826C18.2909 16.9524 18.5301 16.7766 18.8057 16.6553C18.7857 16.6037 18.7537 16.5598 18.71 16.5234C17.5297 16.4941 16.3493 16.4648 15.1689 16.4355C15.0573 16.333 14.9457 16.2305 14.834 16.1279C14.8273 15.184 14.7635 14.2465 14.6426 13.3154C14.3897 13.0931 14.0867 13.0052 13.7334 13.0517Z" fill="#d94343"/>
<path opacity="0.925" fill-rule="evenodd" clip-rule="evenodd" d="M33.3526 27.8174C34.7082 27.6272 35.9204 27.9201 36.9893 28.6963C38.0581 27.9055 39.2704 27.6272 40.626 27.8613C43.2366 28.7746 44.1138 30.4592 43.2578 32.915C43.0983 33.1494 42.9388 33.3838 42.7793 33.6182C41.0088 35.2441 39.2383 36.8701 37.4678 38.4961C37.1488 38.6719 36.8297 38.6719 36.5108 38.4961C34.7721 36.8994 33.0336 35.3028 31.2949 33.7061C30.2434 32.3745 30.1158 30.9683 30.9121 29.4873C31.5181 28.6612 32.3316 28.1046 33.3526 27.8174ZM34.2139 29.2236C32.3814 29.6 31.7273 30.6254 32.252 32.2998C33.7818 33.8073 35.3609 35.2722 36.9893 36.6943C38.5192 35.3333 40.0344 33.9563 41.5352 32.5635C42.2131 31.5098 42.0696 30.5577 41.1045 29.707C39.7095 28.9972 38.5292 29.2315 37.5635 30.4102C37.1807 30.5859 36.7979 30.5859 36.4151 30.4102C36.1279 30.1465 35.8408 29.8828 35.5537 29.6191C35.1314 29.4068 34.6848 29.275 34.2139 29.2236Z" fill="#d94343"/>
<path opacity="0.94" fill-rule="evenodd" clip-rule="evenodd" d="M10.958 31.0693C12.9931 31.1954 13.9023 32.1914 13.6855 34.0576C13.5924 34.3458 13.4489 34.6095 13.2549 34.8486C14.9267 36.0831 15.3415 37.5918 14.499 39.375C12.3617 39.4336 10.2242 39.4336 8.08691 39.375C7.87955 39.3018 7.73599 39.17 7.65624 38.9795C7.2949 37.308 7.82127 35.9457 9.23535 34.8926C8.37382 33.604 8.56522 32.4614 9.80956 31.4648C10.1859 31.2866 10.5687 31.1548 10.958 31.0693ZM11.1494 32.5635C10.3891 32.8272 10.1818 33.296 10.5273 33.9697C11.1004 34.3653 11.6108 34.3068 12.0586 33.7939C12.207 33.0993 11.9039 32.6892 11.1494 32.5635ZM10.7666 35.9033C9.73501 36.2367 9.22456 36.9105 9.23535 37.9248C10.6086 37.9541 11.9803 37.9247 13.3506 37.8369C13.143 36.466 12.2817 35.8215 10.7666 35.9033Z" fill="#d94343"/>
<path opacity="0.916" fill-rule="evenodd" clip-rule="evenodd" d="M22.8252 39.6826C24.0697 39.668 25.3139 39.6826 26.5576 39.7266C27.1365 39.9963 27.2641 40.3918 26.9404 40.9131C26.8289 41.0084 26.7014 41.0816 26.5576 41.1328C25.3135 41.1914 24.0693 41.1914 22.8252 41.1328C22.3362 40.837 22.2246 40.4415 22.4902 39.9463C22.5998 39.8465 22.7115 39.7586 22.8252 39.6826Z" fill="#d94343"/>
</svg>
