<svg width="48" height="49" viewBox="0 0 48 49" fill="none" xmlns="http://www.w3.org/2000/svg">
<g clip-path="url(#clip0_132_517)">
<path opacity="0.938" fill-rule="evenodd" clip-rule="evenodd" d="M11.5781 -0.0478516C14.0156 -0.0478516 16.4531 -0.0478516 18.8906 -0.0478516C19.5136 0.253304 19.9668 0.73182 20.25 1.3877C20.3502 2.37309 20.3971 3.36202 20.3906 4.35449C20.401 5.25319 20.3542 6.14642 20.25 7.03418C19.863 7.37184 19.4099 7.49945 18.8906 7.41699C18.8465 10.7075 19.9871 13.4828 22.3125 15.7432C24.2917 18.4006 25.0729 21.3992 24.6563 24.7393C24.2531 25.2126 23.8156 25.2445 23.3438 24.835C23.2085 23.984 23.1616 23.1226 23.2031 22.251C17.8906 22.251 12.5782 22.251 7.26564 22.251C7.16191 24.7067 7.16191 27.163 7.26564 29.6201C12.5782 29.6201 17.8906 29.6201 23.2031 29.6201C23.1616 28.7485 23.2085 27.8871 23.3438 27.0361C23.8156 26.6266 24.2531 26.6585 24.6563 27.1318C24.7188 29.0778 24.7188 31.0238 24.6563 32.9697C24.4801 34.1037 24.2301 35.2202 23.9063 36.3193C23.722 37.3397 23.722 38.3606 23.9063 39.3818C24.2301 40.481 24.4801 41.5975 24.6563 42.7314C24.7188 43.7842 24.7188 44.8369 24.6563 45.8896C24.2992 47.4502 23.3772 48.4711 21.8906 48.9521C21.3594 48.9521 20.8282 48.9521 20.2969 48.9521C19.4851 48.6804 18.7663 48.2338 18.1406 47.6123C17.5677 48.255 16.8803 48.7015 16.0781 48.9521C15.5156 48.9521 14.9531 48.9521 14.3906 48.9521C13.5885 48.7015 12.901 48.255 12.3281 47.6123C11.7552 48.255 11.0678 48.7015 10.2656 48.9521C9.70314 48.9521 9.14064 48.9521 8.57814 48.9521C6.47083 48.1797 5.50207 46.6326 5.67189 44.3105C5.73429 43.7538 5.78116 43.1955 5.81251 42.6357C6.00432 41.506 6.25432 40.3894 6.56251 39.2861C6.74589 38.3287 6.74589 37.3717 6.56251 36.415C6.27382 35.3395 6.02382 34.2549 5.81251 33.1611C5.75001 29.2692 5.75001 25.3773 5.81251 21.4854C6.08056 19.3442 6.86181 17.4301 8.15626 15.7432C10.5649 13.5207 11.7055 10.7453 11.5781 7.41699C11.0589 7.49945 10.6058 7.37184 10.2188 7.03418C10.1131 6.13175 10.0662 5.22257 10.0781 4.30664C10.0687 3.32911 10.1155 2.35613 10.2188 1.3877C10.502 0.73182 10.9552 0.253304 11.5781 -0.0478516ZM12.2344 1.3877C14.2034 1.37175 16.1722 1.3877 18.1406 1.43555C18.4009 1.44183 18.604 1.55349 18.75 1.77051C18.8687 2.14328 18.9156 2.52609 18.8906 2.91895C16.4531 2.91895 14.0156 2.91895 11.5781 2.91895C11.4105 2.2084 11.6293 1.69798 12.2344 1.3877ZM11.5781 4.4502C14.0156 4.4502 16.4531 4.4502 18.8906 4.4502C18.8906 4.92871 18.8906 5.40723 18.8906 5.88574C16.4531 5.88574 14.0156 5.88574 11.5781 5.88574C11.5781 5.40723 11.5781 4.92871 11.5781 4.4502ZM13.0781 7.41699C14.5156 7.41699 15.9532 7.41699 17.3906 7.41699C17.3027 8.9099 17.4902 10.3614 17.9531 11.7715C16.1407 11.8353 14.3281 11.8353 12.5156 11.7715C12.9594 10.3591 13.1469 8.90758 13.0781 7.41699ZM11.8594 13.3506C14.1102 13.3187 16.3602 13.3506 18.6094 13.4463C18.9454 14.0367 19.3047 14.6109 19.6875 15.1689C21.3338 16.6635 22.4431 18.4979 23.0156 20.6719C17.8279 20.7516 12.6403 20.7357 7.45314 20.624C7.84615 19.1836 8.48678 17.8756 9.37501 16.7002C10.4326 15.7496 11.2607 14.6331 11.8594 13.3506ZM7.26564 31.1514C12.5782 31.1514 17.8906 31.1514 23.2031 31.1514C23.2031 31.6299 23.2031 32.1084 23.2031 32.5869C17.8906 32.5869 12.5782 32.5869 7.26564 32.5869C7.26564 32.1084 7.26564 31.6299 7.26564 31.1514ZM7.54689 34.1182C12.672 34.1022 17.797 34.1182 22.9219 34.166C22.4159 35.1687 22.166 36.2373 22.1719 37.3721C22.2055 38.1108 22.2835 38.8446 22.4063 39.5732C22.6923 40.8101 22.9423 42.0542 23.1563 43.3057C23.2188 44.1032 23.2188 44.9007 23.1563 45.6982C22.6623 47.1706 21.6779 47.697 20.2031 47.2773C19.6508 47.0006 19.2601 46.5699 19.0313 45.9854C18.9547 45.5644 18.8609 45.1497 18.75 44.7412C18.3438 44.486 17.9375 44.486 17.5313 44.7412C17.4952 45.6829 17.1357 46.4645 16.4531 47.0859C15.2741 47.6918 14.2585 47.4844 13.4063 46.4639C13.1815 45.9412 13.0252 45.3989 12.9375 44.8369C12.5623 44.4903 12.1561 44.4583 11.7188 44.7412C11.6038 45.3697 11.4163 45.9758 11.1563 46.5596C10.3042 47.4828 9.31976 47.6583 8.20314 47.0859C7.75239 46.7233 7.45551 46.2608 7.31251 45.6982C7.25001 44.7093 7.25001 43.7203 7.31251 42.7314C7.51811 41.6048 7.76811 40.4883 8.06251 39.3818C8.28433 37.5883 8.11246 35.8337 7.54689 34.1182Z" fill="#d94343"/>
<path opacity="0.943" fill-rule="evenodd" clip-rule="evenodd" d="M40.3594 48.9522C36.2031 48.9522 32.0468 48.9522 27.8906 48.9522C27.5928 48.5669 27.4678 48.1202 27.5156 47.6123C27.6212 43.7531 27.6367 39.893 27.5625 36.0322C27.1867 31.7514 26.7492 27.4766 26.25 23.208C26.1278 21.5826 26.0966 19.9557 26.1562 18.3272C26.1936 18.0657 26.3342 17.8903 26.5781 17.8008C29.3906 17.737 32.2031 17.737 35.0156 17.8008C35.3697 18.0794 35.4791 18.4462 35.3437 18.9014C35.2299 19.0496 35.0893 19.1612 34.9219 19.2364C32.4846 19.2842 30.0471 19.3002 27.6094 19.2842C27.6094 19.7627 27.6094 20.2412 27.6094 20.7198C31.9844 20.7198 36.3593 20.7198 40.7344 20.7198C40.7344 20.2412 40.7344 19.7627 40.7344 19.2842C39.6714 19.3002 38.6089 19.2842 37.5469 19.2364C36.9892 19.0035 36.8486 18.6047 37.125 18.0401C37.2096 17.9251 37.319 17.8453 37.4531 17.8008C38.8906 17.737 40.3281 17.737 41.7656 17.8008C42.0088 17.929 42.1494 18.1363 42.1875 18.4229C42.2115 20.3392 42.149 22.2533 42 24.1651C41.6096 27.5448 41.2346 30.9263 40.875 34.3096C40.7581 39.0615 40.6956 43.8148 40.6875 48.5694C40.6228 48.7464 40.5135 48.8741 40.3594 48.9522ZM27.7031 22.251C32.0156 22.251 36.3281 22.251 40.6406 22.251C40.6344 23.0189 40.5876 23.7845 40.5 24.5479C40.0058 28.0787 39.5996 31.6198 39.2812 35.1709C39.2344 38.2652 39.2187 41.3596 39.2344 44.4541C38.0465 44.4381 36.8589 44.4541 35.6719 44.502C34.8448 44.7847 34.7197 45.2632 35.2969 45.9375C36.609 45.9854 37.9215 46.0014 39.2344 45.9854C39.2344 46.4958 39.2344 47.0062 39.2344 47.5166C35.8281 47.5166 32.4218 47.5166 29.0156 47.5166C29.0468 47.0062 29.0781 46.4958 29.1094 45.9854C30.4222 46.0014 31.7347 45.9854 33.0469 45.9375C33.5468 45.4909 33.5468 45.0443 33.0469 44.5977C32.9219 44.5658 32.7968 44.5338 32.6719 44.502C31.4848 44.4541 30.2973 44.4381 29.1094 44.4541C29.1449 41.1348 29.098 37.817 28.9687 34.501C28.6635 31.5296 28.3197 28.5628 27.9375 25.6006C27.8127 24.4871 27.7346 23.3705 27.7031 22.251Z" fill="#d94343"/>
</g>
<defs>
<clipPath id="clip0_132_517">
<rect width="48" height="49" fill="white"/>
</clipPath>
</defs>
</svg>
