<svg width="44" height="39" viewBox="0 0 44 39" fill="none" xmlns="http://www.w3.org/2000/svg">
<g clip-path="url(#clip0_130_471)">
<path opacity="0.936" fill-rule="evenodd" clip-rule="evenodd" d="M43.957 25.0986C43.957 25.8603 43.957 26.6221 43.957 27.3838C43.6561 28.9585 42.9543 30.3804 41.8516 31.6494C40.128 33.1643 38.1085 33.5833 35.793 32.9062C34.8058 32.526 33.9894 31.9547 33.3438 31.1924C32.3051 29.7827 31.2452 28.3863 30.1641 27.0029C29.4227 26.3759 28.549 25.9569 27.543 25.7461C23.819 25.6953 20.095 25.6953 16.3711 25.7461C15.3651 25.9569 14.4914 26.3759 13.75 27.0029C12.6688 28.3863 11.609 29.7827 10.5703 31.1924C8.79132 33.1197 6.57131 33.6656 3.91016 32.8301C2.4821 32.2244 1.46517 31.2723 0.859375 29.9736C0.442387 29.1321 0.141606 28.2688 -0.0429688 27.3838C-0.0429688 26.6221 -0.0429688 25.8603 -0.0429688 25.0986C1.26307 20.4179 2.65239 15.746 4.125 11.083C6.06267 7.44896 9.31399 5.65892 13.8789 5.71289C14.0807 5.73924 14.2382 5.8281 14.3516 5.97949C14.8164 6.98094 15.3034 7.97116 15.8125 8.95019C16.1036 9.25077 16.4617 9.46664 16.8867 9.59765C20.0922 9.72174 23.3005 9.7471 26.5117 9.67383C27.1416 9.60413 27.6715 9.36297 28.1016 8.95019C28.461 8.33693 28.7618 7.70219 29.0039 7.0459C25.3371 7.05859 21.6704 7.0459 18.0039 7.00781C17.552 6.69565 17.4805 6.32749 17.7891 5.90332C17.9307 5.81062 18.0882 5.74714 18.2617 5.71289C22.3891 5.63933 26.5141 5.66472 30.6367 5.78906C30.9487 6.02137 31.049 6.31336 30.9375 6.66504C30.4752 7.76869 29.9309 8.8351 29.3047 9.86426C28.6048 10.5608 27.7311 10.9543 26.6836 11.0449C23.3292 11.1183 19.9776 11.0929 16.6289 10.9687C15.5125 10.7342 14.6961 10.1629 14.1797 9.25488C13.8764 8.62616 13.59 7.99142 13.3203 7.35058C13.279 7.19992 13.1788 7.09836 13.0195 7.0459C9.2241 7.35206 6.66028 9.07862 5.32812 12.2256C4.08295 16.4118 2.85118 20.6012 1.63281 24.7939C1.15934 27.1898 1.83252 29.2845 3.65234 31.0781C5.62193 32.2409 7.44094 32.0758 9.10938 30.583C10.2413 29.0331 11.4159 27.5097 12.6328 26.0127C13.6342 25.1562 14.8231 24.6103 16.1992 24.375C20.0378 24.3242 23.8763 24.3242 27.7148 24.375C29.4944 24.6849 30.9124 25.4847 31.9688 26.7744C32.9141 28.044 33.8594 29.3134 34.8047 30.583C36.4732 32.0758 38.2921 32.2409 40.2617 31.0781C41.9624 29.4311 42.6642 27.4887 42.3672 25.251C41.132 20.8209 39.8429 16.4029 38.5 11.9971C38.2748 11.499 38.0169 11.0165 37.7266 10.5498C37.1837 9.89122 36.6107 9.2564 36.0078 8.64551C35.9691 7.89262 36.3559 7.62602 37.168 7.8457C38.3108 8.75656 39.1844 9.83562 39.7891 11.083C41.2617 15.746 42.651 20.4179 43.957 25.0986ZM10.8711 13.3682C11.9976 13.3133 12.4702 13.7703 12.2891 14.7393C11.8514 15.3671 11.2642 15.5068 10.5273 15.1582C9.87181 14.4384 9.98645 13.8417 10.8711 13.3682ZM27.1133 19.5381C28.1993 19.447 28.7005 19.8786 28.6172 20.833C28.225 21.5323 27.6378 21.6973 26.8555 21.3281C26.2261 20.6497 26.312 20.0531 27.1133 19.5381Z" fill="#d94343"/>
<path opacity="0.877" fill-rule="evenodd" clip-rule="evenodd" d="M32.5273 11.7686C33.2078 11.7823 33.5086 12.087 33.4297 12.6826C33.2233 13.1086 32.8652 13.2482 32.3555 13.1016C31.9554 12.8809 31.8265 12.5636 31.9687 12.1494C32.1239 11.9722 32.3101 11.8453 32.5273 11.7686Z" fill="#d94343"/>
<path opacity="0.935" fill-rule="evenodd" clip-rule="evenodd" d="M11.2148 11.9209C13.4093 12.2301 14.2544 13.3473 13.75 15.2725C12.9341 16.5921 11.7166 17.011 10.0976 16.5293C8.87699 15.9522 8.37566 15.0508 8.59374 13.8252C8.98373 12.6571 9.85745 12.0223 11.2148 11.9209ZM10.8711 13.3682C9.98644 13.8417 9.8718 14.4384 10.5273 15.1582C11.2642 15.5068 11.8514 15.3671 12.2891 14.7393C12.4702 13.7704 11.9976 13.3133 10.8711 13.3682Z" fill="#d94343"/>
<path opacity="0.867" fill-rule="evenodd" clip-rule="evenodd" d="M30.293 13.6729C31.1229 13.6087 31.4523 13.9388 31.2812 14.6631C30.8528 15.1327 30.3945 15.1581 29.9062 14.7393C29.6679 14.2742 29.7968 13.9187 30.293 13.6729Z" fill="#d94343"/>
<path opacity="0.867" fill-rule="evenodd" clip-rule="evenodd" d="M34.5039 13.6729C35.3338 13.6087 35.6632 13.9388 35.4922 14.6631C35.0638 15.1327 34.6055 15.1581 34.1172 14.7393C33.8789 14.2742 34.0078 13.9187 34.5039 13.6729Z" fill="#d94343"/>
<path opacity="0.877" fill-rule="evenodd" clip-rule="evenodd" d="M32.5273 15.501C33.2084 15.5164 33.5092 15.8211 33.4297 16.415C33.2274 16.8412 32.8693 16.9808 32.3555 16.834C31.9554 16.6133 31.8265 16.296 31.9687 15.8818C32.1239 15.7047 32.3101 15.5778 32.5273 15.501Z" fill="#d94343"/>
<path opacity="0.935" fill-rule="evenodd" clip-rule="evenodd" d="M16.457 17.9384C16.8455 17.9302 17.1177 18.0825 17.2734 18.3955C17.3164 18.8772 17.3307 19.3596 17.3164 19.8427C17.8614 19.8301 18.4056 19.8427 18.9492 19.8808C19.6367 20.3125 19.6367 20.7441 18.9492 21.1757C18.4056 21.2138 17.8614 21.2265 17.3164 21.2138C17.3307 21.6969 17.3164 22.1793 17.2734 22.6611C17.0245 23.0157 16.6664 23.1299 16.1992 23.0039C16.0762 22.9684 15.976 22.9049 15.8984 22.8134C15.7795 22.287 15.7365 21.7538 15.7695 21.2138C15.1603 21.2431 14.5587 21.205 13.9648 21.0996C13.6787 20.7844 13.6358 20.4417 13.8359 20.0712C13.9135 19.9798 14.0137 19.9162 14.1367 19.8808C14.6803 19.8427 15.2245 19.8301 15.7695 19.8427C15.7552 19.3596 15.7695 18.8772 15.8125 18.3955C15.945 18.1371 16.1598 17.9847 16.457 17.9384Z" fill="#d94343"/>
<path opacity="0.937" fill-rule="evenodd" clip-rule="evenodd" d="M26.8555 18.167C28.5133 17.9511 29.6161 18.535 30.164 19.919C30.336 21.9755 29.2618 22.953 26.9414 22.8516C25.3399 22.3879 24.6667 21.4104 24.9219 19.919C25.2407 19.0398 25.8852 18.4558 26.8555 18.167ZM27.1133 19.5381C26.312 20.0531 26.226 20.6498 26.8555 21.3281C27.6377 21.6974 28.225 21.5323 28.6172 20.833C28.7005 19.8787 28.1993 19.447 27.1133 19.5381Z" fill="#d94343"/>
</g>
<defs>
<clipPath id="clip0_130_471">
<rect width="44" height="39" fill="white"/>
</clipPath>
</defs>
</svg>
