<svg width="31" height="28" viewBox="0 0 31 28" fill="none" xmlns="http://www.w3.org/2000/svg">
<g clip-path="url(#clip0_153_28)">
<path d="M14.168 0.136633C12.1396 0.557726 10.4383 1.21398 8.7793 2.21476C5.34629 4.29835 2.99102 7.48116 2.18574 11.1398C1.93145 12.2718 1.85274 13.1687 1.89512 14.3773C1.96777 16.3734 2.41582 18.0687 3.3543 19.9171L3.56621 20.3327L3.26953 20.6663C2.9002 21.0819 2.53086 21.7491 2.38555 22.2468L2.27656 22.6351L1.93145 22.7499C0.59336 23.1874 -0.230077 24.5437 0.0666025 25.8233C0.30879 26.8679 1.2957 27.7429 2.45215 27.9452C2.7125 27.989 4.15957 27.9999 7.44727 27.989C12.5574 27.9726 12.285 27.989 12.957 27.6226L13.2295 27.4749L13.6533 27.5733C16.5354 28.246 19.9744 28.0874 22.802 27.1523C23.6617 26.8679 25.2359 26.1569 25.9746 25.7194C27.7729 24.6476 29.3713 23.2093 30.5277 21.6069C31.0545 20.8687 31.1211 20.5624 30.8062 20.2069C30.5096 19.8679 30.0797 19.8241 29.4076 20.0648C22.2812 22.6241 14.2891 18.9382 12.4121 12.228C11.9701 10.6476 11.9156 8.73898 12.2668 7.16397C12.7027 5.22804 13.7199 3.3796 15.1488 1.91945C15.8512 1.20304 15.8754 1.17023 15.9057 0.907726C15.9662 0.437414 15.609 0.0546017 15.0822 0.0217896C14.9309 0.0108509 14.5191 0.06007 14.168 0.136633ZM12.4363 2.44444C11.958 3.09523 11.292 4.35304 10.959 5.24991C10.1719 7.37179 10.0023 9.90929 10.5049 12.0968C11.0619 14.5304 12.3939 16.789 14.3375 18.5773C16.0631 20.1687 18.0732 21.2843 20.4043 21.9405C21.8514 22.3452 23.0562 22.5038 24.7334 22.4984C25.8959 22.4984 26.8102 22.4273 27.5488 22.2741C27.7607 22.2304 26.9857 22.9468 26.1865 23.5319C23.1107 25.7851 19.0965 26.764 15.282 26.1952C14.3738 26.064 14.3314 26.0476 14.3738 25.8999C14.7189 24.6093 13.8955 23.1929 12.5332 22.7444L12.1941 22.6351L12.0246 22.1155C11.7764 21.3882 11.4131 20.8523 10.7531 20.2562C10.1779 19.7366 9.74805 19.4741 9.05781 19.228C7.98008 18.8398 6.57539 18.8233 5.50977 19.1898C5.32813 19.2554 5.14649 19.3046 5.11016 19.3046C4.92852 19.3046 4.20801 17.4671 3.97188 16.4062C3.36035 13.628 3.74785 10.8991 5.11016 8.39444C6.57539 5.70929 8.88828 3.71866 11.9883 2.48273C12.5453 2.25851 12.5756 2.25851 12.4363 2.44444ZM8.01641 20.6499C9.33027 20.9562 10.2445 21.9241 10.4201 23.2093C10.4564 23.4554 10.5291 23.7234 10.5957 23.8163C10.741 24.0296 11.0135 24.1718 11.2738 24.1718C11.8975 24.1718 12.4545 24.5218 12.5938 24.9976C12.727 25.4296 12.4848 25.9655 12.067 26.2062L11.8369 26.3319L7.2959 26.3483L2.74883 26.3593L2.48242 26.2335C1.77402 25.8999 1.61055 25.1124 2.13731 24.5765C2.38555 24.3194 2.56113 24.2429 3.08184 24.1773C3.73574 24.1007 3.94766 23.8874 4.02637 23.2421C4.12324 22.4491 4.48652 21.7984 5.1041 21.3007C5.8791 20.6663 7.00527 20.4148 8.01641 20.6499Z" fill="#C22727"/>
<path d="M21.2822 5.23345C19.4719 5.58345 17.8795 6.95063 17.4859 8.49829C17.4133 8.78814 17.3891 8.82642 17.1953 8.89751C16.3174 9.22017 15.8027 9.63579 15.4273 10.3139C15.1912 10.7459 15.173 10.8116 15.1488 11.3366C15.1307 11.7686 15.1488 11.9819 15.2275 12.228C15.5242 13.1686 16.39 13.9124 17.4435 14.1366C18.0187 14.2569 26.6648 14.2569 27.24 14.1366C28.0574 13.9616 28.79 13.453 29.1775 12.7913C29.4439 12.3483 29.5469 11.9819 29.5469 11.4788C29.5469 10.7678 29.2865 10.1772 28.7234 9.62485C28.451 9.36235 28.2572 9.23657 27.8152 9.04517C27.2885 8.81001 27.2582 8.78814 27.2158 8.59673C27.0826 7.95142 26.5861 7.1311 25.9564 6.52407C24.8182 5.42485 22.9533 4.91079 21.2822 5.23345ZM23.0199 6.84126C23.8615 6.99985 24.7455 7.60688 25.1451 8.30142C25.4115 8.76626 25.4721 8.94673 25.5447 9.4772C25.6295 10.128 25.8353 10.3249 26.4953 10.3959C27.2582 10.4834 27.6699 10.828 27.7184 11.4241C27.7547 11.9108 27.4883 12.3045 26.9918 12.4959C26.792 12.567 26.1986 12.578 22.3297 12.578C18.1398 12.578 17.8795 12.5725 17.6494 12.4741C17.1771 12.2772 16.9531 11.9545 16.9531 11.4788C16.9531 10.8444 17.5102 10.3905 18.2912 10.3905C18.7211 10.3905 19.1328 9.98579 19.1328 9.55923C19.1328 8.37251 20.1803 7.2022 21.5547 6.85767C21.8998 6.77017 22.6082 6.7647 23.0199 6.84126Z" fill="#C22727"/>
</g>
<defs>
<clipPath id="clip0_153_28">
<rect width="31" height="28" fill="white"/>
</clipPath>
</defs>
</svg>
