<svg width="41" height="38" viewBox="0 0 41 38" fill="none" xmlns="http://www.w3.org/2000/svg">
<path d="M12.5162 4.26758C11.1549 4.60898 10.0818 5.61094 9.72949 6.86523C9.65742 7.13242 9.60938 7.62226 9.60938 8.10469V8.90625H10.8826H12.1559L12.1879 8.09727C12.2119 7.22148 12.284 7.05078 12.7645 6.72422C12.9807 6.56836 12.9967 6.56836 24.3357 6.56836H35.6908L35.9871 6.78359C36.5477 7.17695 36.5236 6.75391 36.4996 14.3539C36.4756 21.1523 36.4756 21.2191 36.3074 21.4195C35.9551 21.8648 35.7709 21.9316 34.826 21.9539L33.9531 21.9836V23.1637V24.3438H34.7459C35.7709 24.3438 36.2674 24.2547 36.9641 23.9355C37.965 23.4828 38.7898 22.4809 38.998 21.4566C39.1102 20.9148 39.1102 7.58516 38.998 7.04336C38.7979 6.08594 37.9971 5.06172 37.0922 4.61641C36.1072 4.12656 36.8359 4.15625 24.3037 4.16367C14.7824 4.16367 12.8605 4.18594 12.5162 4.26758Z" fill="#C22727"/>
<path d="M6.10996 10.2051C4.74863 10.5465 3.67559 11.5484 3.32324 12.8027C3.14707 13.4559 3.13906 26.9117 3.32324 27.5574C3.69961 28.8859 4.90879 29.9547 6.31817 30.207C6.5584 30.2441 7.24707 30.2812 7.85567 30.2812H8.96875V31.5801C8.96875 32.7379 8.98477 32.916 9.12891 33.1758C9.32109 33.5172 9.85762 33.8438 10.25 33.8438C10.5543 33.8438 10.5943 33.8215 14.5502 31.7582L17.3689 30.2812H23.2467C26.8182 30.2812 29.2926 30.2516 29.5568 30.207C31.0143 29.9547 32.3115 28.7523 32.5918 27.3941C32.7039 26.8523 32.7039 13.5227 32.5918 12.9809C32.3916 12.0234 31.5908 10.9992 30.6859 10.5539C29.701 10.0641 30.4297 10.0937 17.8975 10.1012C8.37617 10.1012 6.4543 10.1234 6.10996 10.2051ZM29.5809 12.7211C30.1414 13.1145 30.1174 12.6914 30.0934 20.2914C30.0693 27.0898 30.0693 27.1566 29.9012 27.357C29.8131 27.4684 29.6369 27.6316 29.5168 27.7133C29.3006 27.8691 29.2045 27.8691 22.9584 27.9062L16.6162 27.9434L14.0777 29.2941L11.5313 30.6375V29.7543C11.5313 28.7227 11.4512 28.4703 11.0027 28.1586L10.7064 27.9434L8.65645 27.9062C7.21504 27.8766 6.55039 27.8395 6.43027 27.7727C6.33418 27.7207 6.15 27.5574 6.02988 27.409L5.80567 27.1418L5.78164 20.3805C5.77363 16.6621 5.78164 13.5152 5.80567 13.3816C5.86172 13.0848 6.19805 12.7062 6.52637 12.5727C6.72656 12.491 8.78457 12.4762 18.0256 12.491L29.2846 12.5059L29.5809 12.7211Z" fill="#C22727"/>
<path d="M8.32812 16.625V17.8125H17.9375H27.5469V16.625V15.4375H17.9375H8.32812V16.625Z" fill="#C22727"/>
<path d="M8.32812 20.1875V21.375H17.9375H27.5469V20.1875V19H17.9375H8.32812V20.1875Z" fill="#C22727"/>
<path d="M8.32812 23.75V24.9375H17.9375H27.5469V23.75V22.5625H17.9375H8.32812V23.75Z" fill="#C22727"/>
</svg>
