<svg width="42" height="40" viewBox="0 0 42 40" fill="none" xmlns="http://www.w3.org/2000/svg">
<g clip-path="url(#clip0_424_578)">
<path d="M6.14634 40C6.14634 40 4.47912 38.7305 4.47912 38.6666C4.09756 38.4615 3.20999 36.2354 3.49986 34.8367C3.79189 33.4275 4.71851 32.4673 6.00489 31.7183C5.36828 31.5648 4.8709 31.2844 4.51862 30.7954C4.17317 30.3158 4.0369 29.7862 4.07381 29.2115C4.15191 27.9953 5.35032 26.9621 6.71492 27.1391C7.11814 27.1914 7.48219 27.3022 7.83607 27.4713C7.99329 27.5464 8.13818 27.584 8.29181 27.4653C8.87267 27.0165 9.45403 26.5683 10.0384 26.1236C10.8689 25.4916 11.3262 24.6286 11.6975 23.7106C11.9574 23.068 12.1901 22.4228 12.2016 21.7195C12.2068 21.4026 12.0995 21.2594 11.7646 21.1901C11.0749 21.0474 10.3982 20.8485 9.7109 20.6939C9.45512 20.6364 9.36738 20.5173 9.4171 20.2843C9.80428 18.4705 10.1636 16.6507 10.5878 14.8447C10.8976 13.5263 11.8689 12.7821 13.1842 12.4055C14.5773 12.0066 15.9718 11.6123 17.3681 11.2239C17.5489 11.1736 17.6079 11.075 17.6072 10.9139C17.6056 10.5756 17.6075 10.2372 17.6055 9.89887C17.6046 9.74818 17.5309 9.62448 17.4317 9.51316C16.6208 8.60305 16.235 7.55764 16.2926 6.35921C16.3175 5.83975 16.3302 5.31599 16.2909 4.79814C16.1277 2.64784 17.6905 0.720497 19.7537 0.169299C19.7777 0.162861 19.7964 0.138042 19.8346 0.0999642C20.5369 0.078125 21.2222 0.078125 21.9459 0.078125C23.4542 0.372846 24.57 1.13983 25.3087 2.38236C25.6538 2.96301 25.8608 3.59514 25.8668 4.27131C25.8737 5.05245 25.8609 5.83377 25.8703 6.61486C25.8833 7.70158 25.5007 8.64909 24.7613 9.46305C24.5237 9.72466 24.558 10.0143 24.5569 10.3092C24.5538 11.148 24.5554 11.1487 25.4007 11.3951C26.739 11.7854 28.0877 12.1459 29.4131 12.5723C30.7583 13.005 31.431 13.9903 31.691 15.2797C32.0213 16.918 32.3576 18.5554 32.7161 20.1882C32.7848 20.5011 32.7258 20.6352 32.3962 20.707C31.7081 20.8567 31.0284 21.0416 30.342 21.199C30.0783 21.2595 29.9669 21.3726 29.9621 21.6513C29.9457 22.606 30.3667 23.4371 30.7172 24.2934C31.1976 25.4675 32.1886 26.1999 33.1812 26.9355C33.1919 26.9435 33.2072 26.9469 33.2156 26.9563C33.7102 27.5082 34.2134 27.5428 34.948 27.2515C35.9281 26.8628 36.9757 27.1864 37.6542 28.0666C38.2597 28.8523 38.2361 30.0441 37.6339 30.8026C37.2492 31.2871 36.9973 31.4478 36.1549 31.7279C37.4483 32.4601 38.3755 33.4314 38.6625 34.8506C38.9474 36.2597 38.5884 37.5226 37.6447 38.6808C37.3902 38.9744 37.1358 39.1071 37.3902 38.9744C37.0021 39.1768 35.8537 40 35.8537 40C23.6469 40.0356 18.3818 40 6.14634 40ZM25.4707 38.723C28.244 38.7228 31.0173 38.7215 33.7906 38.7241C34.1184 38.7244 34.4438 38.7191 34.7636 38.6421C36.3506 38.2598 37.271 37.1165 37.2597 35.6717C37.2512 34.5756 36.6431 33.7049 35.6253 33.1354C35.0034 32.7874 34.3827 32.4376 33.7588 32.093C32.9606 31.6522 32.1598 31.2157 31.3567 30.7755C30.9755 31.6676 30.9758 31.6679 30.1982 32.4098C29.3682 33.2017 28.5366 33.9921 27.7085 34.7858C27.5675 34.921 27.3724 35.0449 27.6697 35.241C28.3111 35.6642 28.305 35.673 27.8888 36.3142C27.8387 36.3913 27.7726 36.4615 27.7363 36.5438C27.6033 36.8457 27.4359 36.8212 27.1665 36.666C25.2934 35.5866 23.4046 34.5317 21.535 33.4467C21.2541 33.2837 21.1026 33.3414 20.9067 33.5302C20.0713 34.3353 19.2282 35.1331 18.3902 35.9357C18.3055 36.0168 18.2022 36.0897 18.1744 36.247C19.1836 37.3231 20.4113 38.0954 21.8963 38.4866C23.044 38.7889 24.2189 38.7201 25.4707 38.723ZM15.2747 35.5698C14.2029 34.5486 13.1348 33.5239 12.0577 32.5077C11.5284 32.0083 10.9651 31.5364 10.8431 30.7502C10.061 31.1828 9.33283 31.586 8.60431 31.9887C7.87498 32.3919 7.11894 32.7573 6.42208 33.2061C5.38711 33.8726 4.8313 34.7927 4.94261 36.0335C5.07786 37.5411 6.4901 38.7138 8.06258 38.7192C11.4225 38.7308 14.7826 38.7236 18.1426 38.7202C18.2808 38.7201 18.447 38.7784 18.5755 38.5799C17.3881 37.6932 16.4025 36.6018 15.2747 35.5698ZM16.4341 17.6964C16.4557 18.1021 16.3893 18.5139 16.4853 18.9651C19.8283 17.5863 22.5356 15.5685 24.5804 12.719C24.0348 12.5035 24.0379 12.5079 23.5194 12.8362C22.7274 13.3377 21.892 13.7525 20.9071 13.6914C20.0114 13.6359 19.2273 13.2561 18.524 12.7536C18.2269 12.5414 17.9798 12.5528 17.6633 12.645C16.3127 13.0381 14.9578 13.418 13.6031 13.7979C12.7446 14.0387 12.1896 14.5493 12.0074 15.3976C11.8388 16.1829 11.6695 16.9681 11.5093 17.7549C11.3889 18.3466 11.2187 18.9308 11.1614 19.5594C12.3999 19.8522 13.607 20.1377 14.8042 20.4208C14.9305 20.2469 14.8987 20.0998 14.8992 19.9613C14.9024 19.1027 14.9008 18.244 14.9011 17.3853C14.9013 16.7696 14.9016 16.7641 15.5413 16.7712C16.567 16.7826 16.4178 16.6425 16.4341 17.6964ZM23.8533 15.8812C23.2702 16.4653 22.6586 17.023 21.9999 17.527C20.4201 18.7357 18.6776 19.688 16.8055 20.423C16.523 20.5339 16.4209 20.696 16.4287 20.9852C16.46 22.1406 16.3771 23.2895 16.2007 24.4346C16.1568 24.7198 15.9943 24.995 16.0653 25.3186C16.1786 25.2947 16.2737 25.2852 16.3606 25.2548C18.3178 24.569 20.12 23.6307 21.7639 22.394C23.2519 21.2745 24.5171 19.9763 25.5903 18.4959C26.6047 17.0967 27.3178 15.5553 27.9734 13.9843C28.0865 13.7133 27.9436 13.6247 27.7276 13.5631C27.3891 13.4666 27.0257 13.4248 26.7109 13.2832C26.2492 13.0755 26.0338 13.281 25.8009 13.617C25.2453 14.4189 24.6032 15.1574 23.8533 15.8812ZM20.2609 9.56776C21.8322 10.0026 23.6499 9.0961 24.1679 7.59196C24.5456 6.49531 24.4334 5.36828 24.3463 4.24073C24.2099 2.47476 22.237 1.14369 20.4657 1.50749C19.1561 1.77645 17.9701 2.87157 17.8326 4.02728C17.7189 4.98355 17.7036 5.93791 17.8221 6.89753C17.9737 8.12406 18.9691 9.25248 20.2609 9.56776ZM25.7274 21.2099C25.7137 21.0965 25.7496 20.9758 25.6489 20.8296C23.0415 23.7654 19.816 25.805 15.8647 26.9363C16.4203 27.3309 16.9458 27.5036 17.4601 27.6927C19.3302 28.3804 21.2343 28.6151 23.2093 28.1283C24.3096 27.8571 25.3608 27.483 26.3681 26.9853C26.6052 26.8681 26.6267 26.7215 26.5435 26.509C25.8827 24.819 25.7541 23.0533 25.7274 21.2099ZM18.2579 31.5886C18.3057 31.7498 18.4138 31.9196 18.3903 32.0707C18.3036 32.6267 18.6894 32.8868 19.0537 33.1653C19.219 33.1299 19.2963 33.0154 19.3911 32.9251C19.8354 32.5021 20.2833 32.0824 20.7173 31.65C20.9017 31.4663 21.0611 31.4552 21.2861 31.591C21.872 31.9446 22.4716 32.2775 23.0655 32.6189C23.5591 32.9026 23.7429 32.8047 23.7611 32.2554C23.7866 31.4868 24.1639 30.9233 24.8795 30.5732C25.0592 30.4853 25.2604 30.383 25.4522 30.3823C26.0086 30.38 26.3899 30.1164 26.7482 29.7499C27.1136 29.3761 27.5197 29.0384 27.903 28.6896C27.4823 28.1086 27.4526 28.0933 26.8492 28.3947C26.3652 28.6364 25.8597 28.8273 25.3536 29.0185C23.6548 29.6603 21.8851 29.9332 20.0721 29.7743C18.3931 29.6272 16.8072 29.121 15.3057 28.3829C14.7376 28.1036 14.6225 28.1448 14.2564 28.7221C14.7731 29.0927 15.224 29.5421 15.6684 29.9953C15.8906 30.2219 16.1501 30.3346 16.4525 30.3572C17.2904 30.42 17.884 30.8047 18.2579 31.5886ZM33.3271 28.9274C32.9576 28.6424 32.5971 28.346 32.217 28.0745C30.9295 27.1552 29.7565 26.1572 29.2201 24.6358C28.9265 23.8034 28.4949 23.0124 28.5062 22.1013C28.5079 21.9683 28.4604 21.8219 28.3363 21.6998C28.1299 21.7423 27.9208 21.7958 27.7081 21.8268C27.3735 21.8757 27.2414 22.0224 27.2524 22.3702C27.2908 23.5844 27.5639 24.7512 27.9025 25.9159C28.1891 26.9017 28.8217 27.5453 29.7565 28.0112C31.179 28.7203 32.5709 29.4851 33.975 30.2277C34.0946 30.2909 34.208 30.3662 34.3525 30.3606C34.8277 30.3422 35.3026 30.4019 35.7787 30.2965C36.3956 30.1599 36.697 29.7289 36.5424 29.1505C36.4508 28.8081 35.825 28.3733 35.3543 28.6187C35.0572 28.7735 34.7158 28.8575 34.4344 29.0319C34.0421 29.2749 33.7025 29.3275 33.3271 28.9274ZM14.6673 24.4136C14.7451 23.9021 14.8667 23.3924 14.8913 22.8786C14.9385 21.8907 14.9157 21.8895 13.8924 21.7075C13.8678 21.7032 13.8401 21.7151 13.8057 21.7208C13.7037 21.8292 13.6609 21.9796 13.6616 22.1104C13.6668 22.9801 13.3018 23.7511 12.988 24.5387C12.6361 25.4221 12.1919 26.2652 11.4464 26.8934C10.502 27.6892 9.48721 28.4087 8.51456 29.1746C8.34951 29.3046 8.22964 29.2719 8.07525 29.1994C7.65956 29.0043 7.25017 28.7933 6.82182 28.6271C6.3816 28.4563 5.86676 28.6583 5.67704 29.034C5.46569 29.4525 5.59266 29.9861 6.05055 30.1774C6.72512 30.4592 7.48764 30.5392 8.14523 30.2224C9.59161 29.5256 10.9806 28.7216 12.4124 27.9961C13.2106 27.5916 13.8719 27.1106 14.1483 26.2408C14.3337 25.657 14.504 25.0706 14.6673 24.4136ZM29.1119 15.1723C28.6741 16.2071 28.2339 17.2438 27.5812 18.1756C27.0851 18.8839 27.3175 19.6366 27.2675 20.4416C28.5656 20.1336 29.7734 19.8471 30.9922 19.5579C30.9864 19.4363 30.9939 19.345 30.976 19.2584C30.6978 17.9154 30.4247 16.5713 30.1299 15.2315C30.0519 14.8769 29.8735 14.5575 29.4748 14.3522C29.3567 14.6216 29.2479 14.8699 29.1119 15.1723ZM17.7647 34.1091C17.2244 33.6795 16.8214 33.2134 16.931 32.4568C16.9862 32.0757 16.5868 31.7574 16.1606 31.7537C15.6991 31.7497 15.3143 31.5774 14.9485 31.3453C14.4205 31.0104 14.0356 30.5271 13.5758 30.1211C13.4565 30.0157 13.3493 29.9014 13.1695 29.8765C12.8432 29.8311 12.5998 29.951 12.45 30.2131C12.2714 30.5253 12.4133 30.7897 12.6503 31.016C13.8859 32.1956 15.1224 33.3743 16.3614 34.5506C17.0776 35.2305 17.1648 35.2199 17.7931 34.449C17.8844 34.3371 17.913 34.2501 17.7647 34.1091ZM25.1605 33.3783C24.9615 33.5724 24.9587 33.7287 25.2427 33.8544C25.3897 33.9195 25.5326 34.0018 25.6593 34.098C25.9442 34.3143 26.1462 34.2347 26.385 34.0022C27.3957 33.0183 28.4259 32.0525 29.4468 31.0781C29.5323 30.9965 29.6154 30.9073 29.6765 30.8086C29.8739 30.4897 29.8218 30.2073 29.5093 29.9948C29.2198 29.798 28.9241 29.8067 28.6612 30.0534C28.331 30.3633 28.0174 30.6903 27.6746 30.9869C27.1969 31.4003 26.6812 31.7418 25.9896 31.7571C25.5396 31.7671 25.2408 32.0786 25.2153 32.5068C25.1991 32.7786 25.1989 33.0512 25.1605 33.3783ZM22.9772 11.3516C23.044 11.1634 23.0327 10.977 22.9841 10.7561C21.7062 11.2426 20.4476 11.2442 19.1813 10.7586C19.1181 11.0824 19.1038 11.3332 19.3656 11.546C20.5079 12.4744 21.8828 12.4226 22.9772 11.3516Z" fill="white"/>
</g>
<defs>
<clipPath id="clip0_424_578">
<rect width="42" height="40" fill="white"/>
</clipPath>
</defs>
</svg>
