<svg width="30" height="30" viewBox="0 0 30 30" fill="none" xmlns="http://www.w3.org/2000/svg">
<path d="M14.332 0.070343C13.9336 0.146515 13.2715 0.462921 12.9082 0.750031C12.5215 1.06058 12.0938 1.66409 11.9062 2.16214C11.7832 2.47855 11.7539 2.67191 11.7363 3.25198L11.7188 3.95511L11.2969 4.13675C10.0957 4.64651 9.11719 5.29691 8.22656 6.18167C6.74414 7.64651 5.87109 9.28714 5.4668 11.3672C5.38477 11.7891 5.36133 12.4395 5.33203 15.5157C5.30273 19.043 5.29687 19.1719 5.19141 19.2539C5.12695 19.3008 5.00977 19.336 4.92773 19.336C4.20703 19.3477 3.26367 19.6993 2.68359 20.1797C1.46484 21.1758 1.11328 22.916 1.8457 24.3106C2.25 25.0723 2.90039 25.6348 3.75 25.9453L4.18945 26.1035L7.41211 26.1211C9.83789 26.1328 10.6406 26.1563 10.6758 26.209C10.6992 26.25 10.7227 26.3379 10.7227 26.4141C10.7227 26.6543 11.0156 27.4395 11.25 27.8379C11.8184 28.7989 12.6973 29.4785 13.8281 29.8301C14.4082 30.0118 15.5273 30.0235 16.1133 29.8594C17.1035 29.5723 18.0586 28.8868 18.6035 28.0664C18.9785 27.5039 19.1367 27.1055 19.3066 26.291L19.3359 26.1328H22.4004C25.8105 26.1328 25.957 26.1153 26.707 25.7461C27.5449 25.336 28.2773 24.3809 28.4707 23.4493C28.7754 21.9551 28.0312 20.4317 26.6543 19.752C26.1973 19.5235 25.5059 19.3418 25.0723 19.336C24.9902 19.336 24.873 19.3008 24.8086 19.2539C24.7031 19.1719 24.6973 19.0489 24.668 15.6035C24.6328 12.1875 24.627 12.0176 24.498 11.3965C24.1582 9.76761 23.4609 8.27347 22.4531 7.02542C21.4512 5.77737 19.8398 4.5762 18.5156 4.07816L18.252 3.97855V3.293C18.252 2.45511 18.123 2.02737 17.6895 1.41214C16.9395 0.339874 15.6387 -0.18161 14.332 0.070343ZM15.5566 2.07425C16.0371 2.29691 16.3477 2.74808 16.3477 3.21683V3.44534L15.4277 3.41605C14.918 3.39847 14.3086 3.41019 14.0801 3.43948L13.6523 3.49222V3.24026C13.6523 2.74808 13.957 2.29691 14.4434 2.07425C14.8184 1.89261 15.1816 1.89261 15.5566 2.07425ZM16.8457 5.56058C19.7051 6.29886 21.9316 8.68362 22.5996 11.7188C22.6758 12.0879 22.6992 12.7442 22.7285 15.8203C22.7637 19.4825 22.7637 19.4825 22.9043 19.8223C22.9922 20.0391 23.1621 20.2969 23.3848 20.5313C23.8242 21 24.2285 21.1934 24.9609 21.2754C25.5879 21.3457 25.8223 21.4336 26.1445 21.7266C26.4551 22.0078 26.6016 22.3243 26.6016 22.7403C26.6016 23.3555 26.1328 23.9825 25.5527 24.1407C25.3945 24.1817 21.9609 24.1934 14.877 24.1875L4.42383 24.17L4.18945 24.041C3.36328 23.5957 3.14062 22.5469 3.72656 21.8614C4.03125 21.5098 4.38867 21.3457 5.0332 21.2754C5.91797 21.1758 6.55664 20.795 6.94336 20.1328C7.25391 19.5996 7.26562 19.4649 7.26562 15.8614C7.26562 12.1289 7.29492 11.7422 7.64648 10.6875C8.57227 7.89847 10.9043 5.90042 13.7695 5.41995C14.1035 5.36136 14.5723 5.34378 15.2051 5.3555C16.0195 5.37894 16.2363 5.40237 16.8457 5.56058ZM17.3438 26.2325C17.3438 26.4493 17.0391 26.9707 16.7285 27.2989C15.7617 28.3125 14.2383 28.3125 13.2715 27.2989C13.0898 27.1114 12.8789 26.8184 12.8027 26.6485C12.5391 26.086 12.334 26.1328 15 26.1328C17.1914 26.1328 17.3438 26.1387 17.3438 26.2325Z" fill="#C22727"/>
<path d="M23.877 3.66206C23.4024 3.83198 23.1387 4.33589 23.2617 4.81636C23.3086 4.98042 23.4434 5.17964 23.666 5.41401C25.0254 6.84956 25.9805 8.54292 26.4551 10.3593C26.6543 11.1093 26.7481 11.2851 27.0527 11.4667C27.668 11.83 28.4766 11.3789 28.4766 10.6816C28.4766 10.0957 28.0078 8.67183 27.4219 7.4648C26.9356 6.46284 26.2734 5.46089 25.5176 4.58198C24.7207 3.6562 24.3926 3.47456 23.877 3.66206Z" fill="#C22727"/>
<path d="M5.26758 3.77345C4.84571 4.06056 3.75001 5.41407 3.14649 6.38673C2.76563 7.00782 2.21485 8.18556 1.96876 8.9004C1.38282 10.5879 1.38868 11.1328 1.99805 11.4785C2.29102 11.6484 2.6543 11.6367 2.95899 11.4609C3.2461 11.291 3.35743 11.0859 3.52149 10.4297C3.93751 8.71876 4.95704 6.88478 6.23438 5.51954C6.69141 5.03321 6.75001 4.92189 6.75001 4.56446C6.75001 4.00782 6.37501 3.63282 5.80665 3.63282C5.55469 3.63282 5.42579 3.66798 5.26758 3.77345Z" fill="#C22727"/>
</svg>
