<svg width="44" height="45" viewBox="0 0 44 45" fill="none" xmlns="http://www.w3.org/2000/svg">
<path d="M20.5734 4.3418C18.5711 4.7373 17.093 5.5459 15.7523 6.96973C14.9703 7.80469 14.5492 8.42871 14.0938 9.43066C13.4922 10.749 13.3891 11.3027 13.3461 13.5527L13.3031 15.5479L12.9938 15.6006C10.7594 15.9785 9.03203 17.3584 8.29297 19.3711C7.8461 20.584 7.82891 20.8564 7.81172 28.4326C7.80313 34.7959 7.81172 35.5166 7.94922 36.0264C8.48203 38.1182 9.97735 39.7705 11.9883 40.4912L12.6758 40.7373H22H31.3242L32.0117 40.4912C33.9797 39.7793 35.5438 38.0566 36.0594 36.0352C36.1883 35.5166 36.1969 34.7607 36.1883 28.4326C36.1711 20.7773 36.1539 20.5576 35.6813 19.3008C34.9422 17.3672 33.3781 16.084 31.1867 15.6445L30.6969 15.5479L30.6539 13.5527C30.6109 11.3027 30.5078 10.7402 29.9063 9.43066C29.4508 8.42871 29.0297 7.80469 28.2477 6.96973C26.6234 5.22949 24.6383 4.33301 22.2578 4.25391C21.5703 4.23633 20.9602 4.2627 20.5734 4.3418ZM23.1859 7.16309C25.1883 7.56738 26.9156 9.12305 27.6203 11.1533C27.8695 11.8828 27.8867 11.9707 27.9125 13.6846L27.9469 15.4688H22H16.0531L16.0875 13.6846C16.1133 11.9707 16.1305 11.8828 16.3797 11.1533C17.3852 8.25293 20.2555 6.57422 23.1859 7.16309ZM31.2125 18.5273C32.2352 18.8789 32.9227 19.5996 33.2406 20.6455C33.3781 21.0938 33.3867 21.7354 33.3867 28.125C33.3867 34.5146 33.3781 35.1562 33.2406 35.6045C32.9141 36.6768 32.218 37.3887 31.1695 37.7227L30.5508 37.9248H22H13.4492L12.8305 37.7227C12.1 37.4941 11.5758 37.1074 11.1977 36.5273C10.5961 35.6133 10.6219 35.9473 10.5875 28.3711C10.5703 22.4473 10.5789 21.4629 10.6992 20.9531C11.0344 19.4678 11.9109 18.6416 13.432 18.3779C13.6813 18.334 17.6516 18.3076 22.2578 18.3164L30.6367 18.3252L31.2125 18.5273Z" fill="#C22727"/>
<path d="M21.3984 23.9854C20.4187 24.293 19.7656 25.1895 19.7656 26.2354C19.7656 26.8418 19.9547 27.3164 20.3586 27.791L20.625 28.1074V30.1377C20.625 31.9922 20.6422 32.2031 20.7969 32.5107C21.2867 33.5039 22.7133 33.5039 23.2031 32.5107C23.3578 32.2031 23.375 31.9922 23.375 30.1641V28.1514L23.6586 27.835C24.5352 26.8857 24.5266 25.5146 23.6414 24.6094C23.057 24.0117 22.1461 23.7568 21.3984 23.9854Z" fill="#C22727"/>
</svg>
